<?xml version="1.0" encoding="utf-8"?>
<!-- Generator: Adobe Illustrator 21.0.0, SVG Export Plug-In . SVG Version: 6.00 Build 0)  -->
<svg version="1.1" id="Layer_1" xmlns="http://www.w3.org/2000/svg" xmlns:xlink="http://www.w3.org/1999/xlink" x="0px" y="0px"
	 viewBox="0 0 72 22" style="enable-background:new 0 0 72 22;" xml:space="preserve">
<style type="text/css">
	.st0{fill:#FFFFFF;}
	.st1{fill:#B2B2B2;}
</style>
<g>
	<polygon id="path-5" class="st0" points="50,0.2 71.7,0.2 71.7,20.8 50,20.8 	"/>
</g>
<g>
	<polygon id="path-3" class="st0" points="0,0.2 21.7,0.2 21.7,20.8 0,20.8 	"/>
</g>
<g>
	<polygon id="path-1" class="st0" points="25,0.2 46.7,0.2 46.7,20.8 25,20.8 	"/>
</g>
<title>logo/bbc</title>
<desc>Created with Sketch.</desc>
<g id="Symbols">
	<g id="logo_x2F_bbc">
		<g id="Page-1">
			<path id="Fill-1" class="st1" d="M37.5,7.2c0,0,0.1-1.6-2.1-1.8h-2.1v3.8h1.8C35.1,9.2,37.5,9.2,37.5,7.2"/>
			<path id="Fill-3" class="st1" d="M36.1,11.6h-2.8v4h2.8c0,0,2.8,0.1,2.8-2.1C38.8,13.5,38.9,11.6,36.1,11.6"/>
			<g id="Group-7" transform="translate(24.860140, 0.108329)">
				<g id="Clip-6">
				</g>
				<path id="Fill-5" class="st1" d="M16.7,13.6c0,4.2-4.9,4.2-4.9,4.2h-6V3H11c4.6,0.4,4.4,4,4.4,4c0,2.2-1.9,3-1.9,3
					C16.8,10.8,16.7,13.6,16.7,13.6z M0.1,20.7h21.7V0.1H0.1V20.7z"/>
			</g>
			<path id="Fill-8" class="st1" d="M12.5,7.2c0,0,0.1-1.6-2.1-1.8H8.3v3.8h1.8C10.1,9.2,12.5,9.2,12.5,7.2"/>
			<path id="Fill-10" class="st1" d="M11.1,11.6H8.3v4h2.8c0,0,2.8,0.1,2.8-2.1C13.8,13.5,13.9,11.6,11.1,11.6"/>
			<g id="Group-14" transform="translate(0.000000, 0.108329)">
				<g id="Clip-13">
				</g>
				<path id="Fill-12" class="st1" d="M16.5,13.6c0,4.2-4.9,4.2-4.9,4.2H5.7V3h5.2c4.6,0.4,4.4,4,4.4,4c0,2.2-1.9,3-1.9,3
					C16.6,10.8,16.5,13.6,16.5,13.6z M0,20.7h21.7V0.1H0V20.7z"/>
			</g>
			<g id="Group-17" transform="translate(49.917582, 0.108329)">
				<g id="Clip-16">
				</g>
				<path id="Fill-15" class="st1" d="M17.5,16.6c0,0-4.5,2.7-9.6,0.6c0,0-4.3-1.6-4.5-6.8c0,0-0.2-5.4,5.6-7.2c0,0,1.5-0.6,4.3-0.3
					c0,0,1.7,0.2,4.1,1.2v2.7c0,0-2.6-1.6-5.6-1.7c0,0-5.5-0.1-5.7,5.3c0,0-0.2,5,5.6,5.2c0,0,2.4,0.3,5.8-1.8V16.6z M0.1,20.7h21.7
					V0.1H0.1V20.7z"/>
			</g>
		</g>
	</g>
</g>
</svg>
