<?xml version="1.0" encoding="utf-8"?>
<!-- Generator: Adobe Illustrator 21.0.0, SVG Export Plug-In . SVG Version: 6.00 Build 0)  -->
<svg version="1.1" id="Layer_1" xmlns="http://www.w3.org/2000/svg" xmlns:xlink="http://www.w3.org/1999/xlink" x="0px" y="0px"
	 viewBox="0 0 95 30" style="enable-background:new 0 0 95 30;" xml:space="preserve">
<style type="text/css">
	.st0{fill:#B2B2B2;}
</style>
<title>logo/business</title>
<desc>Created with Sketch.</desc>
<g id="Symbols">
	<g id="logo_x2F_business">
		<g id="BI_dark_background_white_vertical" transform="translate(0.575758, 0.000000)">
			<path id="Fill-1" class="st0" d="M30.4,21c0,1.8,1.2,2.7,2.8,3.2l1.7,0.6c1,0.4,1.6,0.7,1.6,1.6c0,1-0.9,1.5-2.3,1.5
				c-1.4,0-2.7-0.5-3.7-1.3v2c0.8,0.5,2.2,1,3.7,1c2.4,0,4.2-1.1,4.2-3.2c0-1.6-0.8-2.6-2.7-3.3l-1.9-0.7c-1-0.3-1.5-0.7-1.5-1.5
				c0-0.9,0.9-1.3,2.1-1.3c1.4,0,2.4,0.5,3.4,1.2v-2c-0.9-0.6-2.1-0.9-3.5-0.9C32.2,17.9,30.4,19,30.4,21"/>
			<polygon id="Fill-3" class="st0" points="43.2,29.1 45.2,29.1 45.2,17.9 43.2,17.9 			"/>
			<polygon id="Fill-5" class="st0" points="7.9,29.1 9.9,29.1 9.9,17.9 7.9,17.9 			"/>
			<path id="Fill-6" class="st0" d="M50.8,17.9v11.2h4.4c3.4,0,5.6-2.2,5.6-5.6c0-3.4-2.2-5.6-5.6-5.6H50.8z M52.8,19.6h2.4
				c2.4,0,3.7,1.5,3.7,3.9c0,2.4-1.3,3.9-3.7,3.9h-2.4V19.6z"/>
			<polygon id="Fill-7" class="st0" points="64.9,17.9 64.9,29.1 71.7,29.1 71.7,27.4 66.7,27.4 66.7,23.9 71.2,23.9 71.2,22.3 
				66.7,22.3 66.7,19.6 71.7,19.6 71.7,17.9 			"/>
			<path id="Fill-8" class="st0" d="M77.7,17.9v11.2h2v-4.5H81l4,4.5h2.2l-4.2-4.6c1.8-0.3,2.7-1.4,2.7-3.2c0-2.2-1.5-3.4-3.9-3.4
				H77.7z M79.6,19.5h2.2c1.3,0,2,0.7,2,1.7c0,1-0.7,1.7-2,1.7h-2.2V19.5z"/>
			<path id="Fill-9" class="st0" d="M26.8,3.5c0,1.9,1.2,2.7,2.7,3.3l1.7,0.6c1,0.4,1.6,0.8,1.6,1.7c0,1-0.9,1.5-2.3,1.5
				c-1.4,0-2.7-0.5-3.7-1.3v2.1c0.8,0.6,2.2,1,3.7,1c2.4,0,4.2-1.2,4.2-3.3c0-1.7-0.8-2.7-2.7-3.4L30.2,5c-1-0.3-1.5-0.7-1.5-1.5
				c0-0.9,0.9-1.4,2.1-1.4c1.4,0,2.4,0.5,3.4,1.2v-2c-0.9-0.6-2.1-0.9-3.5-0.9C28.6,0.3,26.8,1.4,26.8,3.5"/>
			<path id="Fill-10" class="st0" d="M85.3,3.5c0,1.9,1.2,2.7,2.7,3.3l1.7,0.6c1,0.4,1.6,0.8,1.6,1.7c0,1-0.9,1.5-2.3,1.5
				c-1.4,0-2.7-0.5-3.7-1.3v2.1c0.8,0.6,2.2,1,3.7,1c2.4,0,4.2-1.2,4.2-3.3c0-1.7-0.8-2.7-2.7-3.4L88.8,5c-1-0.3-1.5-0.7-1.5-1.5
				c0-0.9,0.9-1.4,2.1-1.4c1.4,0,2.4,0.5,3.4,1.2v-2c-0.9-0.6-2.1-0.9-3.5-0.9C87.1,0.3,85.3,1.4,85.3,3.5"/>
			<path id="Fill-11" class="st0" d="M73.7,3.5c0,1.9,1.2,2.7,2.7,3.3l1.7,0.6c1,0.4,1.6,0.8,1.6,1.7c0,1-0.9,1.5-2.3,1.5
				c-1.4,0-2.7-0.5-3.7-1.3v2.1c0.8,0.6,2.2,1,3.7,1c2.4,0,4.2-1.2,4.2-3.3c0-1.7-0.8-2.7-2.7-3.4L77.1,5c-1-0.3-1.5-0.7-1.5-1.5
				c0-0.9,0.9-1.4,2.1-1.4c1.4,0,2.4,0.5,3.4,1.2v-2c-0.9-0.6-2.1-0.9-3.5-0.9C75.5,0.3,73.7,1.4,73.7,3.5"/>
			<polygon id="Fill-12" class="st0" points="62.1,0.3 62.1,11.9 68.9,11.9 68.9,10.2 63.9,10.2 63.9,6.6 68.4,6.6 68.4,4.8 
				63.9,4.8 63.9,2.1 68.9,2.1 68.9,0.3 			"/>
			<path id="Fill-13" class="st0" d="M0.3,0.3v11.6h4.5c2.4,0,4-1.2,4-3.3c0-1.2-0.8-2.3-1.9-2.7c0.9-0.3,1.5-1.2,1.5-2.5
				c0-2.1-1.5-3.2-4-3.2H0.3z M2.2,2h2.1c1.3,0,2.1,0.5,2.1,1.6S5.7,5.2,4.4,5.2H2.2V2z M2.2,6.8h2.5c1.3,0,2.1,0.6,2.1,1.7
				c0,1-0.7,1.7-2.1,1.7H2.2V6.8z"/>
			<polygon id="Fill-14" class="st0" points="39.6,11.9 41.6,11.9 41.6,0.3 39.6,0.3 			"/>
			<path id="Fill-15" class="st0" d="M20,0.3V7c0,2.2-0.9,3.2-2.7,3.2s-2.7-1-2.7-3.2V0.3h-1.9v6.9c0,3.1,1.9,4.7,4.6,4.7
				c2.8,0,4.6-1.6,4.6-4.7V0.3H20z"/>
			<polygon id="Fill-16" class="st0" points="55,0.5 55,7.9 47.2,0.3 47.2,12.1 49.1,12.1 49.1,4.6 56.8,12.3 56.8,0.5 			"/>
			<polygon id="Fill-17" class="st0" points="15.6,29.3 17.4,29.3 17.4,22 25.2,29.5 25.2,18.1 23.3,18.1 23.3,25.3 15.6,17.9 			
				"/>
		</g>
	</g>
</g>
</svg>
