<svg width="296" height="180" viewBox="0 0 296 180" fill="none" xmlns="http://www.w3.org/2000/svg">
<path fill-rule="evenodd" clip-rule="evenodd" d="M182.861 61.521C177.075 61.521 172.368 66.2324 172.368 72.0237V86.367C172.368 92.1584 177.075 96.8698 182.861 96.8698C188.647 96.8698 193.354 92.1584 193.354 86.367V72.0237C193.354 66.2324 188.647 61.521 182.861 61.521ZM182.861 97.8717C176.524 97.8717 171.368 92.7109 171.368 86.368V72.0247C171.368 65.6818 176.524 60.521 182.861 60.521C189.198 60.521 194.354 65.6818 194.354 72.0247V86.368C194.354 92.7109 189.198 97.8717 182.861 97.8717Z" fill="#414042"/>
<path fill-rule="evenodd" clip-rule="evenodd" d="M175.995 109.351C175.739 109.351 175.521 109.156 175.497 108.896L174.147 93.9781C174.122 93.7029 174.325 93.4596 174.6 93.4346C174.876 93.4166 175.119 93.6118 175.143 93.888L176.494 108.806C176.518 109.08 176.316 109.324 176.04 109.349C176.025 109.35 176.01 109.351 175.995 109.351Z" fill="#414042"/>
<path fill-rule="evenodd" clip-rule="evenodd" d="M195.838 108.934C195.583 108.934 195.365 108.74 195.34 108.48L193.357 87.0687C193.332 86.7945 193.534 86.5502 193.809 86.5242C194.095 86.5052 194.327 86.7014 194.353 86.9766L196.337 108.388C196.362 108.663 196.16 108.907 195.885 108.932C195.869 108.933 195.853 108.934 195.838 108.934Z" fill="#414042"/>
<path fill-rule="evenodd" clip-rule="evenodd" d="M192.217 75.1449C192.117 75.1449 192.017 75.1149 191.929 75.0528C191.817 74.9738 189.306 73.1561 189.055 69.6458C187.681 69.817 183.948 70.2073 180.077 69.9861C174.439 69.6608 170.764 68.2115 169.155 65.6781C169.007 65.4449 169.075 65.1356 169.308 64.9875C169.543 64.8394 169.851 64.9074 169.999 65.1406C171.406 67.3557 174.911 68.6859 180.134 68.9872C184.877 69.2575 189.415 68.5878 189.461 68.5818C189.599 68.5578 189.75 68.6008 189.861 68.6979C189.971 68.792 190.035 68.9312 190.035 69.0773C190.035 72.4274 192.407 74.165 192.508 74.2371C192.732 74.3972 192.784 74.7085 192.625 74.9337C192.527 75.0718 192.373 75.1449 192.217 75.1449Z" fill="#414042"/>
<path fill-rule="evenodd" clip-rule="evenodd" d="M178.768 66.724C178.75 66.724 178.732 66.723 178.714 66.721C176.18 66.4488 172.924 65.7541 171.806 63.9925C171.658 63.7583 171.727 63.449 171.96 63.3008C172.193 63.1527 172.502 63.2218 172.65 63.454C173.346 64.551 175.595 65.3788 178.821 65.7261C179.096 65.7551 179.294 66.0024 179.265 66.2776C179.237 66.5339 179.02 66.724 178.768 66.724Z" fill="#414042"/>
<path fill-rule="evenodd" clip-rule="evenodd" d="M180.197 68.417C180.187 68.417 180.177 68.417 180.168 68.416C175.134 68.1257 171.784 66.8875 170.481 64.8356C170.332 64.6014 170.401 64.2931 170.634 64.144C170.866 63.9968 171.177 64.0649 171.324 64.2981C172.448 66.0668 175.526 67.1458 180.225 67.417C180.501 67.433 180.712 67.6693 180.696 67.9445C180.68 68.2118 180.46 68.417 180.197 68.417Z" fill="#414042"/>
<path fill-rule="evenodd" clip-rule="evenodd" d="M180.107 69.9869C180.097 69.9869 180.087 69.9869 180.078 69.9859C174.44 69.6606 170.765 68.2122 169.156 65.6779C169.007 65.4447 169.076 65.1354 169.309 64.9872C169.544 64.8391 169.852 64.9082 170 65.1404C171.407 67.3554 174.912 68.6857 180.135 68.987C180.411 69.003 180.622 69.2392 180.606 69.5145C180.59 69.7817 180.37 69.9869 180.107 69.9869Z" fill="#414042"/>
<path fill-rule="evenodd" clip-rule="evenodd" d="M188.089 80.1803C188.089 80.4563 187.865 80.6803 187.589 80.6803C187.313 80.6803 187.089 80.4563 187.089 80.1803C187.089 79.9043 187.313 79.6803 187.589 79.6803C187.865 79.6803 188.089 79.9043 188.089 80.1803Z" fill="#414042"/>
<path fill-rule="evenodd" clip-rule="evenodd" d="M175.518 80.1803C175.518 80.4563 175.294 80.6803 175.018 80.6803C174.742 80.6803 174.518 80.4563 174.518 80.1803C174.518 79.9043 174.742 79.6803 175.018 79.6803C175.294 79.6803 175.518 79.9043 175.518 80.1803Z" fill="#414042"/>
<path fill-rule="evenodd" clip-rule="evenodd" d="M189.11 78.1535C188.982 78.1535 188.854 78.1044 188.756 78.0073C188.086 77.3367 186.994 77.3367 186.323 78.0073C186.128 78.2025 185.811 78.2025 185.616 78.0073C185.421 77.8111 185.421 77.4948 185.616 77.2987C186.676 76.2377 188.403 76.2377 189.464 77.2987C189.659 77.4948 189.659 77.8111 189.464 78.0073C189.366 78.1044 189.238 78.1535 189.11 78.1535Z" fill="#414042"/>
<path fill-rule="evenodd" clip-rule="evenodd" d="M182.254 90.7276C182.189 90.7276 182.123 90.7236 182.057 90.7166C181.782 90.6886 181.583 90.4424 181.612 90.1661C181.641 89.8919 181.891 89.6977 182.162 89.7217C182.636 89.7758 183.065 89.4254 183.115 88.95C183.144 88.6737 183.385 88.4725 183.665 88.5046C183.94 88.5346 184.139 88.7808 184.109 89.0551C184.008 90.013 183.196 90.7276 182.254 90.7276Z" fill="#414042"/>
<path fill-rule="evenodd" clip-rule="evenodd" d="M173.447 75.4704C173.319 75.4704 173.191 75.4213 173.093 75.3242C172.898 75.128 172.898 74.8117 173.093 74.6156C174.154 73.5546 175.88 73.5546 176.942 74.6156C177.137 74.8117 177.137 75.128 176.942 75.3242C176.746 75.5194 176.43 75.5194 176.235 75.3242C175.564 74.6536 174.471 74.6536 173.801 75.3242C173.703 75.4213 173.575 75.4704 173.447 75.4704Z" fill="#414042"/>
<path fill-rule="evenodd" clip-rule="evenodd" d="M194.653 88.5265C194.41 88.5265 194.154 88.5055 193.885 88.4624C193.612 88.4184 193.427 88.1611 193.471 87.8879C193.515 87.6156 193.765 87.4255 194.045 87.4745C196.398 87.8469 197.058 85.9291 197.205 85.3305C197.533 83.9973 197.139 82.599 196.363 82.3407C195.293 81.9844 194.251 83.2025 194.241 83.2146C194.066 83.4267 193.751 83.4598 193.537 83.2846C193.324 83.1085 193.293 82.7922 193.468 82.58C193.528 82.5079 194.943 80.8123 196.679 81.3909C198.139 81.8773 198.587 83.8972 198.176 85.5697C197.81 87.0611 196.698 88.5265 194.653 88.5265Z" fill="#414042"/>
<path fill-rule="evenodd" clip-rule="evenodd" d="M180.825 88.1042H180.812L179.388 88.0682C179.252 88.0642 179.123 88.0051 179.031 87.904C178.939 87.8029 178.893 87.6688 178.902 87.5327L179.361 80.9316C179.381 80.6563 179.627 80.4341 179.895 80.4671C180.17 80.4871 180.378 80.7254 180.359 81.0016L179.936 87.0813L180.837 87.1033C181.113 87.1103 181.331 87.3395 181.325 87.6168C181.318 87.888 181.095 88.1042 180.825 88.1042Z" fill="#414042"/>
<path fill-rule="evenodd" clip-rule="evenodd" d="M162.679 110.21C162.445 110.21 162.236 110.044 162.189 109.807C162.136 109.535 162.311 109.272 162.582 109.219L175.545 106.644C175.815 106.588 176.078 106.767 176.132 107.038C176.186 107.31 176.01 107.572 175.739 107.626L162.777 110.2C162.744 110.207 162.711 110.21 162.679 110.21Z" fill="#414042"/>
<path fill-rule="evenodd" clip-rule="evenodd" d="M165.107 166.452C164.841 166.452 164.621 166.243 164.608 165.975L164.211 157.379L158.787 141.093C158.699 140.83 158.841 140.547 159.103 140.459C159.366 140.37 159.648 140.515 159.735 140.776L165.181 157.128C165.195 157.172 165.204 157.216 165.206 157.262L165.607 165.929C165.62 166.205 165.406 166.438 165.13 166.451C165.123 166.452 165.115 166.452 165.107 166.452Z" fill="#414042"/>
<path fill-rule="evenodd" clip-rule="evenodd" d="M212.409 173.328C212.401 173.328 212.393 173.328 212.386 173.327C212.11 173.314 211.896 173.081 211.909 172.804L212.079 169.114C212.092 168.839 212.328 168.614 212.602 168.637C212.878 168.651 213.091 168.885 213.078 169.161L212.908 172.85C212.896 173.119 212.675 173.328 212.409 173.328Z" fill="#414042"/>
<path fill-rule="evenodd" clip-rule="evenodd" d="M210.655 109.67C210.631 109.67 210.607 109.668 210.582 109.665L196.119 107.554C195.846 107.514 195.657 107.26 195.697 106.986C195.737 106.712 195.987 106.522 196.264 106.563L210.727 108.674C211 108.714 211.189 108.969 211.149 109.242C211.113 109.491 210.899 109.67 210.655 109.67Z" fill="#414042"/>
<path fill-rule="evenodd" clip-rule="evenodd" d="M150.668 159.603H114.425C114.149 159.603 113.925 159.379 113.925 159.103C113.925 158.827 114.149 158.602 114.425 158.602H150.668C151.385 158.602 152.013 158.33 152.437 157.833C152.87 157.327 153.045 156.643 152.93 155.909L144.724 103.471C144.478 101.901 143.004 100.623 141.438 100.623H60.2764C59.5604 100.623 58.9314 100.896 58.5074 101.392C58.0744 101.899 57.8994 102.581 58.0144 103.317L66.2204 155.754C66.4664 157.325 67.9404 158.602 69.5064 158.602H111.425C111.702 158.602 111.925 158.827 111.925 159.103C111.925 159.379 111.702 159.603 111.425 159.603H69.5064C67.4684 159.603 65.5514 157.946 65.2324 155.909L57.0264 103.471C56.8654 102.443 57.1214 101.473 57.7484 100.741C58.3644 100.02 59.2634 99.6216 60.2764 99.6216H141.438C143.476 99.6216 145.393 101.279 145.712 103.317L153.918 155.754C154.079 156.782 153.823 157.751 153.197 158.484C152.58 159.206 151.682 159.603 150.668 159.603Z" fill="#414042"/>
<path fill-rule="evenodd" clip-rule="evenodd" d="M148.669 159.603C148.393 159.603 148.169 159.379 148.169 159.103C148.169 158.826 148.393 158.602 148.669 158.602C149.386 158.602 150.014 158.33 150.438 157.833C150.871 157.327 151.046 156.643 150.931 155.909L146.64 128.487C146.597 128.215 146.784 127.959 147.057 127.916C147.33 127.877 147.586 128.06 147.628 128.333L151.919 155.754C152.08 156.782 151.824 157.75 151.198 158.484C150.581 159.206 149.683 159.603 148.669 159.603Z" fill="#414042"/>
<path fill-rule="evenodd" clip-rule="evenodd" d="M146.863 127.182C146.621 127.182 146.408 127.005 146.369 126.758L145.987 124.314C145.944 124.041 146.131 123.784 146.403 123.741C146.681 123.704 146.932 123.886 146.975 124.159L147.358 126.604C147.4 126.876 147.214 127.132 146.941 127.176C146.915 127.18 146.888 127.182 146.863 127.182Z" fill="#414042"/>
<path fill-rule="evenodd" clip-rule="evenodd" d="M145.971 121.483C145.729 121.483 145.516 121.307 145.477 121.059L145.409 120.624C145.367 120.351 145.553 120.094 145.825 120.051C146.096 120.009 146.354 120.196 146.397 120.469L146.466 120.905C146.508 121.178 146.322 121.434 146.049 121.477C146.023 121.481 145.997 121.483 145.971 121.483Z" fill="#414042"/>
<path fill-rule="evenodd" clip-rule="evenodd" d="M145.647 119.42C145.405 119.42 145.192 119.244 145.153 118.997L144.897 117.362C144.855 117.089 145.042 116.833 145.314 116.79C145.589 116.751 145.843 116.935 145.886 117.207L146.142 118.843C146.184 119.115 145.998 119.371 145.725 119.414C145.699 119.418 145.672 119.42 145.647 119.42Z" fill="#414042"/>
<path fill-rule="evenodd" clip-rule="evenodd" d="M145.133 116.128C144.891 116.128 144.678 115.952 144.639 115.705L144.501 114.822C144.459 114.55 144.645 114.294 144.918 114.251C145.199 114.206 145.447 114.395 145.489 114.668L145.628 115.551C145.67 115.823 145.484 116.079 145.211 116.122C145.185 116.126 145.158 116.128 145.133 116.128Z" fill="#414042"/>
<path fill-rule="evenodd" clip-rule="evenodd" d="M144.311 110.879C144.069 110.879 143.856 110.703 143.817 110.456L142.724 103.471C142.478 101.9 141.004 100.623 139.438 100.623C139.162 100.623 138.938 100.399 138.938 100.122C138.938 99.846 139.162 99.6218 139.438 99.6218C141.476 99.6218 143.394 101.279 143.712 103.316L144.806 110.302C144.848 110.574 144.662 110.83 144.389 110.873C144.363 110.877 144.336 110.879 144.311 110.879Z" fill="#414042"/>
<path fill-rule="evenodd" clip-rule="evenodd" d="M114.696 180C114.423 180 114.199 179.78 114.196 179.507L113.755 146.041C113.749 145.624 113.417 145.286 113.015 145.286H98.2417C97.7867 145.286 97.2937 145.689 97.1647 146.165L88.9107 176.693C88.6857 177.527 88.7427 178.333 89.0567 178.743C89.1887 178.915 89.3527 178.999 89.5577 178.999C89.8337 178.999 90.0577 179.223 90.0577 179.5C90.0577 179.776 89.8337 180 89.5577 180C89.0427 180 88.5827 179.77 88.2627 179.352C87.7507 178.683 87.6327 177.591 87.9457 176.432L96.1997 145.903C96.4447 144.996 97.3417 144.285 98.2417 144.285H113.015C113.961 144.285 114.741 145.067 114.755 146.028L115.196 179.493C115.199 179.77 114.979 179.996 114.703 180H114.696Z" fill="#414042"/>
<path fill-rule="evenodd" clip-rule="evenodd" d="M0.538119 179.999C0.241077 179.999 0 179.775 0 179.499C0 179.223 0.241077 178.999 0.538119 178.999H295.462C295.759 178.999 296 179.223 296 179.499C296 179.775 295.759 179.999 295.462 179.999H0.538119Z" fill="#414042"/>
<path fill-rule="evenodd" clip-rule="evenodd" d="M158.401 165.825C158.359 165.825 158.317 165.82 158.275 165.809C158.007 165.739 157.847 165.466 157.917 165.198L161.854 150.045C161.923 149.778 162.195 149.619 162.464 149.687C162.731 149.757 162.891 150.03 162.822 150.297L158.884 165.45C158.826 165.676 158.623 165.825 158.401 165.825Z" fill="#414042"/>
<path fill-rule="evenodd" clip-rule="evenodd" d="M137.715 180C137.686 180 137.656 179.997 137.626 179.992C137.354 179.943 137.173 179.684 137.222 179.41L145.411 133.785C145.46 133.515 145.72 133.337 145.992 133.382C146.264 133.431 146.444 133.69 146.396 133.963L138.207 179.589C138.163 179.83 137.952 180 137.715 180Z" fill="#414042"/>
<path fill-rule="evenodd" clip-rule="evenodd" d="M240.712 180H223.71C223.433 180 223.21 179.776 223.21 179.5C223.21 179.223 223.433 178.999 223.71 178.999H240.085L228.658 128.856C228.596 128.586 228.765 128.318 229.034 128.257C229.305 128.19 229.571 128.363 229.632 128.633L241.199 179.388C241.233 179.537 241.198 179.692 241.103 179.812C241.008 179.931 240.864 180 240.712 180Z" fill="#414042"/>
<path fill-rule="evenodd" clip-rule="evenodd" d="M195.573 180C195.297 180 195.073 179.776 195.073 179.5V169.256L149.419 164.988C149.144 164.962 148.942 164.718 148.967 164.443C148.993 164.168 149.243 163.979 149.511 163.991L195.619 168.301C195.877 168.326 196.073 168.542 196.073 168.801V179.5C196.073 179.776 195.849 180 195.573 180Z" fill="#414042"/>
<path fill-rule="evenodd" clip-rule="evenodd" d="M223.71 180C223.588 180 223.466 179.956 223.37 179.866L188.953 147.827C188.769 147.657 188.741 147.375 188.887 147.17L195.167 138.377C195.316 138.168 195.601 138.107 195.823 138.234L237.076 162.013C237.315 162.151 237.398 162.458 237.259 162.698C237.122 162.936 236.817 163.018 236.577 162.881L195.717 139.328L189.956 147.395L224.05 179.133C224.252 179.321 224.264 179.639 224.076 179.841C223.978 179.946 223.844 180 223.71 180Z" fill="#414042"/>
<path fill-rule="evenodd" clip-rule="evenodd" d="M189.293 147.961C189.234 147.961 189.174 147.95 189.116 147.929L178.587 143.95L171.731 145.711C171.549 145.76 171.359 145.7 171.235 145.562L168.162 142.155C168.072 142.057 168.026 141.925 168.034 141.792C168.041 141.658 168.102 141.533 168.202 141.444L173.562 136.722C173.614 136.677 173.675 136.642 173.741 136.621L182.212 133.927C182.312 133.896 182.418 133.896 182.517 133.928L195.727 138.192C195.99 138.276 196.134 138.559 196.049 138.822C195.964 139.085 195.682 139.23 195.42 139.144L182.362 134.93L174.144 137.543L169.243 141.861L171.774 144.666L178.492 142.941C178.592 142.915 178.696 142.921 178.793 142.958L189.47 146.993C189.728 147.091 189.858 147.379 189.761 147.638C189.685 147.838 189.495 147.961 189.293 147.961Z" fill="#414042"/>
<path fill-rule="evenodd" clip-rule="evenodd" d="M169.567 143.396C169.406 143.396 169.248 143.319 169.151 143.174C168.998 142.944 169.059 142.633 169.288 142.48L175.31 138.436C175.349 138.41 175.392 138.389 175.437 138.374L179.293 137.149C179.557 137.067 179.837 137.211 179.921 137.474C180.004 137.739 179.859 138.019 179.595 138.103L175.808 139.307L169.845 143.311C169.759 143.369 169.663 143.396 169.567 143.396Z" fill="#414042"/>
<path fill-rule="evenodd" clip-rule="evenodd" d="M170.84 144.712C170.668 144.712 170.501 144.623 170.408 144.465C170.269 144.227 170.349 143.92 170.587 143.78L176.173 140.506C176.205 140.487 176.239 140.473 176.274 140.461L179.292 139.502C179.556 139.419 179.836 139.564 179.92 139.827C180.004 140.09 179.858 140.371 179.595 140.455L176.63 141.398L171.092 144.644C171.013 144.69 170.926 144.712 170.84 144.712Z" fill="#414042"/>
<path fill-rule="evenodd" clip-rule="evenodd" d="M218.737 180C218.572 180 218.411 179.919 218.315 179.77L215.703 175.679L208.557 170.806L195.515 169.298C195.241 169.265 195.045 169.017 195.076 168.743C195.108 168.468 195.359 168.273 195.631 168.302L208.794 169.827C208.874 169.837 208.951 169.865 209.018 169.911L216.351 174.909C216.407 174.947 216.454 174.996 216.491 175.053L219.158 179.229C219.306 179.464 219.238 179.772 219.006 179.921C218.923 179.975 218.829 180 218.737 180Z" fill="#414042"/>
<path fill-rule="evenodd" clip-rule="evenodd" d="M216.236 180C216.096 180 215.957 179.941 215.859 179.828L213.833 177.492L209.123 175.021C208.879 174.892 208.784 174.591 208.912 174.346C209.04 174.101 209.343 174.008 209.587 174.135L214.381 176.648C214.436 176.678 214.486 176.717 214.526 176.764L216.613 179.171C216.795 179.38 216.772 179.696 216.564 179.878C216.469 179.96 216.352 180 216.236 180Z" fill="#414042"/>
<path fill-rule="evenodd" clip-rule="evenodd" d="M175.995 136.931C175.909 136.931 175.821 136.909 175.741 136.862C175.503 136.721 175.425 136.413 175.565 136.175L182.768 123.981C182.835 123.868 182.945 123.785 183.074 123.752C183.202 123.717 183.338 123.738 183.453 123.806L185.004 124.724C185.242 124.865 185.32 125.172 185.18 125.41L179.003 135.866C178.863 136.103 178.556 136.182 178.319 136.041C178.081 135.901 178.002 135.594 178.143 135.355L184.065 125.331L183.374 124.922L176.426 136.686C176.332 136.843 176.166 136.931 175.995 136.931Z" fill="#414042"/>
<path fill-rule="evenodd" clip-rule="evenodd" d="M168.427 151.516C168.34 151.516 168.252 151.494 168.173 151.447C167.978 151.33 167.885 151.098 167.946 150.88L168.89 147.509C168.902 147.467 168.919 147.427 168.941 147.389L170.689 144.43C170.829 144.194 171.137 144.116 171.373 144.254C171.611 144.395 171.69 144.701 171.549 144.941L169.835 147.842L169.415 149.343L170.526 148.251L172.693 144.582C172.833 144.347 173.14 144.267 173.377 144.406C173.615 144.547 173.694 144.854 173.553 145.093L171.353 148.817C171.331 148.854 171.304 148.888 171.273 148.918L168.778 151.371C168.681 151.467 168.555 151.516 168.427 151.516Z" fill="#414042"/>
<path fill-rule="evenodd" clip-rule="evenodd" d="M182.628 129.245C182.542 129.245 182.454 129.223 182.374 129.176L180.823 128.258C180.585 128.117 180.506 127.81 180.647 127.571C180.788 127.335 181.095 127.257 181.332 127.395L182.883 128.313C183.121 128.454 183.199 128.762 183.059 129C182.965 129.157 182.799 129.245 182.628 129.245Z" fill="#414042"/>
<path fill-rule="evenodd" clip-rule="evenodd" d="M170.922 149.062C170.836 149.062 170.748 149.04 170.668 148.993L169.117 148.075C168.879 147.934 168.8 147.627 168.941 147.389C169.082 147.152 169.389 147.074 169.626 147.212L171.177 148.13C171.415 148.271 171.493 148.579 171.353 148.817C171.259 148.974 171.093 149.062 170.922 149.062Z" fill="#414042"/>
<path fill-rule="evenodd" clip-rule="evenodd" d="M182.351 101.171C177.84 101.171 175.6 100.717 175.447 100.685C175.177 100.628 175.004 100.361 175.06 100.092C175.118 99.8208 175.382 99.6476 175.652 99.7046C175.715 99.7187 181.971 100.975 194.779 99.2522C195.05 99.2082 195.304 99.4064 195.341 99.6816C195.378 99.9549 195.186 100.207 194.912 100.243C189.617 100.957 185.449 101.171 182.351 101.171Z" fill="#414042"/>
<path fill-rule="evenodd" clip-rule="evenodd" d="M215.225 150.496C215.18 150.496 215.135 150.49 215.09 150.477C214.824 150.403 214.668 150.127 214.743 149.86L218.8 135.355C218.875 135.089 219.153 134.936 219.416 135.008C219.682 135.083 219.837 135.359 219.763 135.625L215.706 150.131C215.644 150.351 215.443 150.496 215.225 150.496Z" fill="#414042"/>
<path fill-rule="evenodd" clip-rule="evenodd" d="M148.169 122.754C148.123 122.754 148.076 122.747 148.029 122.733C147.764 122.656 147.611 122.379 147.689 122.113C149.878 114.619 154.193 110.883 162.582 109.219C162.852 109.163 163.116 109.342 163.169 109.611C163.223 109.884 163.047 110.146 162.776 110.2C154.81 111.781 150.717 115.314 148.649 122.395C148.585 122.612 148.386 122.754 148.169 122.754Z" fill="#414042"/>
<path fill-rule="evenodd" clip-rule="evenodd" d="M229.145 129.245C228.917 129.245 228.711 129.088 228.658 128.856C225.741 116.055 221.179 111.211 210.582 109.665C210.309 109.625 210.119 109.372 210.159 109.097C210.199 108.824 210.451 108.637 210.726 108.674C223.148 110.489 227.065 117.366 229.633 128.633C229.694 128.903 229.526 129.171 229.257 129.232C229.219 129.241 229.182 129.245 229.145 129.245Z" fill="#414042"/>
<path fill-rule="evenodd" clip-rule="evenodd" d="M190.845 93.9329C190.845 93.9329 184.531 102.43 175.551 103.762L174.682 94.3422C174.682 94.3422 177.214 96.1049 180.249 97.1649C185.769 99.0926 189.523 95.151 190.845 93.9329Z" fill="#414042"/>
<path fill-rule="evenodd" clip-rule="evenodd" d="M175.274 95.3189L175.999 103.18C180.493 102.361 184.298 99.706 186.874 97.4028C185.813 97.8682 184.59 98.1875 183.212 98.1875C182.181 98.1875 181.129 98.0034 180.084 97.637C178.066 96.9324 176.285 95.9365 175.274 95.3189ZM175.55 104.263C175.439 104.263 175.33 104.225 175.241 104.156C175.133 104.071 175.065 103.945 175.052 103.808L174.184 94.388C174.166 94.1948 174.262 94.0077 174.43 93.9106C174.598 93.8115 174.808 93.8205 174.967 93.9316C174.992 93.9486 177.483 95.6692 180.414 96.6932C181.352 97.0205 182.294 97.1866 183.212 97.1866C186.65 97.1866 189.09 94.8945 190.262 93.7925L190.506 93.5643C190.696 93.3891 190.987 93.3881 191.179 93.5613C191.371 93.7334 191.4 94.0247 191.246 94.2319C190.983 94.5852 184.704 102.91 175.624 104.257C175.599 104.261 175.575 104.263 175.55 104.263Z" fill="#414042"/>
<path fill-rule="evenodd" clip-rule="evenodd" d="M97.1113 145.304L82.5693 159.103L93.1533 159.084L96.4633 146.84C96.4633 146.84 96.6143 145.665 97.1113 145.304Z" fill="#414042"/>
<path fill-rule="evenodd" clip-rule="evenodd" d="M95.8515 147.189L83.8265 158.6L92.7705 158.585L95.8515 147.189ZM81.3135 159.605L96.6075 145.092C96.6725 145.018 96.7435 144.953 96.8175 144.899L97.4555 145.667L97.3365 145.78C97.1365 146.037 96.9995 146.602 96.9595 146.905L93.5365 159.584L81.3135 159.605Z" fill="#414042"/>
<path fill-rule="evenodd" clip-rule="evenodd" d="M159.26 140.934C159.26 140.934 158.77 150.753 160.607 156.826L162.337 150.172L159.26 140.934Z" fill="#414042"/>
<path fill-rule="evenodd" clip-rule="evenodd" d="M159.704 143.847C159.703 146.695 159.847 151.138 160.615 154.81L161.816 150.189L159.704 143.847ZM160.608 157.327C160.388 157.327 160.193 157.183 160.129 156.971C158.288 150.884 158.741 141.314 158.761 140.909C158.773 140.668 158.954 140.471 159.193 140.439C159.433 140.413 159.66 140.548 159.735 140.777L162.811 150.013C162.842 150.105 162.846 150.204 162.821 150.297L161.092 156.953C161.036 157.17 160.842 157.322 160.618 157.327H160.608Z" fill="#414042"/>
<path fill-rule="evenodd" clip-rule="evenodd" d="M171.935 70.8196C171.935 70.8196 184.002 72.6773 189.536 69.077C189.536 69.077 179.923 70.7816 172.664 67.9209L171.935 70.8196Z" fill="#414042"/>
<path fill-rule="evenodd" clip-rule="evenodd" d="M172.556 70.3994C173.605 70.5325 176.047 70.7977 178.836 70.7977C181.736 70.7977 184.225 70.5125 186.212 69.961C185.256 70.031 184.144 70.0821 182.934 70.0821C179.101 70.0821 175.767 69.5786 173.012 68.5857L172.556 70.3994ZM178.836 71.7987C175.053 71.7987 171.89 71.3192 171.859 71.3142C171.72 71.2932 171.596 71.2131 171.518 71.096C171.44 70.9789 171.416 70.8348 171.45 70.6976L172.179 67.798C172.214 67.6588 172.307 67.5417 172.435 67.4757C172.562 67.4096 172.713 67.4026 172.847 67.4556C175.584 68.5336 178.977 69.0811 182.934 69.0811C186.601 69.0811 189.421 68.5887 189.449 68.5847C189.679 68.5437 189.914 68.6718 190.001 68.893C190.088 69.1152 190.008 69.3674 189.808 69.4965C187.46 71.025 183.768 71.7987 178.836 71.7987Z" fill="#414042"/>
<path fill-rule="evenodd" clip-rule="evenodd" d="M217.434 142.095L219.9 152.691L215.225 149.996L217.434 142.095Z" fill="#414042"/>
<path fill-rule="evenodd" clip-rule="evenodd" d="M215.811 149.756L219.152 151.682L217.39 144.11L215.811 149.756ZM219.9 153.191C219.814 153.191 219.728 153.168 219.65 153.124L214.975 150.43C214.777 150.316 214.682 150.08 214.743 149.86L216.953 141.96C217.014 141.739 217.172 141.602 217.445 141.595C217.673 141.6 217.869 141.759 217.921 141.981L220.356 152.447C220.397 152.519 220.42 152.602 220.42 152.691C220.42 152.971 220.162 153.176 219.91 153.191H219.9Z" fill="#414042"/>
<path fill-rule="evenodd" clip-rule="evenodd" d="M121.703 92.5145C121.427 92.5145 121.203 92.2903 121.203 92.014C121.203 87.8192 117.793 84.405 113.601 84.405H72.4916C67.7486 84.405 63.8906 80.5434 63.8906 75.796C63.8906 71.0496 67.7486 67.187 72.4916 67.187H119.286C119.563 67.187 119.786 67.4112 119.786 67.6875C119.786 67.9647 119.563 68.1879 119.286 68.1879H72.4916C68.3006 68.1879 64.8906 71.6001 64.8906 75.796C64.8906 79.9909 68.3006 83.4041 72.4916 83.4041H113.601C118.345 83.4041 122.203 87.2666 122.203 92.014C122.203 92.2903 121.979 92.5145 121.703 92.5145Z" fill="#414042"/>
<path fill-rule="evenodd" clip-rule="evenodd" d="M152.267 68.1882H119.287C119.01 68.1882 118.787 67.964 118.787 67.6877C118.787 67.4115 119.01 67.1873 119.287 67.1873H152.267C156.458 67.1873 159.869 63.7741 159.869 59.5782C159.869 55.3833 156.458 51.9702 152.267 51.9702H119.287C119.01 51.9702 118.787 51.746 118.787 51.4697C118.787 51.1934 119.01 50.9692 119.287 50.9692H152.267C157.01 50.9692 160.869 54.8308 160.869 59.5782C160.869 64.3266 157.01 68.1882 152.267 68.1882Z" fill="#414042"/>
<path fill-rule="evenodd" clip-rule="evenodd" d="M124.469 51.9525H91.4877C86.7447 51.9525 82.8867 48.0909 82.8867 43.3435C82.8867 38.5961 86.7447 34.7345 91.4877 34.7345H162.911C163.188 34.7345 163.411 34.9577 163.411 35.235C163.411 35.5112 163.188 35.7354 162.911 35.7354H91.4877C87.2967 35.7354 83.8867 39.1486 83.8867 43.3435C83.8867 47.5394 87.2967 50.9515 91.4877 50.9515H124.469C124.745 50.9515 124.969 51.1757 124.969 51.452C124.969 51.7283 124.745 51.9525 124.469 51.9525Z" fill="#414042"/>
<path fill-rule="evenodd" clip-rule="evenodd" d="M195.891 35.7353H162.911C162.634 35.7353 162.411 35.5111 162.411 35.2348C162.411 34.9586 162.634 34.7344 162.911 34.7344H195.891C200.082 34.7344 203.493 31.3212 203.493 27.1253C203.493 22.9304 200.082 19.5183 195.891 19.5183H162.911C162.634 19.5183 162.411 19.2941 162.411 19.0178C162.411 18.7405 162.634 18.5173 162.911 18.5173H195.891C200.634 18.5173 204.493 22.3789 204.493 27.1253C204.493 31.8737 200.634 35.7353 195.891 35.7353Z" fill="#414042"/>
<path fill-rule="evenodd" clip-rule="evenodd" d="M185.648 19.5182H152.668C147.925 19.5182 144.066 15.6566 144.066 10.9082C144.066 10.6319 144.29 10.4077 144.566 10.4077C144.842 10.4077 145.066 10.6319 145.066 10.9082C145.066 15.1041 148.476 18.5172 152.668 18.5172H185.648C185.924 18.5172 186.148 18.7414 186.148 19.0177C186.148 19.294 185.924 19.5182 185.648 19.5182Z" fill="#414042"/>
<path fill-rule="evenodd" clip-rule="evenodd" d="M121.703 100.707C121.427 100.707 121.203 100.483 121.203 100.206V92.0136C121.203 91.7374 121.427 91.5132 121.703 91.5132C121.979 91.5132 122.203 91.7374 122.203 92.0136V100.206C122.203 100.483 121.979 100.707 121.703 100.707Z" fill="#414042"/>
<path fill-rule="evenodd" clip-rule="evenodd" d="M144.566 11.4089C144.29 11.4089 144.066 11.1847 144.066 10.9085V0.50083C144.066 0.223573 144.29 0.000366211 144.566 0.000366211C144.842 0.000366211 145.066 0.223573 145.066 0.50083V10.9085C145.066 11.1847 144.842 11.4089 144.566 11.4089Z" fill="#414042"/>
<path fill-rule="evenodd" clip-rule="evenodd" d="M104.118 86.1024H100.654L102.386 83.0996L104.118 80.0968L105.85 83.0996L107.582 86.1024H104.118Z" fill="white"/>
<path fill-rule="evenodd" clip-rule="evenodd" d="M101.521 85.6019H106.717L104.119 81.0977L101.521 85.6019ZM107.603 86.6028C107.596 86.6018 107.59 86.6018 107.583 86.6028H100.655C100.476 86.6028 100.311 86.5067 100.222 86.3526C100.132 86.1984 100.132 86.0063 100.222 85.8521L103.686 79.8465C103.775 79.6924 103.94 79.5963 104.119 79.5963C104.298 79.5963 104.463 79.6924 104.552 79.8465L107.956 85.748C108.047 85.8381 108.103 85.9632 108.103 86.1023C108.103 86.3786 107.879 86.6028 107.603 86.6028Z" fill="#414042"/>
<path fill-rule="evenodd" clip-rule="evenodd" d="M114.696 48.9673H117.583L116.139 51.4696L114.696 53.9719L113.253 51.4696L111.809 48.9673H114.696Z" fill="white"/>
<path fill-rule="evenodd" clip-rule="evenodd" d="M112.675 49.4669L114.696 52.9702L116.717 49.4669H112.675ZM114.696 54.4725C114.517 54.4725 114.352 54.3764 114.262 54.2223L111.376 49.2176C111.286 49.0635 111.286 48.8713 111.376 48.7172C111.465 48.563 111.63 48.4669 111.809 48.4669H117.583C117.761 48.4669 117.926 48.563 118.016 48.7172C118.105 48.8713 118.105 49.0635 118.016 49.2176L115.129 54.2223C115.039 54.3764 114.874 54.4725 114.696 54.4725Z" fill="#414042"/>
<path fill-rule="evenodd" clip-rule="evenodd" d="M144.567 7.04749H147.454L146.01 9.54981L144.567 12.0521L143.124 9.54981L141.68 7.04749H144.567Z" fill="white"/>
<path fill-rule="evenodd" clip-rule="evenodd" d="M142.546 7.54712L144.567 11.0504L146.587 7.54712H142.546ZM144.567 12.5527C144.388 12.5527 144.223 12.4566 144.133 12.3025L141.247 7.29782C141.157 7.14367 141.157 6.95149 141.247 6.79735C141.336 6.64321 141.501 6.54712 141.68 6.54712H147.453C147.632 6.54712 147.797 6.64321 147.886 6.79735C147.976 6.95149 147.976 7.14367 147.886 7.29782L145 12.3025C144.91 12.4566 144.745 12.5527 144.567 12.5527Z" fill="#414042"/>
<path fill-rule="evenodd" clip-rule="evenodd" d="M137.715 58.6921H128.228L132.971 50.4685L137.715 42.2449L142.458 50.4685L147.202 58.6921H137.715Z" fill="white"/>
<path fill-rule="evenodd" clip-rule="evenodd" d="M129.094 58.1917H146.335L137.715 43.2458L129.094 58.1917ZM147.221 59.1926C147.214 59.1916 147.208 59.1916 147.201 59.1926H128.228C128.049 59.1926 127.884 59.0965 127.795 58.9424C127.705 58.7882 127.705 58.596 127.795 58.4419L137.282 41.9946C137.46 41.6864 137.969 41.6864 138.148 41.9946L147.574 58.3378C147.665 58.4279 147.721 58.553 147.721 58.6921C147.721 58.9684 147.498 59.1926 147.221 59.1926Z" fill="#414042"/>
<path fill-rule="evenodd" clip-rule="evenodd" d="M88.142 67.4474C88.142 72.439 84.1 76.4848 79.113 76.4848C74.126 76.4848 70.084 72.439 70.084 67.4474C70.084 62.4568 74.126 58.411 79.113 58.411C84.1 58.411 88.142 62.4568 88.142 67.4474Z" fill="white"/>
<path fill-rule="evenodd" clip-rule="evenodd" d="M79.113 58.9102C74.41 58.9102 70.584 62.7397 70.584 67.4461C70.584 72.1534 74.41 75.984 79.113 75.984C83.816 75.984 87.642 72.1534 87.642 67.4461C87.642 62.7397 83.816 58.9102 79.113 58.9102ZM79.113 76.9859C73.859 76.9859 69.584 72.7069 69.584 67.447C69.584 62.1881 73.859 57.9102 79.113 57.9102C84.367 57.9102 88.642 62.1881 88.642 67.447C88.642 72.7069 84.367 76.9859 79.113 76.9859Z" fill="#414042"/>
<path fill-rule="evenodd" clip-rule="evenodd" d="M82.6184 64.9666H75.6064C75.3304 64.9666 75.1064 64.7426 75.1064 64.4666C75.1064 64.1906 75.3304 63.9666 75.6064 63.9666H82.6184C82.8944 63.9666 83.1184 64.1906 83.1184 64.4666C83.1184 64.7426 82.8944 64.9666 82.6184 64.9666Z" fill="#414042"/>
<path fill-rule="evenodd" clip-rule="evenodd" d="M82.6183 72.6239C82.5563 72.6239 82.4923 72.6119 82.4313 72.5879C76.5733 70.2127 76.8043 64.4984 76.8063 64.4403C76.8223 64.1651 77.0583 63.9699 77.3313 63.9679C77.6063 63.9809 77.8193 64.2171 77.8063 64.4924C77.7953 64.6976 77.6223 69.5581 82.8053 71.659C83.0623 71.7641 83.1853 72.0554 83.0813 72.3116C83.0033 72.5058 82.8153 72.6239 82.6183 72.6239Z" fill="#414042"/>
<path fill-rule="evenodd" clip-rule="evenodd" d="M75.6074 72.624C75.4104 72.624 75.2224 72.5059 75.1444 72.3117C75.0404 72.0554 75.1634 71.7642 75.4204 71.6591C80.6244 69.5491 80.4224 64.5435 80.4194 64.4934C80.4054 64.2182 80.6174 63.9819 80.8934 63.9679C81.1774 63.9279 81.4044 64.1651 81.4194 64.4404C81.4214 64.4984 81.6524 70.2127 75.7944 72.5879C75.7334 72.612 75.6694 72.624 75.6074 72.624Z" fill="#414042"/>
<path fill-rule="evenodd" clip-rule="evenodd" d="M79.1133 64.9675C78.8373 64.9675 78.6133 64.7433 78.6133 64.4671V62.7655C78.6133 62.4882 78.8373 62.265 79.1133 62.265C79.3893 62.265 79.6133 62.4882 79.6133 62.7655V64.4671C79.6133 64.7433 79.3893 64.9675 79.1133 64.9675Z" fill="#414042"/>
<mask id="mask0" mask-type="alpha" maskUnits="userSpaceOnUse" x="42" y="0" width="211" height="180">
<path fill-rule="evenodd" clip-rule="evenodd" d="M42 180H252.999V0H42V180Z" fill="white"/>
</mask>
<g mask="url(#mask0)">
<path fill-rule="evenodd" clip-rule="evenodd" d="M81.9922 86.4602H87.1062V81.3414H81.9922V86.4602Z" fill="white"/>
<path fill-rule="evenodd" clip-rule="evenodd" d="M82.4922 85.9589H86.6062V81.8411H82.4922V85.9589ZM87.1062 86.9607H81.9922C81.7152 86.9607 81.4922 86.7365 81.4922 86.4603V81.3415C81.4922 81.0643 81.7152 80.8411 81.9922 80.8411H87.1062C87.3822 80.8411 87.6062 81.0643 87.6062 81.3415V86.4603C87.6062 86.7365 87.3822 86.9607 87.1062 86.9607Z" fill="#414042"/>
<path fill-rule="evenodd" clip-rule="evenodd" d="M102.616 42.7417H117.616V27.7278H102.616V42.7417Z" fill="white"/>
<path fill-rule="evenodd" clip-rule="evenodd" d="M103.116 42.2403H117.116V28.2273H103.116V42.2403ZM117.616 43.2421H102.616C102.34 43.2421 102.116 43.0189 102.116 42.7417V27.7278C102.116 27.4515 102.34 27.2273 102.616 27.2273H117.616C117.893 27.2273 118.116 27.4515 118.116 27.7278V42.7417C118.116 43.0189 117.893 43.2421 117.616 43.2421Z" fill="#414042"/>
<path fill-rule="evenodd" clip-rule="evenodd" d="M98.9229 70.1901L96.4229 67.6877L98.9229 65.1854L101.423 67.6877L98.9229 70.1901Z" fill="white"/>
<path fill-rule="evenodd" clip-rule="evenodd" d="M97.1291 67.6879L98.9221 69.4825L100.715 67.6879L98.9221 65.8932L97.1291 67.6879ZM98.9221 70.6906C98.7941 70.6906 98.6661 70.6416 98.5681 70.5445L96.0681 68.0422C95.8731 67.846 95.8731 67.5297 96.0681 67.3335L98.5681 64.8312C98.7641 64.636 99.0801 64.636 99.2751 64.8312L101.775 67.3335C101.971 67.5297 101.971 67.846 101.775 68.0422L99.2751 70.5445C99.1781 70.6416 99.0501 70.6906 98.9221 70.6906Z" fill="#414042"/>
<path fill-rule="evenodd" clip-rule="evenodd" d="M188.089 37.7371L185.589 35.2347L188.089 32.7324L190.589 35.2347L188.089 37.7371Z" fill="white"/>
<path fill-rule="evenodd" clip-rule="evenodd" d="M186.296 35.2348L188.089 37.0295L189.882 35.2348L188.089 33.4402L186.296 35.2348ZM188.089 38.2376C187.961 38.2376 187.833 38.1886 187.735 38.0915L185.235 35.5892C185.04 35.393 185.04 35.0767 185.235 34.8805L187.735 32.3782C187.931 32.183 188.247 32.183 188.442 32.3782L190.942 34.8805C191.138 35.0767 191.138 35.393 190.942 35.5892L188.442 38.0915C188.345 38.1886 188.217 38.2376 188.089 38.2376Z" fill="#414042"/>
<path fill-rule="evenodd" clip-rule="evenodd" d="M203.993 36.6346L194.493 27.1258L203.993 17.6169L213.493 27.1258L203.993 36.6346Z" fill="white"/>
<path fill-rule="evenodd" clip-rule="evenodd" d="M195.2 27.1257L203.993 35.9269L212.786 27.1257L203.993 18.3246L195.2 27.1257ZM203.993 37.135C203.865 37.135 203.737 37.086 203.639 36.9889L194.139 27.4801C193.944 27.2839 193.944 26.9676 194.139 26.7714L203.639 17.2626C203.835 17.0674 204.151 17.0674 204.346 17.2626L213.846 26.7714C214.042 26.9676 214.042 27.2839 213.846 27.4801L204.346 36.9889C204.249 37.086 204.121 37.135 203.993 37.135Z" fill="#414042"/>
<path fill-rule="evenodd" clip-rule="evenodd" d="M135.946 69.4564H139.482V65.9171H135.946V69.4564Z" fill="white"/>
<path fill-rule="evenodd" clip-rule="evenodd" d="M136.446 68.9561H138.982V66.4177H136.446V68.9561ZM139.482 69.958H135.946C135.67 69.958 135.446 69.7337 135.446 69.4575V65.9172C135.446 65.641 135.67 65.4167 135.946 65.4167H139.482C139.758 65.4167 139.982 65.641 139.982 65.9172V69.4575C139.982 69.7337 139.758 69.958 139.482 69.958Z" fill="#414042"/>
<path fill-rule="evenodd" clip-rule="evenodd" d="M81.6191 45.1129H85.1541V41.5746H81.6191V45.1129Z" fill="white"/>
<path fill-rule="evenodd" clip-rule="evenodd" d="M82.1191 44.6115H84.6541V42.0741H82.1191V44.6115ZM85.1541 45.6133H81.6191C81.3431 45.6133 81.1191 45.3901 81.1191 45.1128V41.5746C81.1191 41.2983 81.3431 41.0741 81.6191 41.0741H85.1541C85.4311 41.0741 85.6541 41.2983 85.6541 41.5746V45.1128C85.6541 45.3901 85.4311 45.6133 85.1541 45.6133Z" fill="#414042"/>
<path fill-rule="evenodd" clip-rule="evenodd" d="M165.107 37.0043H168.643V33.4661H165.107V37.0043Z" fill="white"/>
<path fill-rule="evenodd" clip-rule="evenodd" d="M165.607 36.5029H168.143V33.9656H165.607V36.5029ZM168.643 37.5048H165.107C164.831 37.5048 164.607 37.2806 164.607 37.0043V33.466C164.607 33.1888 164.831 32.9656 165.107 32.9656H168.643C168.919 32.9656 169.143 33.1888 169.143 33.466V37.0043C169.143 37.2806 168.919 37.5048 168.643 37.5048Z" fill="#414042"/>
<path fill-rule="evenodd" clip-rule="evenodd" d="M99.9955 51.4696C99.9955 52.6717 99.0215 53.6466 97.8205 53.6466C96.6195 53.6466 95.6455 52.6717 95.6455 51.4696C95.6455 50.2675 96.6195 49.2926 97.8205 49.2926C99.0215 49.2926 99.9955 50.2675 99.9955 51.4696Z" fill="white"/>
<path fill-rule="evenodd" clip-rule="evenodd" d="M97.8195 49.7924C96.8965 49.7924 96.1445 50.5441 96.1445 51.4689C96.1445 52.3938 96.8965 53.1455 97.8195 53.1455C98.7435 53.1455 99.4945 52.3938 99.4945 51.4689C99.4945 50.5441 98.7435 49.7924 97.8195 49.7924ZM97.8195 54.1473C96.3445 54.1473 95.1445 52.9452 95.1445 51.4698C95.1445 49.9935 96.3445 48.7924 97.8195 48.7924C99.2945 48.7924 100.495 49.9935 100.495 51.4698C100.495 52.9452 99.2945 54.1473 97.8195 54.1473Z" fill="#414042"/>
<path fill-rule="evenodd" clip-rule="evenodd" d="M157.599 35.2348C157.599 36.4369 156.625 37.4118 155.424 37.4118C154.223 37.4118 153.249 36.4369 153.249 35.2348C153.249 34.0326 154.223 33.0577 155.424 33.0577C156.625 33.0577 157.599 34.0326 157.599 35.2348Z" fill="white"/>
<path fill-rule="evenodd" clip-rule="evenodd" d="M155.424 33.5575C154.501 33.5575 153.749 34.3092 153.749 35.2341C153.749 36.1589 154.501 36.9106 155.424 36.9106C156.348 36.9106 157.099 36.1589 157.099 35.2341C157.099 34.3092 156.348 33.5575 155.424 33.5575ZM155.424 37.9125C153.949 37.9125 152.749 36.7103 152.749 35.235C152.749 33.7586 153.949 32.5575 155.424 32.5575C156.899 32.5575 158.099 33.7586 158.099 35.235C158.099 36.7103 156.899 37.9125 155.424 37.9125Z" fill="#414042"/>
<path fill-rule="evenodd" clip-rule="evenodd" d="M123.878 93.9329C123.878 95.135 122.904 96.1099 121.703 96.1099C120.502 96.1099 119.528 95.135 119.528 93.9329C119.528 92.7308 120.502 91.7559 121.703 91.7559C122.904 91.7559 123.878 92.7308 123.878 93.9329Z" fill="white"/>
<path fill-rule="evenodd" clip-rule="evenodd" d="M121.703 92.2556C120.779 92.2556 120.028 93.0073 120.028 93.9322C120.028 94.857 120.779 95.6087 121.703 95.6087C122.626 95.6087 123.378 94.857 123.378 93.9322C123.378 93.0073 122.626 92.2556 121.703 92.2556ZM121.703 96.6106C120.228 96.6106 119.028 95.4085 119.028 93.9331C119.028 92.4567 120.228 91.2556 121.703 91.2556C123.178 91.2556 124.378 92.4567 124.378 93.9331C124.378 95.4085 123.178 96.6106 121.703 96.6106Z" fill="#414042"/>
<path fill-rule="evenodd" clip-rule="evenodd" d="M122.989 67.6878C122.989 69.6226 121.422 71.1911 119.489 71.1911C117.556 71.1911 115.989 69.6226 115.989 67.6878C115.989 65.752 117.556 64.1846 119.489 64.1846C121.422 64.1846 122.989 65.752 122.989 67.6878Z" fill="white"/>
<path fill-rule="evenodd" clip-rule="evenodd" d="M119.489 64.6841C117.835 64.6841 116.489 66.0313 116.489 67.6869C116.489 69.3424 117.835 70.6897 119.489 70.6897C121.143 70.6897 122.489 69.3424 122.489 67.6869C122.489 66.0313 121.143 64.6841 119.489 64.6841ZM119.489 71.6915C117.283 71.6915 115.489 69.8958 115.489 67.6878C115.489 65.4797 117.283 63.6841 119.489 63.6841C121.695 63.6841 123.489 65.4797 123.489 67.6878C123.489 69.8958 121.695 71.6915 119.489 71.6915Z" fill="#414042"/>
<path fill-rule="evenodd" clip-rule="evenodd" d="M182.268 19.0177C182.268 20.9524 180.701 22.5209 178.768 22.5209C176.835 22.5209 175.268 20.9524 175.268 19.0177C175.268 17.0819 176.835 15.5144 178.768 15.5144C180.701 15.5144 182.268 17.0819 182.268 19.0177Z" fill="white"/>
<path fill-rule="evenodd" clip-rule="evenodd" d="M178.768 16.0139C177.114 16.0139 175.768 17.3612 175.768 19.0167C175.768 20.6722 177.114 22.0195 178.768 22.0195C180.422 22.0195 181.768 20.6722 181.768 19.0167C181.768 17.3612 180.422 16.0139 178.768 16.0139ZM178.768 23.0213C176.562 23.0213 174.768 21.2257 174.768 19.0176C174.768 16.8096 176.562 15.0139 178.768 15.0139C180.974 15.0139 182.768 16.8096 182.768 19.0176C182.768 21.2257 180.974 23.0213 178.768 23.0213Z" fill="#414042"/>
<path fill-rule="evenodd" clip-rule="evenodd" d="M141.759 55.4557C141.586 55.4557 141.418 55.3656 141.325 55.2055L137.715 48.9487L134.103 55.2055C133.965 55.4447 133.658 55.5258 133.42 55.3887C133.181 55.2505 133.099 54.9442 133.237 54.705L137.281 47.6985C137.46 47.3892 137.969 47.3892 138.148 47.6985L142.192 54.705C142.33 54.9442 142.248 55.2505 142.009 55.3887C141.93 55.4347 141.844 55.4557 141.759 55.4557Z" fill="#414042"/>
<path fill-rule="evenodd" clip-rule="evenodd" d="M140.254 52.8479H135.176C134.9 52.8479 134.676 52.6239 134.676 52.3479C134.676 52.0719 134.9 51.8479 135.176 51.8479H140.254C140.53 51.8479 140.754 52.0719 140.754 52.3479C140.754 52.6239 140.53 52.8479 140.254 52.8479Z" fill="#414042"/>
<path fill-rule="evenodd" clip-rule="evenodd" d="M159.244 61.5288L158.119 59.579L159.244 57.6292H161.494L162.619 59.579L161.494 61.5288H159.244Z" fill="white"/>
<path fill-rule="evenodd" clip-rule="evenodd" d="M159.532 61.0274H161.205L162.041 59.578L161.205 58.1287H159.532L158.696 59.578L159.532 61.0274ZM161.493 62.0292H159.243C159.065 62.0292 158.9 61.9331 158.81 61.779L157.685 59.8292C157.596 59.674 157.596 59.4828 157.685 59.3287L158.81 57.3789C158.9 57.2238 159.065 57.1287 159.243 57.1287H161.493C161.672 57.1287 161.837 57.2238 161.927 57.3789L163.052 59.3287C163.141 59.4828 163.141 59.674 163.052 59.8292L161.927 61.779C161.837 61.9331 161.672 62.0292 161.493 62.0292Z" fill="#414042"/>
<path fill-rule="evenodd" clip-rule="evenodd" d="M159.645 20.9676L158.52 19.0178L159.645 17.067H161.895L163.02 19.0178L161.895 20.9676H159.645Z" fill="white"/>
<path fill-rule="evenodd" clip-rule="evenodd" d="M159.933 20.4662H161.606L162.442 19.0169L161.606 17.5665H159.933L159.097 19.0169L159.933 20.4662ZM161.894 21.4681H159.644C159.466 21.4681 159.301 21.372 159.211 21.2178L158.086 19.268C157.997 19.1129 157.997 18.9217 158.086 18.7676L159.211 16.8168C159.301 16.6616 159.466 16.5665 159.644 16.5665H161.894C162.073 16.5665 162.238 16.6616 162.328 16.8168L163.453 18.7676C163.542 18.9217 163.542 19.1129 163.453 19.268L162.328 21.2178C162.238 21.372 162.073 21.4681 161.894 21.4681Z" fill="#414042"/>
<path fill-rule="evenodd" clip-rule="evenodd" d="M129.062 33.9836L131.228 32.7324L133.393 33.9836V36.4859L131.228 37.7371L129.062 36.4859V33.9836Z" fill="white"/>
<path fill-rule="evenodd" clip-rule="evenodd" d="M129.562 36.1967L131.228 37.1596L132.893 36.1967V34.2729L131.228 33.3101L129.562 34.2729V36.1967ZM131.228 38.2376C131.142 38.2376 131.055 38.2156 130.978 38.1706L128.813 36.9194C128.658 36.8303 128.562 36.6652 128.562 36.486V33.9837C128.562 33.8045 128.658 33.6394 128.813 33.5503L130.978 32.2991C131.132 32.21 131.324 32.21 131.478 32.2991L133.643 33.5503C133.798 33.6394 133.893 33.8045 133.893 33.9837V36.486C133.893 36.6652 133.798 36.8303 133.643 36.9194L131.478 38.1706C131.401 38.2156 131.314 38.2376 131.228 38.2376Z" fill="#414042"/>
<path fill-rule="evenodd" clip-rule="evenodd" d="M108.155 40.2395C107.879 40.2395 107.655 40.0153 107.655 39.739V32.6975C107.655 32.4202 107.879 32.197 108.155 32.197C108.431 32.197 108.655 32.4202 108.655 32.6975V39.739C108.655 40.0153 108.431 40.2395 108.155 40.2395Z" fill="#414042"/>
<path fill-rule="evenodd" clip-rule="evenodd" d="M112.078 40.2394C111.903 40.2394 111.732 40.1463 111.641 39.9822L107.718 32.9406C107.583 32.6994 107.669 32.3951 107.911 32.26C108.152 32.1269 108.456 32.211 108.591 32.4542L112.514 39.4957C112.649 39.7369 112.562 40.0412 112.321 40.1763C112.244 40.2184 112.161 40.2394 112.078 40.2394Z" fill="#414042"/>
<path fill-rule="evenodd" clip-rule="evenodd" d="M112.078 40.2395C111.802 40.2395 111.578 40.0153 111.578 39.739V32.6975C111.578 32.4202 111.802 32.197 112.078 32.197C112.354 32.197 112.578 32.4202 112.578 32.6975V39.739C112.578 40.0153 112.354 40.2395 112.078 40.2395Z" fill="#414042"/>
<path fill-rule="evenodd" clip-rule="evenodd" d="M111.027 31.6886C110.61 31.6886 110.216 31.5425 109.889 31.4214C109.359 31.2242 109.122 31.1611 108.923 31.3223C108.708 31.4944 108.393 31.4594 108.22 31.2442C108.048 31.028 108.082 30.7127 108.298 30.5406C108.958 30.0101 109.697 30.2843 110.236 30.4835C110.836 30.7047 111.129 30.7758 111.424 30.5416C111.641 30.3684 111.956 30.4044 112.128 30.6186C112.3 30.8338 112.266 31.1481 112.05 31.3213C111.709 31.5955 111.36 31.6886 111.027 31.6886Z" fill="#414042"/>
<path fill-rule="evenodd" clip-rule="evenodd" d="M205.543 24.6226C204.977 24.6226 204.516 25.084 204.516 25.6505V28.6002C204.516 29.1668 204.977 29.6272 205.543 29.6272C206.109 29.6272 206.57 29.1668 206.57 28.6002V25.6505C206.57 25.084 206.109 24.6226 205.543 24.6226ZM205.543 30.6291C204.425 30.6291 203.516 29.7192 203.516 28.6012V25.6514C203.516 24.5324 204.425 23.6226 205.543 23.6226C206.661 23.6226 207.57 24.5324 207.57 25.6514V28.6012C207.57 29.7192 206.661 30.6291 205.543 30.6291Z" fill="#414042"/>
<path fill-rule="evenodd" clip-rule="evenodd" d="M201.884 30.6291C201.608 30.6291 201.384 30.4049 201.384 30.1286V24.123C201.384 23.8468 201.608 23.6226 201.884 23.6226C202.16 23.6226 202.384 23.8468 202.384 24.123V30.1286C202.384 30.4049 202.16 30.6291 201.884 30.6291Z" fill="#414042"/>
<path fill-rule="evenodd" clip-rule="evenodd" d="M204.016 27.6086H201.884C201.607 27.6086 201.384 27.3846 201.384 27.1086C201.384 26.8326 201.607 26.6086 201.884 26.6086H204.016C204.292 26.6086 204.516 26.8326 204.516 27.1086C204.516 27.3846 204.292 27.6086 204.016 27.6086Z" fill="#414042"/>
<path fill-rule="evenodd" clip-rule="evenodd" d="M83.1328 113.859C82.4508 113.859 81.8548 114.118 81.4518 114.588C81.0408 115.07 80.8748 115.719 80.9848 116.419L81.6188 120.46C81.8538 121.956 83.2598 123.174 84.7528 123.174C85.4338 123.174 86.0308 122.915 86.4338 122.444C86.8448 121.963 87.0098 121.313 86.9008 120.615L86.2658 116.573C86.0308 115.077 84.6258 113.859 83.1328 113.859ZM84.7528 124.176C82.7878 124.176 80.9388 122.579 80.6308 120.615L79.9968 116.574C79.8408 115.582 80.0878 114.646 80.6918 113.939C81.2878 113.243 82.1538 112.859 83.1328 112.859C85.0968 112.859 86.9458 114.456 87.2548 116.42L87.8888 120.461C88.0448 121.452 87.7978 122.388 87.1938 123.095C86.5978 123.792 85.7318 124.176 84.7528 124.176Z" fill="#414042"/>
<path fill-rule="evenodd" clip-rule="evenodd" d="M86.9424 118.157C84.7114 118.157 83.0424 117.077 82.2694 116.46C81.9334 116.916 81.3574 117.482 80.5674 117.482C80.2904 117.482 80.0674 117.259 80.0674 116.981C80.0674 116.705 80.2904 116.481 80.5674 116.481C81.1014 116.481 81.5794 115.736 81.7054 115.475C81.7754 115.329 81.9144 115.225 82.0754 115.199C82.2374 115.176 82.4004 115.226 82.5144 115.343C82.5314 115.361 84.3174 117.157 86.9424 117.157C87.2184 117.157 87.4424 117.381 87.4424 117.657C87.4424 117.933 87.2184 118.157 86.9424 118.157Z" fill="#414042"/>
<path fill-rule="evenodd" clip-rule="evenodd" d="M85.6768 119.443C85.5368 119.443 85.4068 119.393 85.3168 119.293C85.2268 119.203 85.1768 119.083 85.1768 118.943C85.1768 118.813 85.2268 118.672 85.3268 118.583C85.5068 118.413 85.8468 118.413 86.0268 118.603C86.1168 118.683 86.1768 118.813 86.1768 118.943C86.1768 119.073 86.1168 119.203 86.0268 119.302C85.9368 119.393 85.8068 119.443 85.6768 119.443Z" fill="#414042"/>
<path fill-rule="evenodd" clip-rule="evenodd" d="M82.3467 119.443C82.2167 119.443 82.0867 119.393 81.9867 119.293C81.8967 119.203 81.8467 119.083 81.8467 118.943C81.8467 118.813 81.9067 118.672 81.9967 118.583C82.1767 118.413 82.5167 118.403 82.6967 118.592C82.7967 118.683 82.8467 118.813 82.8467 118.943C82.8467 119.073 82.7967 119.203 82.6967 119.302C82.6067 119.393 82.4767 119.443 82.3467 119.443Z" fill="#414042"/>
<path fill-rule="evenodd" clip-rule="evenodd" d="M84.5155 122.663C83.9835 122.663 83.4435 122.456 83.0125 122.083C82.8035 121.903 82.7795 121.587 82.9605 121.377C83.1415 121.168 83.4575 121.145 83.6655 121.326C83.9395 121.562 84.2715 121.675 84.5975 121.659C84.7605 121.645 84.9925 121.588 85.1645 121.382C85.3425 121.171 85.6585 121.143 85.8695 121.322C86.0805 121.5 86.1075 121.816 85.9295 122.027C85.6205 122.393 85.1755 122.617 84.6755 122.657C84.6225 122.661 84.5695 122.663 84.5155 122.663Z" fill="#414042"/>
<path fill-rule="evenodd" clip-rule="evenodd" d="M83.0092 127.599C82.7462 127.599 82.5262 127.394 82.5102 127.126L82.2782 123.075C82.2622 122.799 82.4732 122.563 82.7482 122.547C83.0212 122.505 83.2602 122.741 83.2762 123.019L83.5092 127.07C83.5252 127.346 83.3142 127.582 83.0382 127.598C83.0292 127.599 83.0192 127.599 83.0092 127.599Z" fill="#414042"/>
<path fill-rule="evenodd" clip-rule="evenodd" d="M87.5692 127.599C87.3462 127.599 87.1432 127.45 87.0852 127.223L86.0462 123.171C85.9772 122.904 86.1382 122.63 86.4052 122.562C86.6732 122.495 86.9452 122.654 87.0142 122.923L88.0542 126.974C88.1222 127.243 87.9612 127.515 87.6942 127.583C87.6522 127.594 87.6112 127.599 87.5692 127.599Z" fill="#414042"/>
<path fill-rule="evenodd" clip-rule="evenodd" d="M97.2712 143.35H78.2532C78.1142 143.35 77.9812 143.292 77.8862 143.19C77.7922 143.088 77.7442 142.95 77.7542 142.811L78.7342 129.917C78.7552 129.641 78.9862 129.442 79.2712 129.456C79.5462 129.478 79.7522 129.718 79.7312 129.993L78.7922 142.349H96.5402L91.7362 130.022C91.6362 129.765 91.7632 129.475 92.0212 129.374C92.2762 129.274 92.5672 129.401 92.6682 129.658L97.7372 142.667C97.7972 142.822 97.7772 142.995 97.6842 143.132C97.5912 143.268 97.4362 143.35 97.2712 143.35Z" fill="#414042"/>
<path fill-rule="evenodd" clip-rule="evenodd" d="M79.2316 130.473H79.2206C78.9446 130.467 78.7256 130.239 78.7316 129.962C78.7736 128.012 80.2396 126.598 82.2166 126.598H83.0096C83.1846 126.598 83.3476 126.691 83.4386 126.84C83.4466 126.854 84.2436 128.148 85.5336 128.148C86.7416 128.148 87.0856 126.975 87.0886 126.962C87.1486 126.747 87.3456 126.598 87.5696 126.598H88.3626C90.2536 126.598 92.0856 127.941 92.7176 129.791C92.8066 130.053 92.6676 130.337 92.4056 130.426C92.1466 130.516 91.8606 130.376 91.7716 130.116C91.2726 128.658 89.8396 127.599 88.3626 127.599H87.9126C87.5926 128.273 86.8426 129.149 85.5336 129.149C84.0726 129.149 83.1136 128.091 82.7476 127.599H82.2166C80.8066 127.599 79.7616 128.602 79.7316 129.984C79.7256 130.256 79.5026 130.473 79.2316 130.473Z" fill="#414042"/>
<path fill-rule="evenodd" clip-rule="evenodd" d="M69.8493 107.794C69.2183 107.794 68.6663 108.034 68.2943 108.47C67.9133 108.915 67.7603 109.517 67.8613 110.165L72.5173 139.824C72.7363 141.216 74.0423 142.347 75.4313 142.347H100.093C100.724 142.347 101.277 142.108 101.649 141.673C102.03 141.227 102.183 140.626 102.081 139.979L97.4253 110.319C97.2063 108.927 95.8993 107.794 94.5123 107.794H69.8493ZM100.093 143.349H75.4313C73.5713 143.349 71.8213 141.838 71.5293 139.979L66.8733 110.32C66.7253 109.38 66.9603 108.491 67.5343 107.819C68.0993 107.159 68.9213 106.794 69.8493 106.794H94.5123C96.3713 106.794 98.1213 108.307 98.4133 110.165L103.069 139.825C103.217 140.765 102.983 141.653 102.41 142.323C101.844 142.985 101.022 143.349 100.093 143.349Z" fill="#414042"/>
<path fill-rule="evenodd" clip-rule="evenodd" d="M81.9833 143.35C81.7203 143.35 81.4993 143.144 81.4843 142.877L81.0183 134.632C81.0033 134.356 81.2133 134.119 81.4893 134.104C81.7653 134.062 82.0013 134.299 82.0163 134.575L82.4833 142.821C82.4983 143.097 82.2883 143.333 82.0123 143.349C82.0023 143.35 81.9933 143.35 81.9833 143.35Z" fill="#414042"/>
<path fill-rule="evenodd" clip-rule="evenodd" d="M93.5907 143.35C93.3677 143.35 93.1647 143.201 93.1067 142.974L90.9847 134.729C90.9157 134.461 91.0767 134.188 91.3437 134.118C91.6097 134.051 91.8837 134.21 91.9527 134.479L94.0757 142.724C94.1447 142.992 93.9837 143.265 93.7157 143.334C93.6737 143.345 93.6327 143.35 93.5907 143.35Z" fill="#414042"/>
<path fill-rule="evenodd" clip-rule="evenodd" d="M106.473 110.878C105.926 110.878 105.447 111.084 105.124 111.46C104.801 111.836 104.667 112.345 104.75 112.892L105.341 116.818L107.958 115.133C108.039 115.081 108.133 115.054 108.228 115.054H129.941C130.489 115.054 130.967 114.848 131.29 114.473C131.614 114.095 131.747 113.587 131.664 113.04C131.485 111.848 130.362 110.878 129.162 110.878H106.473ZM104.961 118.157C104.891 118.157 104.821 118.143 104.755 118.113C104.6 118.043 104.492 117.9 104.467 117.732L103.761 113.041C103.635 112.202 103.849 111.409 104.367 110.808C104.882 110.209 105.63 109.878 106.473 109.878H129.162C130.837 109.878 132.403 111.231 132.654 112.893C132.78 113.732 132.565 114.526 132.048 115.126C131.533 115.726 130.785 116.056 129.941 116.056H108.375L105.232 118.078C105.15 118.131 105.056 118.157 104.961 118.157Z" fill="#414042"/>
<path fill-rule="evenodd" clip-rule="evenodd" d="M109.352 130.651C108.805 130.651 108.326 130.858 108.004 131.233C107.68 131.61 107.546 132.119 107.629 132.665L108.22 136.592L110.837 134.906C110.917 134.854 111.012 134.827 111.107 134.827H124.82C125.368 134.827 125.846 134.621 126.169 134.246C126.493 133.868 126.626 133.36 126.543 132.813C126.364 131.621 125.241 130.651 124.041 130.651H109.352ZM107.841 137.931C107.77 137.931 107.701 137.917 107.635 137.887C107.48 137.817 107.372 137.674 107.346 137.506L106.64 132.814C106.514 131.976 106.728 131.182 107.246 130.581C107.761 129.982 108.509 129.651 109.352 129.651H124.041C125.716 129.651 127.282 131.004 127.533 132.666C127.659 133.505 127.444 134.299 126.927 134.899C126.412 135.499 125.664 135.829 124.82 135.829H111.254L108.111 137.852C108.029 137.905 107.935 137.931 107.841 137.931Z" fill="#414042"/>
<path fill-rule="evenodd" clip-rule="evenodd" d="M117.116 120.826C116.58 120.826 116.119 121.027 115.818 121.391C115.506 121.77 115.393 122.284 115.5 122.841C115.733 124.057 116.907 125.045 118.117 125.045H135.83C135.911 125.045 135.992 125.065 136.064 125.103L139.132 126.732L138.422 123.029C138.189 121.814 137.015 120.826 135.805 120.826H117.116ZM139.82 128.167C139.74 128.167 139.659 128.147 139.585 128.108L135.705 126.047H118.117C116.423 126.047 114.842 124.722 114.518 123.03C114.354 122.176 114.542 121.367 115.047 120.756C115.542 120.156 116.277 119.826 117.116 119.826H135.805C137.499 119.826 139.079 121.15 139.404 122.842L140.311 127.572C140.347 127.761 140.271 127.954 140.116 128.069C140.029 128.134 139.925 128.167 139.82 128.167Z" fill="#414042"/>
</g>
</svg>
