<svg width="296" height="180" viewBox="0 0 296 180" fill="none" xmlns="http://www.w3.org/2000/svg">
<path fill-rule="evenodd" clip-rule="evenodd" d="M135.857 29.0198C133.152 29.0198 130.566 30.1888 128.577 32.3118C125.981 35.0818 124.649 39.0748 124.921 43.2648L126.195 59.5478C126.553 65.0488 130.858 69.3538 135.996 69.3538H136.959C142.096 69.3538 146.401 65.0488 146.758 59.5548L148.033 43.2578C148.304 39.0738 146.972 35.0818 144.377 32.3108C142.387 30.1888 139.802 29.0198 137.097 29.0198H135.857ZM136.959 70.3538H135.996C130.333 70.3538 125.59 65.6388 125.198 59.6198L123.924 43.3358C123.633 38.8648 125.063 34.5988 127.847 31.6278C130.027 29.3008 132.872 28.0198 135.857 28.0198H137.097C140.082 28.0198 142.926 29.3008 145.106 31.6268C147.89 34.5988 149.32 38.8638 149.03 43.3298L147.755 59.6258C147.364 65.6388 142.622 70.3538 136.959 70.3538Z" fill="#414042"/>
<path fill-rule="evenodd" clip-rule="evenodd" d="M124.022 61.0775C123.408 61.0775 122.726 60.8955 122.051 60.3905C120.658 59.3455 119.539 56.3605 119.702 54.1285C119.792 52.8935 120.268 52.0105 121.079 51.5695C121.623 51.2735 122.197 51.2215 122.787 51.4185C124.516 51.9975 125.741 54.6515 125.793 54.7655C125.907 55.0155 125.795 55.3115 125.544 55.4275C125.294 55.5415 124.998 55.4315 124.882 55.1795C124.582 54.5205 123.562 52.7305 122.468 52.3665C122.145 52.2585 121.857 52.2835 121.555 52.4485C120.928 52.7895 120.744 53.5895 120.699 54.2005C120.552 56.2045 121.65 58.8385 122.651 59.5895C124.093 60.6725 125.361 59.6485 125.415 59.6035C125.626 59.4285 125.941 59.4565 126.119 59.6715C126.294 59.8845 126.264 60.1985 126.051 60.3755C125.661 60.6985 124.911 61.0775 124.022 61.0775Z" fill="#414042"/>
<path fill-rule="evenodd" clip-rule="evenodd" d="M148.962 61.0774C148.068 61.0774 147.311 60.6994 146.913 60.3784C146.699 60.2034 146.666 59.8894 146.84 59.6744C147.016 59.4604 147.33 59.4274 147.544 59.6004C147.596 59.6434 148.913 60.6594 150.342 59.5894C151.343 58.8384 152.441 56.2044 152.294 54.2004C152.249 53.5894 152.065 52.7894 151.438 52.4484C151.141 52.2874 150.843 52.2604 150.522 52.3654C149.419 52.7294 148.382 54.5224 148.074 55.1824C147.959 55.4314 147.659 55.5444 147.411 55.4254C147.16 55.3084 147.052 55.0124 147.167 54.7624C147.22 54.6484 148.468 51.9924 150.207 51.4164C150.794 51.2204 151.37 51.2734 151.914 51.5694C152.725 52.0104 153.201 52.8934 153.291 54.1284C153.454 56.3604 152.335 59.3454 150.941 60.3904C150.267 60.8954 149.582 61.0774 148.962 61.0774Z" fill="#414042"/>
<path fill-rule="evenodd" clip-rule="evenodd" d="M136.066 59.6097C136.03 59.6097 135.993 59.6057 135.956 59.5967L134.585 59.2867C134.317 59.2257 134.148 58.9617 134.207 58.6927L135.99 50.4977C136.048 50.2277 136.314 50.0557 136.585 50.1157C136.854 50.1737 137.025 50.4407 136.966 50.7107L135.289 58.4217L136.176 58.6227C136.446 58.6827 136.615 58.9507 136.553 59.2197C136.502 59.4527 136.295 59.6097 136.066 59.6097Z" fill="#414042"/>
<path fill-rule="evenodd" clip-rule="evenodd" d="M130.394 51.6038C130.394 51.8798 130.17 52.1038 129.894 52.1038C129.618 52.1038 129.394 51.8798 129.394 51.6038C129.394 51.3288 129.618 51.1038 129.894 51.1038C130.17 51.1038 130.394 51.3288 130.394 51.6038Z" fill="#414042"/>
<path fill-rule="evenodd" clip-rule="evenodd" d="M143.562 51.6038C143.562 51.8798 143.338 52.1038 143.062 52.1038C142.786 52.1038 142.562 51.8798 142.562 51.6038C142.562 51.3288 142.786 51.1038 143.062 51.1038C143.338 51.1038 143.562 51.3288 143.562 51.6038Z" fill="#414042"/>
<path fill-rule="evenodd" clip-rule="evenodd" d="M137.484 62.9905C137.208 62.9905 136.984 62.7665 136.984 62.4905C136.984 62.2145 137.208 61.9905 137.484 61.9905C138.064 61.9905 138.536 61.5185 138.536 60.9385C138.536 60.6625 138.759 60.4385 139.036 60.4385C139.312 60.4385 139.536 60.6625 139.536 60.9385C139.536 62.0695 138.615 62.9905 137.484 62.9905Z" fill="#414042"/>
<path fill-rule="evenodd" clip-rule="evenodd" d="M124.423 43.7971C124.229 43.7971 124.043 43.6831 123.963 43.4921C123.855 43.2381 123.974 42.9441 124.228 42.8371C127.279 41.5421 128.921 37.9671 128.938 37.9311C129.052 37.6781 129.351 37.5701 129.599 37.6801C129.851 37.7931 129.963 38.0891 129.85 38.3411C129.777 38.5021 128.037 42.3081 124.618 43.7571C124.555 43.7841 124.488 43.7971 124.423 43.7971Z" fill="#414042"/>
<path fill-rule="evenodd" clip-rule="evenodd" d="M131.991 29.805C131.906 29.805 131.82 29.784 131.741 29.739C128.803 28.044 126.977 24.888 126.977 21.5C126.977 16.262 131.239 12 136.477 12C141.716 12 145.977 16.262 145.977 21.5C145.977 24.888 144.151 28.044 141.213 29.739C140.972 29.873 140.667 29.793 140.529 29.555C140.391 29.316 140.473 29.01 140.713 28.871C143.344 27.356 144.977 24.532 144.977 21.5C144.977 16.814 141.164 13 136.477 13C131.791 13 127.977 16.814 127.977 21.5C127.977 24.532 129.611 27.356 132.241 28.871C132.48 29.01 132.562 29.316 132.425 29.555C132.332 29.715 132.164 29.805 131.991 29.805Z" fill="#414042"/>
<path fill-rule="evenodd" clip-rule="evenodd" d="M129.686 85.6038H129.665C129.389 85.5918 129.175 85.3598 129.186 85.0828L129.886 68.0388C129.898 67.7618 130.125 67.5468 130.407 67.5588C130.683 67.5708 130.897 67.8028 130.886 68.0798L130.186 85.1248C130.174 85.3928 129.953 85.6038 129.686 85.6038Z" fill="#414042"/>
<path fill-rule="evenodd" clip-rule="evenodd" d="M143.306 86.4417C143.039 86.4417 142.818 86.2316 142.806 85.9627L142.062 68.0876C142.051 67.8126 142.265 67.5796 142.541 67.5676C142.82 67.5456 143.05 67.7706 143.062 68.0466L143.806 85.9207C143.817 86.1966 143.603 86.4297 143.327 86.4417H143.306Z" fill="#414042"/>
<path fill-rule="evenodd" clip-rule="evenodd" d="M117.805 86.3245C117.558 86.3245 117.343 86.1405 117.31 85.8885C117.275 85.6155 117.467 85.3645 117.742 85.3285L129.644 83.7705C129.913 83.7355 130.168 83.9285 130.204 84.2025C130.24 84.4755 130.047 84.7265 129.773 84.7625L117.87 86.3205C117.849 86.3235 117.826 86.3245 117.805 86.3245Z" fill="#414042"/>
<path fill-rule="evenodd" clip-rule="evenodd" d="M130.389 135.687H120.904C120.667 135.687 120.462 135.521 120.414 135.29L117.775 122.668L111.013 103.435C110.921 103.174 111.059 102.889 111.319 102.797C111.58 102.705 111.866 102.844 111.956 103.103L118.736 122.4L121.31 134.687H130.389C130.665 134.687 130.889 134.911 130.889 135.187C130.889 135.463 130.665 135.687 130.389 135.687Z" fill="#414042"/>
<path fill-rule="evenodd" clip-rule="evenodd" d="M152.055 135.687H146.266C145.99 135.687 145.766 135.463 145.766 135.187C145.766 134.911 145.99 134.687 146.266 134.687H151.655L154.888 120.184C154.948 119.916 155.215 119.747 155.485 119.804C155.754 119.865 155.924 120.131 155.865 120.401L152.543 135.295C152.492 135.525 152.289 135.687 152.055 135.687Z" fill="#414042"/>
<path fill-rule="evenodd" clip-rule="evenodd" d="M157.925 113.869C157.87 113.869 157.814 113.86 157.759 113.841C157.499 113.749 157.362 113.464 157.453 113.203L160.706 103.944C160.798 103.684 161.083 103.546 161.344 103.639C161.604 103.73 161.741 104.015 161.65 104.276L158.397 113.535C158.324 113.74 158.131 113.869 157.925 113.869Z" fill="#414042"/>
<path fill-rule="evenodd" clip-rule="evenodd" d="M156.047 86.4417C156.025 86.4417 156.003 86.4407 155.982 86.4377L143.184 84.7627C142.909 84.7267 142.717 84.4757 142.752 84.2027C142.788 83.9287 143.042 83.7367 143.313 83.7707L156.11 85.4457C156.385 85.4817 156.577 85.7327 156.542 86.0057C156.509 86.2577 156.294 86.4417 156.047 86.4417Z" fill="#414042"/>
<path fill-rule="evenodd" clip-rule="evenodd" d="M134.694 161.437C134.601 161.437 134.507 161.412 134.424 161.358L103.945 141.837C103.713 141.689 103.644 141.379 103.794 141.147C103.944 140.913 104.255 140.847 104.484 140.996L134.964 160.516C135.196 160.665 135.264 160.974 135.115 161.207C135.019 161.356 134.858 161.437 134.694 161.437Z" fill="#414042"/>
<path fill-rule="evenodd" clip-rule="evenodd" d="M131.394 167.538C131.324 167.538 131.252 167.523 131.185 167.492L99.8767 153.104C99.6257 152.989 99.5167 152.692 99.6317 152.441C99.7477 152.19 100.047 152.081 100.295 152.196L131.603 166.584C131.854 166.699 131.963 166.996 131.848 167.247C131.764 167.43 131.583 167.538 131.394 167.538Z" fill="#414042"/>
<path fill-rule="evenodd" clip-rule="evenodd" d="M94.9289 139.444C94.8939 139.444 94.8589 139.44 94.8239 139.433C94.5539 139.376 94.3809 139.11 94.4389 138.84L103.237 97.5067C103.294 97.2377 103.565 97.0717 103.83 97.1227C104.1 97.1797 104.273 97.4457 104.215 97.7157L95.4169 139.048C95.3669 139.283 95.1589 139.444 94.9289 139.444Z" fill="#414042"/>
<path fill-rule="evenodd" clip-rule="evenodd" d="M106.533 143.272C106.495 143.272 106.457 143.268 106.418 143.258C106.149 143.195 105.983 142.925 106.047 142.657L113.626 110.632C113.689 110.364 113.954 110.194 114.227 110.261C114.496 110.325 114.662 110.594 114.598 110.863L107.019 142.887C106.965 143.117 106.76 143.272 106.533 143.272Z" fill="#414042"/>
<path fill-rule="evenodd" clip-rule="evenodd" d="M144.02 168.77C144.003 168.77 143.988 168.769 143.971 168.768L131.344 167.537C131.07 167.509 130.869 167.265 130.895 166.99C130.922 166.715 131.172 166.525 131.442 166.541L143.92 167.758L154.598 162.195L157.89 157.363L157.403 156.977L153.91 160.669C153.852 160.73 153.78 160.776 153.7 160.801L146.7 163.064C146.652 163.08 146.602 163.087 146.552 163.088L142.077 163.14H142.071C141.797 163.14 141.574 162.92 141.571 162.646C141.568 162.37 141.789 162.143 142.065 162.14L146.464 162.089L153.271 159.889L156.991 155.957C157.168 155.768 157.461 155.747 157.665 155.909L158.875 156.869C159.081 157.032 159.125 157.325 158.978 157.541L155.354 162.862C155.308 162.93 155.245 162.986 155.172 163.024L144.251 168.713C144.179 168.75 144.1 168.77 144.02 168.77Z" fill="#414042"/>
<path fill-rule="evenodd" clip-rule="evenodd" d="M140.937 163.991C140.786 163.991 140.635 163.922 140.537 163.791C140.372 163.57 140.416 163.257 140.637 163.091L146.839 158.441L146.632 157.941L143.16 159.268C143.121 159.284 143.08 159.294 143.038 159.299L137.6 159.918L133.398 162.369C133.161 162.509 132.853 162.428 132.714 162.189C132.575 161.951 132.656 161.644 132.894 161.506L137.187 159.001C137.247 158.966 137.313 158.943 137.382 158.935L142.862 158.312L146.729 156.834C146.981 156.738 147.265 156.858 147.37 157.109L147.912 158.417C147.999 158.628 147.932 158.871 147.749 159.009L141.237 163.891C141.147 163.959 141.041 163.991 140.937 163.991Z" fill="#414042"/>
<path fill-rule="evenodd" clip-rule="evenodd" d="M141.913 164.204C141.888 164.204 141.863 164.202 141.838 164.198C141.565 164.158 141.377 163.903 141.418 163.63L141.577 162.566C141.618 162.292 141.874 162.103 142.145 162.146C142.418 162.187 142.606 162.441 142.565 162.715L142.406 163.778C142.369 164.026 142.156 164.204 141.913 164.204Z" fill="#414042"/>
<path fill-rule="evenodd" clip-rule="evenodd" d="M165.159 120.792C164.968 120.792 164.785 120.682 164.702 120.494L159.311 108.327C159.199 108.075 159.313 107.779 159.566 107.668C159.815 107.558 160.113 107.668 160.225 107.923L165.616 120.09C165.728 120.342 165.614 120.638 165.361 120.749C165.296 120.778 165.227 120.792 165.159 120.792Z" fill="#414042"/>
<path fill-rule="evenodd" clip-rule="evenodd" d="M183.923 140.207C183.712 140.207 183.516 140.072 183.447 139.86L169.92 97.8974C169.835 97.6354 169.98 97.3534 170.242 97.2694C170.505 97.1834 170.786 97.3284 170.871 97.5914L184.399 139.554C184.484 139.816 184.339 140.099 184.076 140.183C184.026 140.199 183.974 140.207 183.923 140.207Z" fill="#414042"/>
<path fill-rule="evenodd" clip-rule="evenodd" d="M172.766 146.391C172.607 146.391 172.45 146.315 172.352 146.172L151.534 115.528C148.988 118.181 142.95 117.222 140.984 116.823V118.354C140.984 118.578 140.835 118.775 140.62 118.835L135.448 120.291C135.229 120.353 134.996 120.259 134.881 120.064L131.962 115.108C131.882 114.972 131.87 114.807 131.931 114.662L134.077 109.495C134.145 109.331 134.293 109.216 134.468 109.192L151.496 106.789C151.646 106.77 151.801 106.817 151.912 106.923L178.075 131.963C178.274 132.155 178.281 132.471 178.09 132.67C177.899 132.87 177.583 132.878 177.383 132.686L151.396 107.814L134.891 110.142L132.951 114.815L135.547 119.224L139.984 117.975V116.201C139.984 116.047 140.054 115.902 140.175 115.807C140.296 115.713 140.457 115.679 140.603 115.715C140.686 115.735 148.981 117.722 151.149 114.413C151.24 114.273 151.39 114.182 151.567 114.187C151.733 114.187 151.887 114.269 151.981 114.406L173.18 145.61C173.334 145.838 173.276 146.15 173.047 146.305C172.961 146.363 172.864 146.391 172.766 146.391Z" fill="#414042"/>
<path fill-rule="evenodd" clip-rule="evenodd" d="M138.963 119.283C138.747 119.283 138.548 119.142 138.484 118.926L137.215 114.663C137.153 114.455 137.233 114.231 137.411 114.108L140.201 112.192C140.431 112.036 140.74 112.095 140.897 112.321C141.053 112.549 140.995 112.86 140.768 113.016L138.277 114.726L139.442 118.64C139.521 118.905 139.37 119.183 139.106 119.262C139.058 119.276 139.01 119.283 138.963 119.283Z" fill="#414042"/>
<path fill-rule="evenodd" clip-rule="evenodd" d="M137.14 119.766C136.953 119.766 136.773 119.66 136.687 119.478L134.405 114.613C134.333 114.461 134.343 114.284 134.431 114.14L136.394 110.926C136.538 110.691 136.847 110.617 137.081 110.76C137.317 110.904 137.391 111.212 137.247 111.448L135.424 114.432L137.593 119.054C137.71 119.304 137.602 119.601 137.352 119.719C137.284 119.751 137.211 119.766 137.14 119.766Z" fill="#414042"/>
<path fill-rule="evenodd" clip-rule="evenodd" d="M103.727 98.1116C103.692 98.1116 103.657 98.1076 103.622 98.1006C103.352 98.0436 103.179 97.7776 103.237 97.5076C104.92 89.6006 108.581 86.5276 117.742 85.3286C118.011 85.2856 118.266 85.4856 118.302 85.7596C118.337 86.0336 118.145 86.2846 117.871 86.3206C109.126 87.4646 105.808 90.2336 104.215 97.7156C104.165 97.9506 103.957 98.1116 103.727 98.1116Z" fill="#414042"/>
<path fill-rule="evenodd" clip-rule="evenodd" d="M170.395 98.2444C170.184 98.2444 169.988 98.1094 169.919 97.8974C167.401 90.0874 165.267 87.6354 155.981 86.4374C155.707 86.4024 155.514 86.1514 155.549 85.8774C155.585 85.6034 155.829 85.4084 156.11 85.4454C165.791 86.6944 168.287 89.5734 170.871 97.5914C170.956 97.8534 170.811 98.1364 170.548 98.2204C170.498 98.2364 170.446 98.2444 170.395 98.2444Z" fill="#414042"/>
<path fill-rule="evenodd" clip-rule="evenodd" d="M180.547 150.732C177.538 150.732 174.055 148.675 172.354 146.172C172.198 145.944 172.257 145.632 172.485 145.478C172.712 145.325 173.025 145.38 173.18 145.61C175.264 148.675 179.942 150.55 182.444 149.33C184.704 148.226 185.06 144.863 183.447 139.861C183.362 139.598 183.507 139.316 183.77 139.232C184.031 139.147 184.314 139.292 184.399 139.554C186.806 147.021 184.483 149.447 182.884 150.228C182.173 150.575 181.378 150.732 180.547 150.732Z" fill="#414042"/>
<path fill-rule="evenodd" clip-rule="evenodd" d="M100.086 153.151C100.016 153.151 99.9439 153.136 99.8769 153.105C94.3929 150.586 92.8169 146.453 94.4389 138.839C94.4959 138.571 94.7609 138.402 95.0319 138.455C95.3019 138.512 95.4749 138.778 95.4169 139.048C93.8939 146.198 95.2619 149.884 100.295 152.197C100.546 152.312 100.655 152.609 100.54 152.86C100.456 153.043 100.275 153.151 100.086 153.151Z" fill="#414042"/>
<path fill-rule="evenodd" clip-rule="evenodd" d="M105.903 179.687C105.627 179.687 105.403 179.463 105.403 179.187C105.403 174.941 107.278 167.712 110.976 157.703C111.072 157.444 111.362 157.31 111.618 157.407C111.878 157.502 112.009 157.79 111.914 158.048C108.257 167.948 106.403 175.059 106.403 179.187C106.403 179.463 106.179 179.687 105.903 179.687Z" fill="#414042"/>
<path fill-rule="evenodd" clip-rule="evenodd" d="M115.177 148.847C115.114 148.847 115.049 148.835 114.987 148.809C114.732 148.704 114.61 148.412 114.715 148.157C117.758 140.76 120.424 135.033 120.45 134.976C120.569 134.724 120.865 134.617 121.114 134.734C121.365 134.85 121.474 135.148 121.357 135.398C121.33 135.455 118.673 141.163 115.639 148.537C115.56 148.731 115.373 148.847 115.177 148.847Z" fill="#414042"/>
<path fill-rule="evenodd" clip-rule="evenodd" d="M136.979 99.0198C136.83 99.0198 136.687 98.9528 136.592 98.8358L125.346 85.1038C125.171 84.8908 125.203 84.5758 125.416 84.4008C125.629 84.2248 125.945 84.2558 126.12 84.4708L136.953 97.6988L146.471 84.4498C146.632 84.2238 146.944 84.1728 147.169 84.3348C147.393 84.4968 147.445 84.8088 147.284 85.0338L137.385 98.8118C137.294 98.9378 137.15 99.0148 136.995 99.0198H136.979Z" fill="#414042"/>
<path fill-rule="evenodd" clip-rule="evenodd" d="M113.718 112.911H113.697C113.312 112.894 104.195 112.432 98.9316 105.661C98.7616 105.443 98.8016 105.129 99.0196 104.96C99.2356 104.789 99.5496 104.828 99.7206 105.048C104.703 111.457 113.65 111.908 113.739 111.911C114.015 111.923 114.23 112.156 114.218 112.432C114.206 112.701 113.985 112.911 113.718 112.911Z" fill="#414042"/>
<path fill-rule="evenodd" clip-rule="evenodd" d="M161.66 112.911C161.393 112.911 161.172 112.701 161.161 112.432C161.148 112.157 161.363 111.924 161.639 111.911C161.728 111.907 170.683 111.446 175.657 105.048C175.826 104.828 176.141 104.789 176.358 104.96C176.576 105.129 176.616 105.443 176.446 105.661C171.184 112.432 162.066 112.894 161.681 112.911H161.66Z" fill="#414042"/>
<path fill-rule="evenodd" clip-rule="evenodd" d="M167.055 179.687C166.779 179.687 166.555 179.463 166.555 179.187C166.555 167.6 151.751 135.719 151.602 135.398C151.485 135.148 151.593 134.85 151.844 134.734C152.093 134.618 152.391 134.725 152.508 134.976C153.122 136.293 167.555 167.379 167.555 179.187C167.555 179.463 167.331 179.687 167.055 179.687Z" fill="#414042"/>
<path fill-rule="evenodd" clip-rule="evenodd" d="M131.099 128.896C131.691 129.262 134.115 129.834 138.261 129.834C142.407 129.834 144.83 129.262 145.422 128.896C144.83 128.529 142.407 127.957 138.261 127.957C134.115 127.957 131.691 128.529 131.099 128.896ZM138.261 130.834C136.882 130.834 130.004 130.741 130.004 128.896C130.004 127.05 136.882 126.957 138.261 126.957C139.64 126.957 146.517 127.05 146.517 128.896C146.517 130.741 139.64 130.834 138.261 130.834Z" fill="#414042"/>
<path fill-rule="evenodd" clip-rule="evenodd" d="M138.261 132.453C136.882 132.453 130.004 132.359 130.004 130.514C130.004 130.237 130.228 130.014 130.504 130.014C130.754 130.014 130.961 130.197 130.998 130.436C131.345 130.794 133.812 131.453 138.261 131.453C142.709 131.453 145.176 130.794 145.523 130.436C145.56 130.197 145.767 130.014 146.017 130.014C146.293 130.014 146.517 130.237 146.517 130.514C146.517 132.359 139.64 132.453 138.261 132.453Z" fill="#414042"/>
<path fill-rule="evenodd" clip-rule="evenodd" d="M138.261 134.073C136.882 134.073 130.004 133.979 130.004 132.134C130.004 131.857 130.228 131.634 130.504 131.634C130.754 131.634 130.961 131.817 130.998 132.056C131.345 132.414 133.812 133.073 138.261 133.073C142.709 133.073 145.176 132.414 145.523 132.056C145.56 131.817 145.767 131.634 146.017 131.634C146.293 131.634 146.517 131.857 146.517 132.134C146.517 133.979 139.64 134.073 138.261 134.073Z" fill="#414042"/>
<path fill-rule="evenodd" clip-rule="evenodd" d="M138.261 136.784C136.813 136.784 135.399 136.711 134.17 136.572C133.897 136.541 133.699 136.293 133.73 136.018C133.761 135.744 134.011 135.544 134.283 135.578C135.474 135.713 136.85 135.784 138.261 135.784C138.537 135.784 138.761 136.008 138.761 136.284C138.761 136.56 138.537 136.784 138.261 136.784Z" fill="#414042"/>
<path fill-rule="evenodd" clip-rule="evenodd" d="M140.377 136.731C140.112 136.731 139.892 136.524 139.878 136.256C139.863 135.981 140.075 135.746 140.352 135.732C140.65 135.716 140.942 135.697 141.226 135.675C141.504 135.657 141.741 135.859 141.763 136.134C141.784 136.41 141.579 136.65 141.304 136.671C141.013 136.695 140.711 136.714 140.402 136.73C140.394 136.731 140.385 136.731 140.377 136.731Z" fill="#414042"/>
<path fill-rule="evenodd" clip-rule="evenodd" d="M142.8 136.513C142.553 136.513 142.338 136.329 142.305 136.078C142.27 135.804 142.462 135.553 142.736 135.517L143.011 135.478C143.292 135.446 143.538 135.627 143.579 135.9C143.619 136.173 143.43 136.427 143.157 136.468L142.866 136.509C142.844 136.512 142.822 136.513 142.8 136.513Z" fill="#414042"/>
<path fill-rule="evenodd" clip-rule="evenodd" d="M131.313 135.883C131.037 135.883 130.813 135.659 130.813 135.383V132.853C130.813 132.576 131.037 132.353 131.313 132.353C131.589 132.353 131.813 132.576 131.813 132.853V135.383C131.813 135.659 131.589 135.883 131.313 135.883Z" fill="#414042"/>
<path fill-rule="evenodd" clip-rule="evenodd" d="M145.207 135.883C144.931 135.883 144.707 135.659 144.707 135.383V132.853C144.707 132.576 144.931 132.353 145.207 132.353C145.483 132.353 145.707 132.576 145.707 132.853V135.383C145.707 135.659 145.483 135.883 145.207 135.883Z" fill="#414042"/>
<path fill-rule="evenodd" clip-rule="evenodd" d="M125.579 155.535C125.323 155.535 125.105 155.34 125.082 155.079C125.059 154.823 125.047 154.564 125.047 154.303V142.6C125.047 138.833 127.565 135.447 131.171 134.368C131.439 134.285 131.715 134.439 131.793 134.703C131.873 134.968 131.723 135.246 131.458 135.325C128.271 136.279 126.047 139.271 126.047 142.6V154.303C126.047 154.535 126.058 154.764 126.078 154.991C126.102 155.265 125.899 155.509 125.624 155.533C125.609 155.534 125.595 155.535 125.579 155.535Z" fill="#414042"/>
<path fill-rule="evenodd" clip-rule="evenodd" d="M142.881 162.896C142.605 162.896 142.381 162.672 142.381 162.396C142.381 162.12 142.605 161.896 142.881 161.896C147.068 161.896 150.474 158.49 150.474 154.302V142.6C150.474 139.271 148.249 136.279 145.064 135.325C144.799 135.246 144.649 134.967 144.729 134.703C144.808 134.439 145.084 134.286 145.351 134.368C148.956 135.447 151.474 138.833 151.474 142.6V154.302C151.474 159.041 147.619 162.896 142.881 162.896Z" fill="#414042"/>
<path fill-rule="evenodd" clip-rule="evenodd" d="M148.673 141.225C148.462 141.225 148.267 141.091 148.197 140.88C147.829 139.755 147.098 138.752 146.139 138.058C145.915 137.896 145.864 137.583 146.027 137.36C146.189 137.133 146.505 137.089 146.725 137.247C147.855 138.066 148.715 139.246 149.149 140.57C149.235 140.832 149.091 141.115 148.828 141.201C148.777 141.217 148.725 141.225 148.673 141.225Z" fill="#414042"/>
<path fill-rule="evenodd" clip-rule="evenodd" d="M148.975 144.271C148.699 144.271 148.475 144.047 148.475 143.771V142.6C148.475 142.324 148.699 142.1 148.975 142.1C149.251 142.1 149.475 142.324 149.475 142.6V143.771C149.475 144.047 149.251 144.271 148.975 144.271Z" fill="#414042"/>
<path fill-rule="evenodd" clip-rule="evenodd" d="M148.939 160.169C148.72 160.169 148.52 160.025 148.458 159.805C148.382 159.539 148.538 159.263 148.803 159.188L152.534 158.136L155.505 155.225C155.679 155.056 155.949 155.034 156.146 155.176L157.446 156.106C157.67 156.266 157.722 156.578 157.561 156.803C157.4 157.028 157.085 157.077 156.864 156.918L155.905 156.232L153.142 158.94C153.083 158.998 153.009 159.04 152.928 159.064L149.075 160.15C149.03 160.163 148.984 160.169 148.939 160.169Z" fill="#414042"/>
<path fill-rule="evenodd" clip-rule="evenodd" d="M138.261 140.347C133.85 140.347 130.261 143.936 130.261 148.347C130.261 152.758 133.85 156.347 138.261 156.347C142.672 156.347 146.261 152.758 146.261 148.347C146.261 143.936 142.672 140.347 138.261 140.347ZM138.261 157.347C133.298 157.347 129.261 153.31 129.261 148.347C129.261 143.384 133.298 139.347 138.261 139.347C143.224 139.347 147.261 143.384 147.261 148.347C147.261 153.31 143.224 157.347 138.261 157.347Z" fill="#414042"/>
<path fill-rule="evenodd" clip-rule="evenodd" d="M138.261 126.316C135.463 126.316 133.187 124.04 133.187 121.242C133.187 120.158 133.524 119.124 134.16 118.251C134.324 118.028 134.638 117.979 134.86 118.141C135.082 118.304 135.131 118.617 134.969 118.84C134.457 119.541 134.187 120.372 134.187 121.242C134.187 123.488 136.015 125.316 138.261 125.316C140.507 125.316 142.335 123.488 142.335 121.242C142.335 119.766 141.534 118.403 140.245 117.682C140.004 117.547 139.918 117.243 140.053 117.002C140.189 116.759 140.493 116.674 140.734 116.809C142.338 117.707 143.335 119.405 143.335 121.242C143.335 124.04 141.059 126.316 138.261 126.316Z" fill="#414042"/>
<path fill-rule="evenodd" clip-rule="evenodd" d="M138.497 148.847H137.651C136.359 148.847 135.309 147.796 135.309 146.505C135.309 145.213 136.359 144.162 137.651 144.162H138.368C138.644 144.162 138.868 144.386 138.868 144.662C138.868 144.939 138.644 145.162 138.368 145.162H137.651C136.911 145.162 136.309 145.765 136.309 146.505C136.309 147.245 136.911 147.847 137.651 147.847H138.497C138.773 147.847 138.997 148.071 138.997 148.347C138.997 148.623 138.773 148.847 138.497 148.847Z" fill="#414042"/>
<path fill-rule="evenodd" clip-rule="evenodd" d="M138.931 152.532H137.389C137.113 152.532 136.889 152.308 136.889 152.032C136.889 151.756 137.113 151.532 137.389 151.532H138.931C139.671 151.532 140.273 150.929 140.273 150.189C140.273 149.449 139.671 148.846 138.931 148.846H138.547C138.271 148.846 138.047 148.623 138.047 148.346C138.047 148.07 138.271 147.846 138.547 147.846H138.931C140.222 147.846 141.273 148.897 141.273 150.189C141.273 151.481 140.222 152.532 138.931 152.532Z" fill="#414042"/>
<path fill-rule="evenodd" clip-rule="evenodd" d="M137.389 152.533C136.506 152.533 135.707 152.044 135.303 151.258C135.177 151.012 135.275 150.711 135.52 150.584C135.765 150.46 136.068 150.554 136.194 150.801C136.425 151.253 136.883 151.533 137.389 151.533C137.665 151.533 137.889 151.757 137.889 152.033C137.889 152.309 137.665 152.533 137.389 152.533Z" fill="#414042"/>
<path fill-rule="evenodd" clip-rule="evenodd" d="M140.091 146.083C139.919 146.083 139.751 145.993 139.658 145.833C139.419 145.419 138.974 145.162 138.496 145.162C138.22 145.162 137.996 144.938 137.996 144.662C137.996 144.386 138.22 144.162 138.496 144.162C139.329 144.162 140.107 144.61 140.524 145.333C140.662 145.572 140.58 145.878 140.341 146.016C140.263 146.062 140.176 146.083 140.091 146.083Z" fill="#414042"/>
<path fill-rule="evenodd" clip-rule="evenodd" d="M138.035 145.162C137.759 145.162 137.535 144.938 137.535 144.662V143.347C137.535 143.07 137.759 142.847 138.035 142.847C138.311 142.847 138.535 143.07 138.535 143.347V144.662C138.535 144.938 138.311 145.162 138.035 145.162Z" fill="#414042"/>
<path fill-rule="evenodd" clip-rule="evenodd" d="M138.035 153.847C137.759 153.847 137.535 153.623 137.535 153.347V152.033C137.535 151.756 137.759 151.533 138.035 151.533C138.311 151.533 138.535 151.756 138.535 152.033V153.347C138.535 153.623 138.311 153.847 138.035 153.847Z" fill="#414042"/>
<path fill-rule="evenodd" clip-rule="evenodd" d="M141.882 68.4963C141.882 68.4963 137.547 74.0163 130.097 75.1013L130.367 68.1443C130.367 68.1443 132.37 69.8533 136.478 69.8533C139.896 69.8533 141.882 68.4963 141.882 68.4963Z" fill="#414042"/>
<path fill-rule="evenodd" clip-rule="evenodd" d="M130.832 69.0472L130.62 74.5092C134.846 73.7382 137.997 71.5102 139.79 69.9172C138.906 70.1612 137.794 70.3542 136.478 70.3542C133.674 70.3542 131.804 69.5882 130.832 69.0472ZM130.097 75.6022C129.974 75.6022 129.854 75.5572 129.763 75.4742C129.651 75.3742 129.591 75.2312 129.597 75.0822L129.867 68.1252C129.875 67.9342 129.991 67.7642 130.167 67.6872C130.341 67.6102 130.546 67.6392 130.691 67.7652C130.709 67.7782 132.631 69.3542 136.478 69.3542C139.704 69.3542 141.581 68.0962 141.6 68.0832C141.803 67.9432 142.079 67.9742 142.247 68.1542C142.415 68.3352 142.428 68.6112 142.275 68.8052C142.093 69.0372 137.729 74.4942 130.169 75.5972C130.145 75.6002 130.121 75.6022 130.097 75.6022Z" fill="#414042"/>
<path fill-rule="evenodd" clip-rule="evenodd" d="M111.784 120.581L111.78 104.11L114.008 111.186L111.784 120.581Z" fill="#414042"/>
<path fill-rule="evenodd" clip-rule="evenodd" d="M112.281 107.367L112.283 116.303L113.489 111.206L112.281 107.367ZM111.784 121.082C111.765 121.082 111.746 121.081 111.726 121.079C111.474 121.049 111.284 120.836 111.284 120.582L111.28 104.111C111.28 103.864 111.46 103.654 111.704 103.617C111.957 103.584 112.183 103.726 112.257 103.961L114.484 111.037C114.511 111.123 114.514 111.215 114.494 111.303L112.27 120.697C112.217 120.925 112.013 121.082 111.784 121.082Z" fill="#414042"/>
<path fill-rule="evenodd" clip-rule="evenodd" d="M160.976 104.685L162.611 114.544L160.039 108.74L160.976 104.685Z" fill="#414042"/>
<path fill-rule="evenodd" clip-rule="evenodd" d="M160.564 108.69L161.474 110.743L160.895 107.255L160.564 108.69ZM162.611 115.044C162.418 115.044 162.236 114.932 162.154 114.747L159.583 108.942C159.539 108.843 159.528 108.733 159.552 108.628L160.489 104.573C160.543 104.34 160.739 104.203 160.992 104.185C161.23 104.193 161.43 104.368 161.469 104.603L163.082 114.329C163.113 114.394 163.13 114.467 163.13 114.544C163.13 114.821 162.907 115.044 162.63 115.044C162.626 115.044 162.618 115.044 162.611 115.044Z" fill="#414042"/>
<path fill-rule="evenodd" clip-rule="evenodd" d="M107.174 140.061L104.475 141.583L106.532 142.772L107.174 140.061Z" fill="#414042"/>
<path fill-rule="evenodd" clip-rule="evenodd" d="M105.484 141.588L106.201 142.002L106.424 141.058L105.484 141.588ZM106.533 143.272C106.446 143.272 106.36 143.249 106.283 143.204L104.225 142.016C104.07 141.926 103.974 141.76 103.975 141.58C103.976 141.401 104.073 141.235 104.229 141.148L106.928 139.625C107.104 139.528 107.317 139.543 107.475 139.661C107.633 139.78 107.707 139.983 107.661 140.176L107.019 142.887C106.983 143.04 106.876 143.168 106.731 143.231C106.668 143.258 106.6 143.272 106.533 143.272Z" fill="#414042"/>
<path fill-rule="evenodd" clip-rule="evenodd" d="M136.87 28.6476C137.669 27.6776 138.164 26.4486 138.164 25.0926C138.164 21.9846 135.644 19.4646 132.536 19.4646C130.322 19.4646 128.413 20.7466 127.494 22.6046C127.806 24.1386 128.124 25.5166 129.039 26.8546C129.388 27.3646 129.766 27.8476 130.147 28.3276C130.155 28.3336 130.164 28.3356 130.172 28.3396C130.802 28.7886 131.454 29.2026 132.116 29.6006C133.435 28.6676 135.233 28.4396 136.87 28.6476Z" fill="#414042"/>
<path fill-rule="evenodd" clip-rule="evenodd" d="M141.965 118.562L134.859 124.296C134.859 124.296 132.738 122.107 134.405 118.783L135.313 119.81L140.485 118.354V117.426C140.485 117.426 141.233 117.728 141.965 118.562Z" fill="#414042"/>
<path fill-rule="evenodd" clip-rule="evenodd" d="M132.178 46.1009C132.109 46.1009 132.037 46.0859 131.97 46.0559C130.757 45.4999 129.397 45.4519 128.146 45.9199C127.887 46.0149 127.599 45.8849 127.502 45.6259C127.406 45.3679 127.537 45.0799 127.796 44.9829C129.298 44.4229 130.927 44.4809 132.386 45.1459C132.637 45.2609 132.747 45.5569 132.633 45.8089C132.549 45.9929 132.367 46.1009 132.178 46.1009Z" fill="#414042"/>
<path fill-rule="evenodd" clip-rule="evenodd" d="M145.164 46.101C145.095 46.101 145.023 46.086 144.956 46.056C143.741 45.5 142.383 45.452 141.132 45.92C140.874 46.015 140.585 45.885 140.488 45.626C140.392 45.368 140.523 45.08 140.782 44.983C142.282 44.421 143.914 44.481 145.372 45.146C145.623 45.261 145.733 45.557 145.619 45.809C145.535 45.993 145.353 46.101 145.164 46.101Z" fill="#414042"/>
<path fill-rule="evenodd" clip-rule="evenodd" d="M129.893 47.6047C129.092 47.6047 128.338 47.9167 127.772 48.4827C126.603 49.6527 126.603 51.5557 127.772 52.7257C128.906 53.8597 130.883 53.8577 132.015 52.7257C133.185 51.5557 133.185 49.6527 132.015 48.4827C131.449 47.9167 130.695 47.6047 129.893 47.6047ZM129.893 54.6037C128.826 54.6037 127.821 54.1877 127.065 53.4327C125.506 51.8737 125.506 49.3347 127.065 47.7757C128.577 46.2647 131.21 46.2657 132.722 47.7757C134.282 49.3347 134.282 51.8737 132.722 53.4327C131.966 54.1877 130.961 54.6037 129.893 54.6037Z" fill="#414042"/>
<path fill-rule="evenodd" clip-rule="evenodd" d="M142.934 47.6047C142.132 47.6047 141.379 47.9167 140.813 48.4827C139.643 49.6527 139.643 51.5557 140.813 52.7257C141.946 53.8587 143.922 53.8587 145.055 52.7257C146.225 51.5557 146.225 49.6527 145.055 48.4827C144.489 47.9167 143.736 47.6047 142.934 47.6047ZM142.934 54.6037C141.866 54.6037 140.861 54.1877 140.106 53.4327C138.546 51.8737 138.546 49.3347 140.106 47.7757C140.861 47.0207 141.866 46.6047 142.934 46.6047C144.002 46.6047 145.007 47.0207 145.762 47.7757C147.322 49.3347 147.322 51.8737 145.762 53.4327C145.007 54.1877 144.002 54.6037 142.934 54.6037Z" fill="#414042"/>
<path fill-rule="evenodd" clip-rule="evenodd" d="M139.435 51.1038C139.159 51.1038 138.935 50.8798 138.935 50.6038C138.935 49.2138 137.804 48.0828 136.414 48.0828C135.024 48.0828 133.893 49.2138 133.893 50.6038C133.893 50.8798 133.669 51.1038 133.393 51.1038C133.117 51.1038 132.893 50.8798 132.893 50.6038C132.893 48.6628 134.472 47.0828 136.414 47.0828C138.355 47.0828 139.935 48.6628 139.935 50.6038C139.935 50.8798 139.711 51.1038 139.435 51.1038Z" fill="#414042"/>
<path fill-rule="evenodd" clip-rule="evenodd" d="M163.979 179.187L106.532 173.991C106.532 173.991 105.903 175.614 105.903 179.187H163.979Z" fill="#414042"/>
<path fill-rule="evenodd" clip-rule="evenodd" d="M148.397 40.3246C148.372 40.3246 148.347 40.3226 148.322 40.3186C145.697 39.9266 143.175 39.4096 140.827 38.7846C140.56 38.7136 140.401 38.4386 140.472 38.1726C140.543 37.9066 140.816 37.7446 141.085 37.8176C143.396 38.4336 145.881 38.9426 148.47 39.3306C148.743 39.3716 148.931 39.6256 148.89 39.8986C148.853 40.1466 148.64 40.3246 148.397 40.3246Z" fill="#414042"/>
<path fill-rule="evenodd" clip-rule="evenodd" d="M148.564 42.3704C148.54 42.3704 148.516 42.3684 148.492 42.3654C144.139 41.7394 140.104 40.7964 136.501 39.5624C136.24 39.4744 136.1 39.1894 136.19 38.9284C136.278 38.6674 136.563 38.5254 136.825 38.6174C140.37 39.8304 144.342 40.7584 148.634 41.3754C148.908 41.4144 149.097 41.6684 149.058 41.9414C149.022 42.1904 148.808 42.3704 148.564 42.3704Z" fill="#414042"/>
<path fill-rule="evenodd" clip-rule="evenodd" d="M148.487 44.3802C148.464 44.3802 148.44 44.3782 148.416 44.3752C137.252 42.7982 130.652 39.5472 127.712 37.7492C127.476 37.6052 127.402 37.2972 127.546 37.0622C127.691 36.8242 128 36.7522 128.233 36.8962C131.108 38.6532 137.57 41.8332 148.556 43.3852C148.83 43.4242 149.02 43.6772 148.981 43.9502C148.946 44.1992 148.732 44.3802 148.487 44.3802Z" fill="#414042"/>
<path fill-rule="evenodd" clip-rule="evenodd" d="M151.568 115.186C151.528 115.186 151.488 115.182 151.448 115.171C151.18 115.106 151.016 114.835 151.082 114.568C151.084 114.56 151.261 113.808 151.08 113.005C151.018 112.737 151.187 112.468 151.457 112.408C151.727 112.342 151.993 112.515 152.054 112.785C152.291 113.826 152.062 114.768 152.052 114.808C151.996 115.035 151.792 115.186 151.568 115.186Z" fill="#414042"/>
<path fill-rule="evenodd" clip-rule="evenodd" d="M200.069 137.958C200.542 138.421 203.54 139.229 209.08 139.229C214.62 139.229 217.618 138.421 218.09 137.958C217.618 137.495 214.62 136.687 209.08 136.687C203.539 136.687 200.542 137.495 200.069 137.958ZM209.08 140.229C208.051 140.229 199.034 140.165 199.034 137.958C199.034 135.75 208.051 135.687 209.08 135.687C210.108 135.687 219.126 135.75 219.126 137.958C219.126 140.165 210.108 140.229 209.08 140.229Z" fill="#414042"/>
<path fill-rule="evenodd" clip-rule="evenodd" d="M209.08 142.221C208.052 142.221 199.034 142.158 199.034 139.95C199.034 139.674 199.258 139.45 199.534 139.45C199.81 139.45 200.034 139.674 200.034 139.95C200.282 140.34 203.296 141.221 209.08 141.221C214.864 141.221 217.878 140.34 218.139 139.891C218.139 139.615 218.356 139.421 218.632 139.421C218.908 139.421 219.126 139.674 219.126 139.95C219.126 142.158 210.108 142.221 209.08 142.221Z" fill="#414042"/>
<path fill-rule="evenodd" clip-rule="evenodd" d="M209.08 144.213C208.052 144.213 199.034 144.15 199.034 141.942C199.034 141.665 199.258 141.442 199.534 141.442C199.81 141.442 200.034 141.665 200.034 141.942C200.282 142.332 203.295 143.213 209.08 143.213C214.865 143.213 217.878 142.332 218.138 141.883C218.138 141.607 218.355 141.412 218.632 141.412C218.908 141.412 219.126 141.665 219.126 141.942C219.126 144.15 210.108 144.213 209.08 144.213Z" fill="#414042"/>
<path fill-rule="evenodd" clip-rule="evenodd" d="M209.08 147.552C207.309 147.552 205.573 147.462 204.059 147.291C203.784 147.26 203.587 147.013 203.617 146.739C203.648 146.462 203.91 146.27 204.17 146.297C205.648 146.464 207.347 146.552 209.08 146.552C209.356 146.552 209.58 146.776 209.58 147.052C209.58 147.328 209.356 147.552 209.08 147.552Z" fill="#414042"/>
<path fill-rule="evenodd" clip-rule="evenodd" d="M211.683 147.485C211.418 147.485 211.198 147.278 211.184 147.011C211.169 146.735 211.381 146.5 211.657 146.486C212.027 146.466 212.387 146.442 212.738 146.416C212.99 146.38 213.253 146.598 213.274 146.876C213.295 147.151 213.089 147.391 212.814 147.412C212.455 147.44 212.087 147.464 211.709 147.484C211.701 147.485 211.692 147.485 211.683 147.485Z" fill="#414042"/>
<path fill-rule="evenodd" clip-rule="evenodd" d="M214.667 147.217C214.42 147.217 214.205 147.034 214.172 146.782C214.136 146.509 214.329 146.257 214.603 146.221L214.944 146.173C215.213 146.141 215.472 146.323 215.512 146.596C215.551 146.869 215.361 147.123 215.089 147.163L214.733 147.213C214.711 147.216 214.689 147.217 214.667 147.217Z" fill="#414042"/>
<path fill-rule="evenodd" clip-rule="evenodd" d="M200.53 146.443C200.254 146.443 200.03 146.219 200.03 145.943V142.828C200.03 142.551 200.254 142.328 200.53 142.328C200.806 142.328 201.03 142.551 201.03 142.828V145.943C201.03 146.219 200.806 146.443 200.53 146.443Z" fill="#414042"/>
<path fill-rule="evenodd" clip-rule="evenodd" d="M217.63 146.443C217.354 146.443 217.13 146.219 217.13 145.943V142.828C217.13 142.551 217.354 142.328 217.63 142.328C217.906 142.328 218.13 142.551 218.13 142.828V145.943C218.13 146.219 217.906 146.443 217.63 146.443Z" fill="#414042"/>
<path fill-rule="evenodd" clip-rule="evenodd" d="M193.473 170.627C193.218 170.627 193 170.433 192.976 170.173C192.948 169.86 192.934 169.545 192.934 169.226V154.824C192.934 150.238 195.999 146.116 200.388 144.802C200.658 144.721 200.932 144.873 201.01 145.137C201.09 145.401 200.94 145.68 200.675 145.759C196.706 146.948 193.934 150.676 193.934 154.824V169.226C193.934 169.514 193.946 169.8 193.972 170.081C193.997 170.356 193.795 170.6 193.52 170.625C193.504 170.626 193.489 170.627 193.473 170.627Z" fill="#414042"/>
<path fill-rule="evenodd" clip-rule="evenodd" d="M214.766 179.687C214.49 179.687 214.266 179.463 214.266 179.187C214.266 178.911 214.49 178.687 214.766 178.687C219.983 178.687 224.227 174.443 224.227 169.226V154.825C224.227 150.677 221.454 146.95 217.486 145.759C217.221 145.68 217.071 145.402 217.151 145.137C217.229 144.874 217.506 144.72 217.773 144.802C222.162 146.118 225.227 150.239 225.227 154.825V169.226C225.227 174.995 220.535 179.687 214.766 179.687Z" fill="#414042"/>
<path fill-rule="evenodd" clip-rule="evenodd" d="M203.394 179.687C197.626 179.687 192.934 174.995 192.934 169.226C192.934 168.95 193.158 168.726 193.434 168.726C193.71 168.726 193.934 168.95 193.934 169.226C193.934 174.443 198.178 178.687 203.394 178.687C203.67 178.687 203.894 178.911 203.894 179.187C203.894 179.463 203.67 179.687 203.394 179.687Z" fill="#414042"/>
<path fill-rule="evenodd" clip-rule="evenodd" d="M221.895 153.016C221.684 153.016 221.489 152.882 221.419 152.671C220.959 151.264 220.044 150.009 218.844 149.14C218.621 148.978 218.57 148.665 218.732 148.442C218.896 148.216 219.21 148.171 219.43 148.329C220.8 149.323 221.844 150.754 222.371 152.361C222.457 152.623 222.313 152.906 222.05 152.992C221.999 153.008 221.947 153.016 221.895 153.016Z" fill="#414042"/>
<path fill-rule="evenodd" clip-rule="evenodd" d="M222.266 156.765C221.99 156.765 221.766 156.541 221.766 156.265V154.825C221.766 154.548 221.99 154.325 222.266 154.325C222.542 154.325 222.766 154.548 222.766 154.825V156.265C222.766 156.541 222.542 156.765 222.266 156.765Z" fill="#414042"/>
<path fill-rule="evenodd" clip-rule="evenodd" d="M209.08 151.937C203.588 151.937 199.119 156.406 199.119 161.898C199.119 167.39 203.588 171.859 209.08 171.859C214.572 171.859 219.041 167.39 219.041 161.898C219.041 156.406 214.572 151.937 209.08 151.937ZM209.08 172.859C203.036 172.859 198.119 167.942 198.119 161.898C198.119 155.854 203.036 150.937 209.08 150.937C215.124 150.937 220.041 155.854 220.041 161.898C220.041 167.942 215.124 172.859 209.08 172.859Z" fill="#414042"/>
<path fill-rule="evenodd" clip-rule="evenodd" d="M209.08 162.398H198.619C198.343 162.398 198.119 162.174 198.119 161.898C198.119 161.622 198.343 161.398 198.619 161.398H208.58V151.437C208.58 151.161 208.804 150.937 209.08 150.937C209.356 150.937 209.58 151.161 209.58 151.437V161.898C209.58 162.174 209.356 162.398 209.08 162.398Z" fill="#414042"/>
<path fill-rule="evenodd" clip-rule="evenodd" d="M219.541 162.398H209.08C208.804 162.398 208.58 162.174 208.58 161.898C208.58 161.622 208.804 161.398 209.08 161.398H219.541C219.817 161.398 220.041 161.622 220.041 161.898C220.041 162.174 219.817 162.398 219.541 162.398Z" fill="#414042"/>
<path fill-rule="evenodd" clip-rule="evenodd" d="M218.87 158.705H209.08C208.804 158.705 208.58 158.481 208.58 158.205C208.58 157.929 208.804 157.705 209.08 157.705H218.87C219.146 157.705 219.37 157.929 219.37 158.205C219.37 158.481 219.146 158.705 218.87 158.705Z" fill="#414042"/>
<path fill-rule="evenodd" clip-rule="evenodd" d="M216.488 155.013H209.08C208.803 155.013 208.58 154.789 208.58 154.513C208.58 154.237 208.803 154.013 209.08 154.013H216.488C216.764 154.013 216.988 154.237 216.988 154.513C216.988 154.789 216.764 155.013 216.488 155.013Z" fill="#414042"/>
<path fill-rule="evenodd" clip-rule="evenodd" d="M218.807 166.09H199.302C199.026 166.09 198.802 165.866 198.802 165.59C198.802 165.314 199.026 165.09 199.302 165.09H218.807C219.083 165.09 219.307 165.314 219.307 165.59C219.307 165.866 219.083 166.09 218.807 166.09Z" fill="#414042"/>
<path fill-rule="evenodd" clip-rule="evenodd" d="M216.489 169.781H201.969C201.693 169.781 201.469 169.557 201.469 169.281C201.469 169.005 201.693 168.781 201.969 168.781H216.489C216.765 168.781 216.989 169.005 216.989 169.281C216.989 169.557 216.765 169.781 216.489 169.781Z" fill="#414042"/>
<path fill-rule="evenodd" clip-rule="evenodd" d="M206.003 159.436C206.003 159.776 206.278 160.051 206.618 160.051C206.958 160.051 207.233 159.776 207.233 159.436C207.233 159.096 206.958 158.821 206.618 158.821C206.278 158.821 206.003 159.096 206.003 159.436Z" fill="#414042"/>
<path fill-rule="evenodd" clip-rule="evenodd" d="M206.003 156.975C206.003 157.315 206.278 157.59 206.618 157.59C206.958 157.59 207.233 157.315 207.233 156.975C207.233 156.635 206.958 156.36 206.618 156.36C206.278 156.36 206.003 156.635 206.003 156.975Z" fill="#414042"/>
<path fill-rule="evenodd" clip-rule="evenodd" d="M206.003 154.513C206.003 154.853 206.278 155.128 206.618 155.128C206.958 155.128 207.233 154.853 207.233 154.513C207.233 154.173 206.958 153.898 206.618 153.898C206.278 153.898 206.003 154.173 206.003 154.513Z" fill="#414042"/>
<path fill-rule="evenodd" clip-rule="evenodd" d="M203.542 159.436C203.542 159.776 203.817 160.051 204.157 160.051C204.497 160.051 204.772 159.776 204.772 159.436C204.772 159.096 204.497 158.821 204.157 158.821C203.817 158.821 203.542 159.096 203.542 159.436Z" fill="#414042"/>
<path fill-rule="evenodd" clip-rule="evenodd" d="M203.542 156.975C203.542 157.315 203.817 157.59 204.157 157.59C204.497 157.59 204.772 157.315 204.772 156.975C204.772 156.635 204.497 156.36 204.157 156.36C203.817 156.36 203.542 156.635 203.542 156.975Z" fill="#414042"/>
<path fill-rule="evenodd" clip-rule="evenodd" d="M201.08 156.975C201.08 157.315 201.355 157.59 201.695 157.59C202.035 157.59 202.31 157.315 202.31 156.975C202.31 156.635 202.035 156.36 201.695 156.36C201.355 156.36 201.08 156.635 201.08 156.975Z" fill="#414042"/>
<path fill-rule="evenodd" clip-rule="evenodd" d="M201.08 159.436C201.08 159.776 201.355 160.051 201.695 160.051C202.035 160.051 202.31 159.776 202.31 159.436C202.31 159.096 202.035 158.821 201.695 158.821C201.355 158.821 201.08 159.096 201.08 159.436Z" fill="#414042"/>
<path fill-rule="evenodd" clip-rule="evenodd" d="M203.542 154.513C203.542 154.853 203.817 155.128 204.157 155.128C204.497 155.128 204.772 154.853 204.772 154.513C204.772 154.173 204.497 153.898 204.157 153.898C203.817 153.898 203.542 154.173 203.542 154.513Z" fill="#414042"/>
<path fill-rule="evenodd" clip-rule="evenodd" d="M64.2918 137.958C64.7648 138.421 67.7628 139.229 73.3018 139.229C78.8418 139.229 81.8398 138.421 82.3128 137.958C81.8398 137.495 78.8428 136.687 73.3018 136.687C67.7618 136.687 64.7648 137.495 64.2918 137.958ZM73.3018 140.229C72.2728 140.229 63.2568 140.165 63.2568 137.958C63.2568 135.75 72.2728 135.687 73.3018 135.687C74.3298 135.687 83.3478 135.75 83.3478 137.958C83.3478 140.165 74.3298 140.229 73.3018 140.229Z" fill="#414042"/>
<path fill-rule="evenodd" clip-rule="evenodd" d="M73.3018 142.221C72.2738 142.221 63.2568 142.158 63.2568 139.95C63.2568 139.674 63.4808 139.45 63.7568 139.45C64.0328 139.45 64.2568 139.674 64.2568 139.95C64.5048 140.34 67.5178 141.221 73.3018 141.221C79.0858 141.221 82.0998 140.34 82.3608 139.891C82.3608 139.615 82.5778 139.421 82.8538 139.421C83.1298 139.421 83.3478 139.674 83.3478 139.95C83.3478 142.158 74.3298 142.221 73.3018 142.221Z" fill="#414042"/>
<path fill-rule="evenodd" clip-rule="evenodd" d="M73.3018 144.213C72.2738 144.213 63.2568 144.15 63.2568 141.942C63.2568 141.665 63.4808 141.442 63.7568 141.442C64.0328 141.442 64.2568 141.665 64.2568 141.942C64.5048 142.332 67.5168 143.213 73.3018 143.213C79.0868 143.213 82.0998 142.332 82.3598 141.883C82.3598 141.607 82.5768 141.412 82.8538 141.412C83.1298 141.412 83.3478 141.665 83.3478 141.942C83.3478 144.15 74.3298 144.213 73.3018 144.213Z" fill="#414042"/>
<path fill-rule="evenodd" clip-rule="evenodd" d="M73.3019 147.552C71.5309 147.552 69.7949 147.462 68.2809 147.291C68.0069 147.26 67.8099 147.013 67.8399 146.739C67.8709 146.462 68.1359 146.27 68.3929 146.297C69.8699 146.464 71.5679 146.552 73.3019 146.552C73.5779 146.552 73.8019 146.776 73.8019 147.052C73.8019 147.328 73.5779 147.552 73.3019 147.552Z" fill="#414042"/>
<path fill-rule="evenodd" clip-rule="evenodd" d="M75.906 147.485C75.641 147.485 75.421 147.278 75.407 147.011C75.392 146.735 75.604 146.5 75.88 146.486C76.251 146.466 76.611 146.442 76.962 146.416C77.22 146.38 77.477 146.598 77.498 146.876C77.519 147.151 77.313 147.391 77.038 147.412C76.679 147.44 76.311 147.464 75.932 147.484C75.924 147.485 75.915 147.485 75.906 147.485Z" fill="#414042"/>
<path fill-rule="evenodd" clip-rule="evenodd" d="M78.8899 147.217C78.6429 147.217 78.4279 147.034 78.3949 146.782C78.3589 146.509 78.5519 146.257 78.8259 146.221L79.1659 146.173C79.4319 146.141 79.6929 146.322 79.7339 146.596C79.7739 146.869 79.5839 147.123 79.3109 147.163L78.9559 147.213C78.9339 147.216 78.9119 147.217 78.8899 147.217Z" fill="#414042"/>
<path fill-rule="evenodd" clip-rule="evenodd" d="M64.7529 146.443C64.4769 146.443 64.2529 146.219 64.2529 145.943V142.828C64.2529 142.551 64.4769 142.328 64.7529 142.328C65.0289 142.328 65.2529 142.551 65.2529 142.828V145.943C65.2529 146.219 65.0289 146.443 64.7529 146.443Z" fill="#414042"/>
<path fill-rule="evenodd" clip-rule="evenodd" d="M81.8516 146.443C81.5756 146.443 81.3516 146.219 81.3516 145.943V142.828C81.3516 142.551 81.5756 142.328 81.8516 142.328C82.1276 142.328 82.3516 142.551 82.3516 142.828V145.943C82.3516 146.219 82.1276 146.443 81.8516 146.443Z" fill="#414042"/>
<path fill-rule="evenodd" clip-rule="evenodd" d="M57.6943 170.627C57.4383 170.627 57.2203 170.432 57.1973 170.171C57.1703 169.859 57.1553 169.544 57.1553 169.226V154.824C57.1553 150.238 60.2203 146.117 64.6093 144.802C64.8783 144.721 65.1533 144.873 65.2313 145.137C65.3113 145.401 65.1613 145.68 64.8963 145.759C60.9273 146.949 58.1553 150.677 58.1553 154.824V169.226C58.1553 169.515 58.1683 169.801 58.1933 170.083C58.2173 170.357 58.0143 170.601 57.7393 170.625C57.7243 170.626 57.7103 170.627 57.6943 170.627Z" fill="#414042"/>
<path fill-rule="evenodd" clip-rule="evenodd" d="M78.9883 179.687C78.7123 179.687 78.4883 179.463 78.4883 179.187C78.4883 178.911 78.7123 178.687 78.9883 178.687C84.2053 178.687 88.4493 174.443 88.4493 169.226V154.825C88.4493 150.677 85.6763 146.95 81.7083 145.759C81.4433 145.68 81.2933 145.402 81.3733 145.137C81.4513 144.874 81.7283 144.72 81.9953 144.802C86.3843 146.118 89.4493 150.239 89.4493 154.825V169.226C89.4493 174.995 84.7573 179.687 78.9883 179.687Z" fill="#414042"/>
<path fill-rule="evenodd" clip-rule="evenodd" d="M67.6163 179.687C61.8473 179.687 57.1553 174.995 57.1553 169.226C57.1553 168.95 57.3793 168.726 57.6553 168.726C57.9313 168.726 58.1553 168.95 58.1553 169.226C58.1553 174.443 62.3993 178.687 67.6163 178.687C67.8923 178.687 68.1163 178.911 68.1163 179.187C68.1163 179.463 67.8923 179.687 67.6163 179.687Z" fill="#414042"/>
<path fill-rule="evenodd" clip-rule="evenodd" d="M86.1182 153.016C85.9072 153.016 85.7122 152.882 85.6422 152.671C85.1822 151.264 84.2672 150.01 83.0662 149.14C82.8432 148.978 82.7922 148.665 82.9542 148.442C83.1182 148.216 83.4322 148.171 83.6522 148.329C85.0232 149.323 86.0682 150.754 86.5942 152.361C86.6802 152.623 86.5362 152.906 86.2732 152.992C86.2222 153.008 86.1702 153.016 86.1182 153.016Z" fill="#414042"/>
<path fill-rule="evenodd" clip-rule="evenodd" d="M86.4873 156.765C86.2113 156.765 85.9873 156.541 85.9873 156.265V154.825C85.9873 154.548 86.2113 154.325 86.4873 154.325C86.7633 154.325 86.9873 154.548 86.9873 154.825V156.265C86.9873 156.541 86.7633 156.765 86.4873 156.765Z" fill="#414042"/>
<path fill-rule="evenodd" clip-rule="evenodd" d="M73.3018 151.937C67.8098 151.937 63.3408 156.406 63.3408 161.898C63.3408 167.39 67.8098 171.859 73.3018 171.859C78.7948 171.859 83.2638 167.39 83.2638 161.898C83.2638 156.406 78.7948 151.937 73.3018 151.937ZM73.3018 172.859C67.2578 172.859 62.3408 167.942 62.3408 161.898C62.3408 155.854 67.2578 150.937 73.3018 150.937C79.3458 150.937 84.2638 155.854 84.2638 161.898C84.2638 167.942 79.3458 172.859 73.3018 172.859Z" fill="#414042"/>
<path fill-rule="evenodd" clip-rule="evenodd" d="M70.2672 158.821L71.2672 160.846L73.5022 161.172L71.8852 162.749L72.2672 164.974L70.2672 163.924L68.2682 164.974L68.6502 162.749L67.0332 161.172L69.2682 160.846L70.2672 158.821Z" fill="#414042"/>
<path fill-rule="evenodd" clip-rule="evenodd" d="M76.1248 156.811C76.4648 156.811 76.7398 157.086 76.7398 157.426C76.7398 157.766 76.4648 158.041 76.1248 158.041C75.7848 158.041 75.5088 157.766 75.5088 157.426C75.5088 157.086 75.7848 156.811 76.1248 156.811Z" fill="#414042"/>
<path fill-rule="evenodd" clip-rule="evenodd" d="M76.1248 165.426C76.4648 165.426 76.7398 165.701 76.7398 166.041C76.7398 166.381 76.4648 166.656 76.1248 166.656C75.7848 166.656 75.5088 166.381 75.5088 166.041C75.5088 165.701 75.7848 165.426 76.1248 165.426Z" fill="#414042"/>
<path fill-rule="evenodd" clip-rule="evenodd" d="M78.9041 159.273C79.2441 159.273 79.5191 159.548 79.5191 159.888C79.5191 160.228 79.2441 160.503 78.9041 160.503C78.5641 160.503 78.2891 160.228 78.2891 159.888C78.2891 159.548 78.5641 159.273 78.9041 159.273Z" fill="#414042"/>
<path fill-rule="evenodd" clip-rule="evenodd" d="M78.9041 162.964C79.2441 162.964 79.5191 163.239 79.5191 163.579C79.5191 163.919 79.2441 164.195 78.9041 164.195C78.5641 164.195 78.2891 163.919 78.2891 163.579C78.2891 163.239 78.5641 162.964 78.9041 162.964Z" fill="#414042"/>
<path fill-rule="evenodd" clip-rule="evenodd" d="M295.299 179.687H0.701418C0.314235 179.687 0 179.463 0 179.187C0 178.911 0.314235 178.687 0.701418 178.687H295.299C295.686 178.687 296 178.911 296 179.187C296 179.463 295.686 179.687 295.299 179.687Z" fill="#414042"/>
</svg>
