<svg width="296" height="180" viewBox="0 0 296 180" fill="none" xmlns="http://www.w3.org/2000/svg">
<path fill-rule="evenodd" clip-rule="evenodd" d="M115.531 98.6866C115.276 98.6866 115.057 98.4916 115.034 98.2316C115.01 97.9576 115.212 97.7136 115.487 97.6886L131.928 96.1966L126.868 69.3286C125.268 63.3416 119.064 59.7536 113.041 61.3586C107.019 62.9646 103.427 69.1716 105.035 75.1936L108.129 86.9876C108.199 87.2546 108.039 87.5276 107.772 87.5976C107.502 87.6706 107.232 87.5086 107.162 87.2416L104.068 75.4496C102.319 68.8966 106.229 62.1406 112.783 60.3916C119.331 58.6446 126.093 62.5506 127.843 69.1066L133.012 96.5516C133.039 96.6906 133.005 96.8336 132.92 96.9466C132.836 97.0586 132.707 97.1296 132.566 97.1426L115.577 98.6846C115.562 98.6856 115.547 98.6866 115.531 98.6866Z" fill="#414042"/>
<path fill-rule="evenodd" clip-rule="evenodd" d="M133.352 116.354C133.111 116.354 132.898 116.178 132.859 115.932L129.918 97.2696C129.875 96.9966 130.062 96.7406 130.334 96.6976C130.601 96.6526 130.863 96.8396 130.907 97.1136L133.847 115.776C133.89 116.049 133.704 116.305 133.431 116.348C133.405 116.352 133.378 116.354 133.352 116.354Z" fill="#414042"/>
<path fill-rule="evenodd" clip-rule="evenodd" d="M110.229 108.103C109.971 108.103 109.752 107.905 109.732 107.643L108.467 92.0114C108.445 91.7364 108.65 91.4954 108.925 91.4734C109.195 91.4614 109.442 91.6564 109.463 91.9314L110.728 107.563C110.75 107.838 110.545 108.08 110.27 108.101C110.256 108.102 110.243 108.103 110.229 108.103Z" fill="#414042"/>
<path fill-rule="evenodd" clip-rule="evenodd" d="M106.914 93.4121C106.453 93.4121 105.951 93.3081 105.422 93.0491C103.859 92.2801 102.204 89.5561 101.949 87.3321C101.809 86.1031 102.112 85.1451 102.826 84.5621C103.309 84.1691 103.863 84.0101 104.477 84.0971C106.285 84.3441 107.981 86.7251 108.053 86.8261C108.212 87.0521 108.158 87.3631 107.933 87.5221C107.709 87.6801 107.396 87.6281 107.236 87.4021C106.818 86.8111 105.483 85.2431 104.341 85.0871C104.007 85.0451 103.726 85.1211 103.459 85.3381C102.906 85.7881 102.873 86.6091 102.942 87.2181C103.171 89.2141 104.739 91.5991 105.863 92.1501C107.484 92.9491 108.537 91.7051 108.581 91.6521C108.758 91.4391 109.075 91.4121 109.285 91.5871C109.498 91.7641 109.527 92.0791 109.351 92.2911C108.959 92.7631 108.067 93.4121 106.914 93.4121Z" fill="#414042"/>
<path fill-rule="evenodd" clip-rule="evenodd" d="M136.521 130.353C136.407 130.353 136.292 130.314 136.198 130.235L120.946 117.32C120.735 117.141 120.709 116.826 120.887 116.615C121.067 116.405 121.383 116.38 121.592 116.556L136.844 129.471C137.055 129.65 137.081 129.965 136.903 130.176C136.803 130.292 136.663 130.353 136.521 130.353Z" fill="#414042"/>
<path fill-rule="evenodd" clip-rule="evenodd" d="M119.115 115.615C119.001 115.615 118.886 115.576 118.792 115.497L77.6972 80.6971C77.4862 80.5181 77.4612 80.2031 77.6382 79.9921C77.8192 79.7821 78.1352 79.7571 78.3442 79.9331L119.438 114.733C119.649 114.912 119.675 115.227 119.497 115.438C119.397 115.554 119.257 115.615 119.115 115.615Z" fill="#414042"/>
<path fill-rule="evenodd" clip-rule="evenodd" d="M83.0507 85.0751C82.8447 85.0751 82.6527 84.9471 82.5797 84.7431C82.4877 84.4821 82.6227 84.1961 82.8827 84.1041L104.768 76.3201C105.028 76.2221 105.315 76.3631 105.406 76.6231C105.499 76.8841 105.363 77.1701 105.104 77.2621L83.2187 85.0461C83.1627 85.0661 83.1067 85.0751 83.0507 85.0751Z" fill="#414042"/>
<path fill-rule="evenodd" clip-rule="evenodd" d="M295.299 179.687H0.701422C0.314237 179.687 0 179.463 0 179.187C0 178.911 0.314237 178.687 0.701422 178.687H295.299C295.686 178.687 296 178.911 296 179.187C296 179.463 295.686 179.687 295.299 179.687Z" fill="#414042"/>
<path fill-rule="evenodd" clip-rule="evenodd" d="M105.691 78.6434C105.478 78.6434 105.281 78.5064 105.214 78.2934C105.131 78.0304 105.278 77.7484 105.541 77.6664L143.037 65.8764C143.307 65.7954 143.582 65.9404 143.664 66.2034C143.747 66.4664 143.6 66.7474 143.337 66.8304L105.841 78.6204C105.791 78.6354 105.741 78.6434 105.691 78.6434Z" fill="#414042"/>
<path fill-rule="evenodd" clip-rule="evenodd" d="M124.455 86.9189C123.91 86.9189 123.41 86.6329 123.109 86.1469C122.964 85.9119 123.036 85.6039 123.271 85.4589C123.505 85.3149 123.814 85.3859 123.959 85.6209C124.125 85.8899 124.376 85.9179 124.472 85.9189C124.675 85.9129 124.859 85.8019 124.951 85.6299C125.085 85.3819 125.024 85.0289 124.781 84.6379C123.697 82.8859 122.314 80.0459 122.256 79.9259C122.136 79.6769 122.239 79.3779 122.487 79.2569C122.736 79.1369 123.035 79.2399 123.156 79.4879C123.17 79.5179 124.574 82.4029 125.631 84.1109C126.224 85.0669 126.012 85.7699 125.832 86.1029C125.571 86.5889 125.061 86.9009 124.503 86.9189H124.455Z" fill="#414042"/>
<path fill-rule="evenodd" clip-rule="evenodd" d="M109.355 86.9198C109.135 86.9198 108.934 86.7738 108.873 86.5528L108.095 83.7208C108.033 83.4908 108.14 83.2488 108.352 83.1418C110.84 81.8828 109.539 76.9718 109.525 76.9218C109.453 76.6548 109.61 76.3808 109.876 76.3088C110.147 76.2358 110.417 76.3938 110.49 76.6598C110.551 76.8848 111.899 81.9838 109.161 83.8238L109.837 86.2868C109.911 86.5538 109.753 86.8288 109.488 86.9018C109.443 86.9138 109.399 86.9198 109.355 86.9198Z" fill="#414042"/>
<path fill-rule="evenodd" clip-rule="evenodd" d="M116.083 82.3252C116.083 82.6012 115.858 82.8252 115.583 82.8252C115.307 82.8252 115.083 82.6012 115.083 82.3252C115.083 82.0502 115.307 81.8252 115.583 81.8252C115.858 81.8252 116.083 82.0502 116.083 82.3252Z" fill="#414042"/>
<path fill-rule="evenodd" clip-rule="evenodd" d="M127.583 79.207C127.583 79.483 127.358 79.707 127.083 79.707C126.807 79.707 126.583 79.483 126.583 79.207C126.583 78.931 126.807 78.707 127.083 78.707C127.358 78.707 127.583 78.931 127.583 79.207Z" fill="#414042"/>
<path fill-rule="evenodd" clip-rule="evenodd" d="M146.687 179.687C146.559 179.687 146.432 179.638 146.334 179.541C98.7221 132.105 69.5431 97.1575 59.2081 84.3325C59.0351 84.1185 59.0691 83.8035 59.2841 83.6295C59.4961 83.4575 59.8111 83.4895 59.9871 83.7065C70.3111 96.5165 99.4621 131.431 147.04 178.833C147.236 179.028 147.236 179.344 147.041 179.54C146.944 179.638 146.815 179.687 146.687 179.687Z" fill="#414042"/>
<mask id="mask0" mask-type="alpha" maskUnits="userSpaceOnUse" x="67" y="110" width="74" height="70">
<path fill-rule="evenodd" clip-rule="evenodd" d="M67.3701 110.715H140.232V179.687H67.3701V110.715Z" fill="white"/>
</mask>
<g mask="url(#mask0)">
<path fill-rule="evenodd" clip-rule="evenodd" d="M139.731 179.687C139.603 179.687 139.475 179.638 139.377 179.541L72.2104 112.373C71.3324 111.495 69.9034 111.497 69.0274 112.373C68.1504 113.249 68.1504 114.676 69.0274 115.554L132.236 178.833C132.431 179.029 132.431 179.345 132.236 179.541C132.041 179.736 131.724 179.736 131.529 179.541L68.3204 116.261C67.0534 114.994 67.0534 112.932 68.3204 111.666C69.5874 110.397 71.6494 110.399 72.9174 111.666L140.085 178.833C140.28 179.029 140.28 179.345 140.085 179.541C139.987 179.638 139.859 179.687 139.731 179.687Z" fill="#414042"/>
</g>
<path fill-rule="evenodd" clip-rule="evenodd" d="M123.165 90.205C122.886 90.205 122.605 90.153 122.337 90.049C121.769 89.827 121.32 89.398 121.074 88.84C120.963 88.587 121.078 88.292 121.331 88.181C121.584 88.072 121.879 88.184 121.99 88.437C122.128 88.751 122.38 88.992 122.699 89.116C123.02 89.241 123.367 89.234 123.682 89.095C123.935 88.987 124.229 89.099 124.341 89.351C124.452 89.604 124.337 89.899 124.084 90.011C123.79 90.14 123.477 90.205 123.165 90.205Z" fill="#414042"/>
<path fill-rule="evenodd" clip-rule="evenodd" d="M113.912 80.2479C113.847 80.2479 113.779 80.2349 113.715 80.2079C113.461 80.0989 113.344 79.8049 113.452 79.5509C113.692 78.9899 114.137 78.5569 114.702 78.3299C115.27 78.1049 115.89 78.1119 116.45 78.3509C116.703 78.4599 116.821 78.7539 116.713 79.0079C116.603 79.2619 116.311 79.3789 116.056 79.2699C115.74 79.1369 115.391 79.1309 115.074 79.2589C114.756 79.3859 114.507 79.6299 114.372 79.9449C114.29 80.1349 114.105 80.2479 113.912 80.2479Z" fill="#414042"/>
<path fill-rule="evenodd" clip-rule="evenodd" d="M125.412 78.5409C125.347 78.5409 125.279 78.5279 125.215 78.5009C124.961 78.3919 124.844 78.0979 124.952 77.8439C125.192 77.2829 125.637 76.8499 126.202 76.6229C126.77 76.3979 127.39 76.4049 127.95 76.6439C128.203 76.7529 128.321 77.0469 128.213 77.3009C128.103 77.5539 127.81 77.6719 127.556 77.5629C127.24 77.4289 126.891 77.4239 126.574 77.5519C126.256 77.6789 126.007 77.9229 125.872 78.2379C125.79 78.4279 125.605 78.5409 125.412 78.5409Z" fill="#414042"/>
<path fill-rule="evenodd" clip-rule="evenodd" d="M70.661 113.66C70.48 113.66 70.333 113.807 70.333 113.988C70.333 114.169 70.48 114.316 70.661 114.316C70.842 114.316 70.989 114.169 70.989 113.988C70.989 113.807 70.842 113.66 70.661 113.66ZM70.661 115.316C69.929 115.316 69.333 114.721 69.333 113.988C69.333 113.256 69.929 112.66 70.661 112.66C71.393 112.66 71.989 113.256 71.989 113.988C71.989 114.721 71.393 115.316 70.661 115.316Z" fill="#414042"/>
<path fill-rule="evenodd" clip-rule="evenodd" d="M192.819 118.728C192.806 118.728 192.795 118.728 192.783 118.727L181.486 117.925C181.211 117.906 181.003 117.666 181.022 117.391C181.042 117.115 181.31 116.902 181.556 116.927L192.853 117.729C193.129 117.749 193.337 117.988 193.317 118.263C193.298 118.527 193.079 118.728 192.819 118.728Z" fill="#414042"/>
<path fill-rule="evenodd" clip-rule="evenodd" d="M220.464 130.354C220.32 130.354 220.177 130.292 220.078 130.171L188.108 91.3336C187.932 91.1216 187.962 90.8056 188.176 90.6306C188.387 90.4546 188.703 90.4846 188.879 90.6996L220.85 129.537C221.026 129.75 220.995 130.065 220.781 130.24C220.689 130.317 220.576 130.354 220.464 130.354Z" fill="#414042"/>
<path fill-rule="evenodd" clip-rule="evenodd" d="M181.021 138.201C180.752 138.201 180.531 137.988 180.521 137.718C180.512 137.442 180.728 137.211 181.004 137.201L217.879 135.958C218.159 135.961 218.386 136.164 218.396 136.441C218.405 136.717 218.189 136.948 217.913 136.958L181.038 138.201H181.021Z" fill="#414042"/>
<path fill-rule="evenodd" clip-rule="evenodd" d="M168.29 138.686C168.021 138.686 167.8 138.473 167.79 138.204C167.78 137.927 167.997 137.696 168.272 137.686L179.124 137.308C179.374 137.287 179.631 137.515 179.642 137.79C179.651 138.067 179.435 138.298 179.159 138.308L168.308 138.686H168.29Z" fill="#414042"/>
<path fill-rule="evenodd" clip-rule="evenodd" d="M166.531 125.927C166.279 125.927 166.062 125.737 166.035 125.48L165.939 124.573C165.91 124.297 166.109 124.051 166.384 124.023C166.667 123.99 166.904 124.192 166.933 124.467L167.029 125.374C167.058 125.649 166.859 125.896 166.585 125.924C166.566 125.926 166.549 125.927 166.531 125.927Z" fill="#414042"/>
<path fill-rule="evenodd" clip-rule="evenodd" d="M166.847 128.941C166.595 128.941 166.377 128.75 166.351 128.493L166.259 127.617C166.23 127.342 166.429 127.096 166.704 127.068C166.974 127.029 167.225 127.239 167.253 127.513L167.345 128.389C167.374 128.664 167.175 128.91 166.9 128.938C166.882 128.94 166.865 128.941 166.847 128.941Z" fill="#414042"/>
<path fill-rule="evenodd" clip-rule="evenodd" d="M167.038 130.76C166.786 130.76 166.569 130.57 166.542 130.313L166.52 130.109C166.491 129.833 166.69 129.587 166.965 129.559C167.251 129.531 167.485 129.728 167.515 130.003L167.536 130.207C167.565 130.483 167.366 130.729 167.092 130.757C167.073 130.759 167.056 130.76 167.038 130.76Z" fill="#414042"/>
<path fill-rule="evenodd" clip-rule="evenodd" d="M175.394 148.456C175.283 148.456 175.171 148.42 175.079 148.344L167.974 142.574C167.872 142.491 167.806 142.37 167.792 142.238L166.731 132.121C166.702 131.847 166.901 131.601 167.176 131.572C167.445 131.537 167.697 131.742 167.725 132.018L168.765 141.929L175.709 147.568C175.923 147.742 175.956 148.057 175.782 148.271C175.683 148.393 175.54 148.456 175.394 148.456Z" fill="#414042"/>
<path fill-rule="evenodd" clip-rule="evenodd" d="M213.853 179.686C213.742 179.686 213.63 179.65 213.538 179.574L176.697 149.657C176.483 149.483 176.45 149.168 176.624 148.954C176.798 148.741 177.114 148.707 177.328 148.881L214.168 178.798C214.382 178.972 214.415 179.287 214.241 179.501C214.142 179.623 213.999 179.686 213.853 179.686Z" fill="#414042"/>
<path fill-rule="evenodd" clip-rule="evenodd" d="M197.853 128.065C197.675 128.065 197.503 127.97 197.413 127.802L180.58 96.5903C180.449 96.3473 180.54 96.0443 180.783 95.9133C181.024 95.7853 181.328 95.8723 181.46 96.1163L198.293 127.328C198.424 127.571 198.333 127.874 198.09 128.005C198.015 128.045 197.933 128.065 197.853 128.065Z" fill="#414042"/>
<path fill-rule="evenodd" clip-rule="evenodd" d="M182.51 81.2567C182.469 81.2567 182.426 81.2517 182.384 81.2407L175.814 79.5317C175.546 79.4617 175.386 79.1897 175.455 78.9217C175.525 78.6557 175.795 78.4937 176.066 78.5637L182.636 80.2727C182.904 80.3427 183.064 80.6147 182.994 80.8827C182.936 81.1077 182.733 81.2567 182.51 81.2567Z" fill="#414042"/>
<path fill-rule="evenodd" clip-rule="evenodd" d="M181.618 84.2567C181.566 84.2567 181.514 84.2487 181.461 84.2317L175.675 82.3177C175.413 82.2307 175.27 81.9477 175.357 81.6857C175.443 81.4237 175.721 81.2777 175.989 81.3677L181.775 83.2817C182.037 83.3687 182.18 83.6517 182.093 83.9137C182.023 84.1237 181.828 84.2567 181.618 84.2567Z" fill="#414042"/>
<path fill-rule="evenodd" clip-rule="evenodd" d="M179.786 86.8622C179.735 86.8622 179.682 86.8542 179.632 86.8382L175.554 85.5112C175.291 85.4252 175.147 85.1442 175.232 84.8822C175.317 84.6192 175.601 84.4742 175.862 84.5602L179.94 85.8862C180.203 85.9722 180.347 86.2542 180.262 86.5162C180.193 86.7282 179.997 86.8622 179.786 86.8622Z" fill="#414042"/>
<path fill-rule="evenodd" clip-rule="evenodd" d="M135.165 129.212C135.124 129.212 135.082 129.207 135.04 129.196C134.772 129.127 134.612 128.855 134.681 128.587L138.378 114.275C138.447 114.009 138.719 113.848 138.987 113.916C139.255 113.985 139.415 114.258 139.347 114.525L135.649 128.837C135.591 129.063 135.388 129.212 135.165 129.212Z" fill="#414042"/>
<path fill-rule="evenodd" clip-rule="evenodd" d="M80.3541 113.66C80.3011 113.66 80.2491 113.652 80.1961 113.635C79.9341 113.547 79.7921 113.264 79.8791 113.002C84.7141 98.5 99.7561 94.837 99.9081 94.801C100.181 94.74 100.446 94.905 100.507 95.174C100.571 95.443 100.404 95.712 100.135 95.775C99.9891 95.809 85.4821 99.357 80.8291 113.318C80.7581 113.527 80.5631 113.66 80.3541 113.66Z" fill="#414042"/>
<path fill-rule="evenodd" clip-rule="evenodd" d="M174.925 141.019C174.877 141.019 174.827 141.012 174.779 140.997C174.515 140.916 174.366 140.636 174.446 140.373C174.486 140.247 178.26 127.621 174.446 114.96C174.366 114.696 174.517 114.416 174.78 114.337C175.048 114.256 175.324 114.408 175.404 114.671C179.308 127.631 175.443 140.537 175.404 140.665C175.337 140.88 175.139 141.019 174.925 141.019Z" fill="#414042"/>
<path fill-rule="evenodd" clip-rule="evenodd" d="M217.896 136.958C217.627 136.958 217.406 136.745 217.396 136.476C217.386 136.199 217.603 135.968 217.878 135.958C219.476 135.902 220.66 135.279 221.124 134.247C221.636 133.11 221.246 131.587 220.079 130.172C219.903 129.959 219.933 129.644 220.146 129.468C220.359 129.292 220.674 129.32 220.85 129.535C222.264 131.251 222.708 133.166 222.036 134.658C221.409 136.05 219.907 136.888 217.914 136.958H217.896Z" fill="#414042"/>
<path fill-rule="evenodd" clip-rule="evenodd" d="M59.5965 84.5194C59.4525 84.5194 59.3105 84.4574 59.2115 84.3384C57.2315 81.9494 56.5225 79.9784 57.0445 78.3114C57.5625 76.6634 59.2505 75.4614 62.2085 74.6404C62.4795 74.5644 62.7495 74.7224 62.8245 74.9884C62.8985 75.2534 62.7425 75.5304 62.4765 75.6034C59.9075 76.3174 58.4015 77.3304 57.9985 78.6114C57.5915 79.9104 58.2585 81.6224 59.9815 83.7004C60.1585 83.9134 60.1275 84.2284 59.9155 84.4044C59.8225 84.4814 59.7085 84.5194 59.5965 84.5194Z" fill="#414042"/>
<path fill-rule="evenodd" clip-rule="evenodd" d="M62.3427 75.622C62.1207 75.622 61.9177 75.474 61.8597 75.249C61.7887 74.982 61.9477 74.709 62.2157 74.639C70.3307 72.508 84.3757 69.417 105.199 66.792C105.47 66.75 105.723 66.95 105.758 67.226C105.792 67.5 105.599 67.75 105.324 67.784C84.5547 70.402 70.5567 73.482 62.4697 75.605C62.4267 75.617 62.3847 75.622 62.3427 75.622Z" fill="#414042"/>
<path fill-rule="evenodd" clip-rule="evenodd" d="M104.743 179.687C104.615 179.687 104.487 179.638 104.389 179.541C104.194 179.345 104.194 179.029 104.389 178.833L117.967 165.256C118.162 165.061 118.478 165.061 118.674 165.256C118.869 165.452 118.869 165.768 118.674 165.963L105.097 179.541C104.999 179.638 104.871 179.687 104.743 179.687Z" fill="#414042"/>
<path fill-rule="evenodd" clip-rule="evenodd" d="M97.8635 179.664C97.7355 179.664 97.6075 179.615 97.5095 179.518C97.3145 179.322 97.3145 179.006 97.5095 178.81L114.518 161.802C114.714 161.606 115.03 161.606 115.225 161.802C115.421 161.997 115.421 162.313 115.225 162.509L98.2175 179.518C98.1195 179.615 97.9915 179.664 97.8635 179.664Z" fill="#414042"/>
<path fill-rule="evenodd" clip-rule="evenodd" d="M187.999 93.415C187.972 93.415 187.944 93.413 187.916 93.408C187.644 93.363 187.46 93.105 187.505 92.833L189.926 78.252L188.905 73.436C188.895 73.387 188.893 73.337 188.896 73.288L189.194 69.92L188.248 69.738C187.977 69.686 187.799 69.424 187.851 69.153C187.902 68.881 188.169 68.702 188.436 68.756L189.826 69.022C190.078 69.071 190.253 69.302 190.23 69.558L189.899 73.302L190.924 78.137C190.937 78.197 190.938 78.261 190.928 78.322L188.491 92.997C188.45 93.241 188.238 93.415 187.999 93.415Z" fill="#414042"/>
<path fill-rule="evenodd" clip-rule="evenodd" d="M181.02 96.8535C180.982 96.8535 180.943 96.8495 180.905 96.8395C177.272 95.9775 177.083 90.2005 177.096 88.7065L175.299 87.8965C175.111 87.8115 174.995 87.6205 175.005 87.4145L175.473 78.4095L175.99 76.1365C176.047 75.8865 176.279 75.7215 176.541 75.7525L187.552 77.1785C187.826 77.2145 188.019 77.4645 187.984 77.7395C187.948 78.0125 187.701 78.2065 187.423 78.1705L176.862 76.8025L176.459 78.5475L176.021 87.1245L177.809 87.9295C177.996 88.0135 178.113 88.2035 178.103 88.4085C178.1 88.4745 177.848 95.0855 181.135 95.8675C181.404 95.9305 181.57 96.2005 181.506 96.4685C181.452 96.6995 181.247 96.8535 181.02 96.8535Z" fill="#414042"/>
<path fill-rule="evenodd" clip-rule="evenodd" d="M121.807 70.5957C120.657 66.2827 116.226 63.7187 111.912 64.8697C107.599 66.0207 105.036 70.4507 106.187 74.7647L106.494 75.9377L121.911 71.1477L121.807 70.5957Z" fill="#414042"/>
<path fill-rule="evenodd" clip-rule="evenodd" d="M114.003 65.0947C113.345 65.0947 112.685 65.1817 112.042 65.3537C110.085 65.8747 108.448 67.1277 107.434 68.8817C106.419 70.6347 106.149 72.6787 106.671 74.6357L106.846 75.3047L121.338 70.8027L121.316 70.6887C120.44 67.4097 117.43 65.0947 114.003 65.0947ZM106.495 76.4377C106.411 76.4377 106.327 76.4157 106.253 76.3747C106.133 76.3087 106.046 76.1967 106.012 76.0647L105.704 74.8917C105.113 72.6787 105.42 70.3657 106.568 68.3807C107.717 66.3967 109.569 64.9777 111.784 64.3867C112.511 64.1937 113.258 64.0947 114.003 64.0947C117.882 64.0947 121.29 66.7147 122.291 70.4667L122.403 71.0547C122.45 71.3037 122.303 71.5497 122.061 71.6247L106.644 76.4147C106.595 76.4297 106.545 76.4377 106.495 76.4377Z" fill="#414042"/>
<path fill-rule="evenodd" clip-rule="evenodd" d="M110.098 77.1788C110.098 77.1788 121.489 75.3358 128.109 73.2198L127.753 71.3328L110.098 77.1788Z" fill="#414042"/>
<path fill-rule="evenodd" clip-rule="evenodd" d="M127.367 71.9874L117.108 75.3844C120.502 74.7044 124.481 73.8184 127.535 72.8764L127.367 71.9874ZM110.097 77.6784C109.87 77.6784 109.668 77.5244 109.612 77.2984C109.55 77.0444 109.693 76.7864 109.94 76.7044L127.596 70.8584C127.734 70.8144 127.882 70.8294 128.007 70.9024C128.131 70.9754 128.218 71.0984 128.244 71.2404L128.599 73.1274C128.646 73.3754 128.501 73.6194 128.261 73.6964C121.68 75.7994 110.292 77.6544 110.178 77.6724C110.15 77.6764 110.124 77.6784 110.097 77.6784Z" fill="#414042"/>
<path fill-rule="evenodd" clip-rule="evenodd" d="M115.531 98.1864C115.531 98.1864 122.706 102.103 131.094 101.519L130.413 96.8354L115.531 98.1864Z" fill="#414042"/>
<path fill-rule="evenodd" clip-rule="evenodd" d="M117.42 98.5177C119.737 99.5007 124.251 101.08 129.368 101.08H129.369C129.75 101.08 130.134 101.071 130.522 101.052L129.986 97.3767L117.42 98.5177ZM129.369 102.08H129.368C121.706 102.08 115.55 98.7667 115.292 98.6247C115.099 98.5197 114.997 98.3007 115.042 98.0847C115.086 97.8697 115.267 97.7077 115.486 97.6887L130.368 96.3377C130.613 96.3157 130.87 96.5007 130.908 96.7637L131.59 101.448C131.609 101.585 131.571 101.725 131.484 101.833C131.397 101.942 131.269 102.009 131.13 102.019C130.536 102.06 129.948 102.08 129.369 102.08Z" fill="#414042"/>
<path fill-rule="evenodd" clip-rule="evenodd" d="M175.289 94.6513C174.953 94.6513 174.654 94.5383 174.438 94.3243C174.174 94.0623 174.067 93.6753 174.146 93.2643L175.263 87.4463C175.314 87.1733 175.582 86.9973 175.848 87.0483C176.119 87.1003 176.297 87.3633 176.245 87.6333L175.129 93.4533C175.114 93.5283 175.12 93.5913 175.143 93.6153C175.167 93.6383 175.254 93.6723 175.409 93.6383L178.246 93.0683C178.513 93.0143 178.78 93.1883 178.835 93.4603C178.89 93.7303 178.714 93.9943 178.443 94.0483L175.606 94.6193C175.498 94.6403 175.392 94.6513 175.289 94.6513Z" fill="#414042"/>
<path fill-rule="evenodd" clip-rule="evenodd" d="M186.745 78.078C186.714 78.078 186.682 78.075 186.65 78.069C186.379 78.017 186.201 77.755 186.253 77.484L188.888 63.752C188.902 63.677 188.896 63.614 188.873 63.591C188.841 63.557 188.741 63.54 188.606 63.566L181.281 65.04C180.899 65.117 180.492 65.498 180.427 65.839L178.376 76.525C178.324 76.796 178.063 76.97 177.79 76.922C177.519 76.87 177.342 76.607 177.393 76.336L179.444 65.65C179.585 64.916 180.305 64.217 181.084 64.059L188.409 62.586C188.872 62.495 189.296 62.601 189.576 62.88C189.842 63.142 189.948 63.529 189.87 63.939L187.235 77.672C187.189 77.912 186.979 78.078 186.745 78.078Z" fill="#414042"/>
<path fill-rule="evenodd" clip-rule="evenodd" d="M182.091 66.204C181.885 66.246 181.652 66.486 181.628 66.608L179.7 76.666L186.743 77.578L189.193 64.812L182.091 66.204Z" fill="#414042"/>
<path fill-rule="evenodd" clip-rule="evenodd" d="M180.291 76.2383L186.341 77.0213L188.562 65.4453L182.187 66.6943C182.173 66.7023 182.109 66.7573 182.089 66.7893L180.291 76.2383ZM186.744 78.0783C186.723 78.0783 186.701 78.0773 186.679 78.0743L179.636 77.1623C179.499 77.1443 179.376 77.0703 179.295 76.9593C179.214 76.8473 179.184 76.7073 179.209 76.5723L181.137 66.5143C181.202 66.1733 181.609 65.7923 181.991 65.7143L189.097 64.3223C189.255 64.2873 189.427 64.3413 189.545 64.4583C189.663 64.5753 189.715 64.7433 189.684 64.9063L187.234 77.6723C187.188 77.9103 186.98 78.0783 186.744 78.0783Z" fill="#414042"/>
<path fill-rule="evenodd" clip-rule="evenodd" d="M177.013 88.1191L175.937 94.0421L178.088 93.6091L177.605 88.3861L177.013 88.1191Z" fill="#414042"/>
<path fill-rule="evenodd" clip-rule="evenodd" d="M182.509 67.622C182.275 67.622 182.066 67.457 182.02 67.218C181.966 66.947 182.143 66.685 182.414 66.632L183.863 66.349C184.128 66.291 184.396 66.471 184.448 66.743C184.502 67.014 184.325 67.276 184.054 67.329L182.606 67.612C182.573 67.619 182.541 67.622 182.509 67.622Z" fill="white"/>
<path fill-rule="evenodd" clip-rule="evenodd" d="M78.9248 81.0811L89.3738 82.3251L83.8018 84.3081L78.9248 81.0811Z" fill="#414042"/>
<path fill-rule="evenodd" clip-rule="evenodd" d="M80.958 81.8272L83.869 83.7532L87.196 82.5692L80.958 81.8272ZM83.802 84.8072C83.705 84.8072 83.608 84.7792 83.525 84.7242L78.648 81.4982C78.456 81.3702 78.376 81.1262 78.455 80.9092C78.535 80.6912 78.751 80.5502 78.984 80.5852L89.434 81.8292C89.664 81.8562 89.845 82.0392 89.871 82.2692C89.896 82.5002 89.761 82.7192 89.542 82.7962L83.97 84.7782C83.915 84.7982 83.858 84.8072 83.802 84.8072Z" fill="#414042"/>
<path fill-rule="evenodd" clip-rule="evenodd" d="M188.493 117.921L196.455 124.973L192.817 118.228L188.493 117.921Z" fill="#414042"/>
<path fill-rule="evenodd" clip-rule="evenodd" d="M189.927 118.523L194.677 122.73L192.507 118.707L189.927 118.523ZM196.454 125.472C196.335 125.472 196.217 125.43 196.123 125.346L188.161 118.294C188 118.153 187.948 117.924 188.031 117.727C188.114 117.53 188.319 117.401 188.528 117.421L192.852 117.728C193.023 117.741 193.175 117.839 193.257 117.99L196.895 124.735C197.009 124.948 196.955 125.213 196.765 125.364C196.674 125.436 196.564 125.472 196.454 125.472Z" fill="#414042"/>
<path fill-rule="evenodd" clip-rule="evenodd" d="M110.847 166.18L111.533 172.398L118.321 165.61L114.871 162.156L110.847 166.18Z" fill="#414042"/>
<path fill-rule="evenodd" clip-rule="evenodd" d="M111.37 166.363L111.915 171.307L117.613 165.609L114.871 162.862L111.37 166.363ZM111.532 172.897C111.476 172.897 111.421 172.888 111.366 172.869C111.185 172.805 111.057 172.643 111.035 172.452L110.349 166.234C110.333 166.084 110.386 165.933 110.493 165.826L114.517 161.801C114.611 161.708 114.738 161.655 114.871 161.655C115.004 161.655 115.131 161.708 115.224 161.801L118.674 165.256C118.869 165.451 118.869 165.767 118.674 165.963L111.886 172.751C111.79 172.846 111.662 172.897 111.532 172.897Z" fill="#414042"/>
<path fill-rule="evenodd" clip-rule="evenodd" d="M114.041 127.92L116.124 132.774L114.041 127.92Z" fill="#414042"/>
<path fill-rule="evenodd" clip-rule="evenodd" d="M116.124 133.274C115.931 133.274 115.746 133.161 115.664 132.971L113.581 128.117C113.473 127.863 113.59 127.569 113.844 127.46C114.096 127.353 114.391 127.467 114.501 127.722L116.584 132.577C116.692 132.831 116.575 133.125 116.321 133.234C116.257 133.261 116.19 133.274 116.124 133.274Z" fill="#414042"/>
<path fill-rule="evenodd" clip-rule="evenodd" d="M113.373 131.367C113.21 131.367 113.05 131.287 112.954 131.139L110.81 127.838C110.66 127.606 110.726 127.297 110.957 127.146C111.186 126.996 111.498 127.06 111.648 127.293L113.792 130.595C113.942 130.826 113.877 131.136 113.645 131.286C113.561 131.341 113.467 131.367 113.373 131.367Z" fill="#414042"/>
<path fill-rule="evenodd" clip-rule="evenodd" d="M179.594 130.433C179.318 130.433 179.094 130.209 179.094 129.933V95.7437C179.094 95.4667 179.318 95.2437 179.594 95.2437C179.87 95.2437 180.094 95.4667 180.094 95.7437V129.933C180.094 130.209 179.87 130.433 179.594 130.433Z" fill="#414042"/>
<path fill-rule="evenodd" clip-rule="evenodd" d="M118.616 99.6513C118.507 94.3623 114.157 90.0593 108.92 90.0593H107.631V89.0593H108.92C114.697 89.0593 119.495 93.8013 119.616 99.6303L118.616 99.6513Z" fill="#414042"/>
<path fill-rule="evenodd" clip-rule="evenodd" d="M106.52 88.9502C106.183 88.9502 105.91 89.2232 105.91 89.5592C105.91 89.8952 106.183 90.1692 106.52 90.1692C106.856 90.1692 107.129 89.8952 107.129 89.5592C107.129 89.2232 106.856 88.9502 106.52 88.9502ZM106.52 91.1692C105.632 91.1692 104.91 90.4472 104.91 89.5592C104.91 88.6722 105.632 87.9502 106.52 87.9502C107.408 87.9502 108.129 88.6722 108.129 89.5592C108.129 90.4472 107.408 91.1692 106.52 91.1692Z" fill="#414042"/>
<path fill-rule="evenodd" clip-rule="evenodd" d="M120.617 101.144H119.617V99.6204C119.597 98.7284 119.466 97.8324 119.225 96.9694L120.188 96.7004C120.452 97.6444 120.596 98.6234 120.617 99.6094V101.144Z" fill="white"/>
<path fill-rule="evenodd" clip-rule="evenodd" d="M207.249 13C196.623 13 187.978 21.646 187.978 32.271C187.978 42.897 196.623 51.542 207.249 51.542C217.875 51.542 226.52 42.897 226.52 32.271C226.52 21.646 217.875 13 207.249 13ZM207.249 52.542C196.071 52.542 186.978 43.448 186.978 32.271C186.978 21.094 196.071 12 207.249 12C218.427 12 227.52 21.094 227.52 32.271C227.52 43.448 218.427 52.542 207.249 52.542Z" fill="#414042"/>
<path fill-rule="evenodd" clip-rule="evenodd" d="M69.8221 178.664H80.5411L81.4991 156.045H68.8641L69.8221 178.664ZM81.0201 179.664H69.3431C69.0751 179.664 68.8541 179.453 68.8431 179.185L67.8431 155.566C67.8381 155.43 67.8871 155.297 67.9811 155.199C68.0761 155.101 68.2061 155.045 68.3431 155.045H82.0201C82.1571 155.045 82.2871 155.101 82.3821 155.199C82.4751 155.297 82.5251 155.43 82.5201 155.566L81.5201 179.185C81.5091 179.453 81.2881 179.664 81.0201 179.664Z" fill="#414042"/>
<path fill-rule="evenodd" clip-rule="evenodd" d="M79.7373 162.733H70.6113C70.3353 162.733 70.1113 162.509 70.1113 162.233C70.1113 161.957 70.3353 161.733 70.6113 161.733H79.7373C80.0133 161.733 80.2373 161.957 80.2373 162.233C80.2373 162.509 80.0133 162.733 79.7373 162.733Z" fill="#414042"/>
<path fill-rule="evenodd" clip-rule="evenodd" d="M82.0205 160.711C80.1585 160.711 78.4325 159.702 77.5175 158.079C77.3815 157.839 77.4665 157.534 77.7085 157.398C77.9435 157.263 78.2515 157.347 78.3885 157.589C79.1265 158.898 80.5185 159.711 82.0205 159.711C84.3175 159.711 86.1865 157.842 86.1865 155.545C86.1865 153.247 84.3175 151.378 82.0205 151.378C79.7225 151.378 77.8535 153.247 77.8535 155.545C77.8535 155.821 77.6295 156.045 77.3535 156.045C77.0775 156.045 76.8535 155.821 76.8535 155.545C76.8535 152.696 79.1715 150.378 82.0205 150.378C84.8695 150.378 87.1865 152.696 87.1865 155.545C87.1865 158.394 84.8695 160.711 82.0205 160.711Z" fill="#414042"/>
<path fill-rule="evenodd" clip-rule="evenodd" d="M71.0291 156.045C70.7861 156.045 70.5721 155.866 70.5361 155.618L69.5671 149.093C69.5261 148.819 69.7151 148.566 69.9881 148.525C70.2561 148.482 70.5151 148.674 70.5551 148.946L71.5241 155.472C71.5651 155.745 71.3771 155.999 71.1031 156.039C71.0791 156.043 71.0531 156.045 71.0291 156.045Z" fill="#414042"/>
<path fill-rule="evenodd" clip-rule="evenodd" d="M72.0218 162.733C71.7788 162.733 71.5648 162.554 71.5288 162.306L70.9158 158.174C70.8748 157.901 71.0628 157.647 71.3358 157.607C71.6048 157.568 71.8638 157.755 71.9038 158.028L72.5168 162.16C72.5578 162.433 72.3698 162.687 72.0958 162.727C72.0718 162.731 72.0458 162.733 72.0218 162.733Z" fill="#414042"/>
<path fill-rule="evenodd" clip-rule="evenodd" d="M74.0607 176.478C73.8177 176.478 73.6037 176.299 73.5677 176.051L71.9167 164.924C71.8757 164.651 72.0647 164.397 72.3377 164.357C72.6057 164.311 72.8657 164.504 72.9057 164.778L74.5557 175.905C74.5967 176.178 74.4087 176.432 74.1347 176.472C74.1107 176.476 74.0847 176.478 74.0607 176.478Z" fill="#414042"/>
<path fill-rule="evenodd" clip-rule="evenodd" d="M70.0609 149.52C70.0089 149.52 69.9569 149.512 69.9049 149.495L61.1549 146.62C60.8929 146.534 60.7489 146.251 60.8359 145.989C60.9209 145.727 61.2059 145.582 61.4669 145.67L70.2169 148.545C70.4789 148.631 70.6229 148.914 70.5359 149.176C70.4669 149.386 70.2709 149.52 70.0609 149.52Z" fill="#414042"/>
<path fill-rule="evenodd" clip-rule="evenodd" d="M55.6858 126.993C53.8868 126.993 52.1368 126.62 50.4828 125.884C50.2298 125.771 50.1168 125.475 50.2288 125.223C50.3418 124.971 50.6398 124.857 50.8888 124.97C53.9398 126.327 57.4318 126.327 60.4828 124.97C60.7318 124.857 61.0308 124.971 61.1428 125.223C61.2548 125.475 61.1418 125.771 60.8888 125.884C59.2348 126.62 57.4848 126.993 55.6858 126.993Z" fill="#414042"/>
<path fill-rule="evenodd" clip-rule="evenodd" d="M65.6867 126.993C63.8877 126.993 62.1377 126.62 60.4837 125.884C60.2307 125.771 60.1177 125.475 60.2297 125.223C60.3417 124.971 60.6417 124.857 60.8897 124.97C62.4157 125.648 64.0297 125.993 65.6867 125.993C65.9627 125.993 66.1867 126.217 66.1867 126.493C66.1867 126.769 65.9627 126.993 65.6867 126.993Z" fill="#414042"/>
<path fill-rule="evenodd" clip-rule="evenodd" d="M45.6865 126.993C45.4105 126.993 45.1865 126.769 45.1865 126.493C45.1865 126.217 45.4105 125.993 45.6865 125.993C47.3435 125.993 48.9575 125.648 50.4835 124.97C50.7315 124.857 51.0315 124.971 51.1435 125.223C51.2555 125.475 51.1425 125.771 50.8895 125.884C49.2355 126.62 47.4855 126.993 45.6865 126.993Z" fill="#414042"/>
<path fill-rule="evenodd" clip-rule="evenodd" d="M75.6867 126.993C73.8877 126.993 72.1377 126.62 70.4837 125.884C70.2307 125.771 70.1177 125.475 70.2297 125.223C70.3417 124.971 70.6407 124.857 70.8897 124.97C73.3537 126.066 76.1237 126.288 78.7077 125.597C78.9787 125.522 79.2498 125.686 79.3197 125.952C79.3907 126.22 79.2317 126.493 78.9647 126.564C77.8957 126.848 76.7927 126.993 75.6867 126.993Z" fill="#414042"/>
<path fill-rule="evenodd" clip-rule="evenodd" d="M65.6865 126.993C65.4105 126.993 65.1865 126.769 65.1865 126.493C65.1865 126.217 65.4105 125.993 65.6865 125.993C67.3435 125.993 68.9575 125.648 70.4835 124.97C70.7315 124.857 71.0315 124.971 71.1435 125.223C71.2555 125.475 71.1425 125.771 70.8895 125.884C69.2355 126.62 67.4855 126.993 65.6865 126.993Z" fill="#414042"/>
<path fill-rule="evenodd" clip-rule="evenodd" d="M217.53 126.791C217.294 126.791 217.084 126.623 217.04 126.382C216.989 126.11 217.169 125.85 217.44 125.8C218.353 125.631 219.252 125.352 220.11 124.97C220.362 124.857 220.658 124.971 220.77 125.224C220.883 125.476 220.768 125.771 220.516 125.884C219.587 126.297 218.612 126.6 217.622 126.782C217.592 126.788 217.56 126.791 217.53 126.791Z" fill="#414042"/>
<path fill-rule="evenodd" clip-rule="evenodd" d="M225.314 126.993C223.515 126.993 221.765 126.62 220.111 125.884C219.858 125.771 219.745 125.475 219.857 125.223C219.97 124.971 220.268 124.857 220.517 124.97C222.043 125.648 223.657 125.993 225.314 125.993C225.59 125.993 225.814 126.217 225.814 126.493C225.814 126.769 225.59 126.993 225.314 126.993Z" fill="#414042"/>
<path fill-rule="evenodd" clip-rule="evenodd" d="M235.314 126.993C233.515 126.993 231.765 126.62 230.111 125.884C229.858 125.771 229.745 125.475 229.857 125.223C229.969 124.971 230.269 124.857 230.517 124.97C232.043 125.648 233.657 125.993 235.314 125.993C235.59 125.993 235.814 126.217 235.814 126.493C235.814 126.769 235.59 126.993 235.314 126.993Z" fill="#414042"/>
<path fill-rule="evenodd" clip-rule="evenodd" d="M225.313 126.993C225.037 126.993 224.813 126.769 224.813 126.493C224.813 126.217 225.037 125.993 225.313 125.993C226.97 125.993 228.584 125.648 230.11 124.97C230.359 124.857 230.658 124.971 230.77 125.223C230.882 125.475 230.769 125.771 230.516 125.884C228.862 126.62 227.112 126.993 225.313 126.993Z" fill="#414042"/>
<path fill-rule="evenodd" clip-rule="evenodd" d="M219.583 147.75C219.307 147.75 219.083 147.526 219.083 147.25C219.083 146.974 219.307 146.75 219.583 146.75C221.24 146.75 222.854 146.405 224.38 145.727C224.628 145.615 224.928 145.728 225.04 145.98C225.152 146.232 225.039 146.528 224.786 146.641C223.132 147.377 221.382 147.75 219.583 147.75Z" fill="#414042"/>
<path fill-rule="evenodd" clip-rule="evenodd" d="M229.583 147.75C227.784 147.75 226.034 147.377 224.38 146.641C224.127 146.528 224.014 146.232 224.126 145.98C224.238 145.728 224.537 145.615 224.786 145.727C226.312 146.405 227.926 146.75 229.583 146.75C229.859 146.75 230.083 146.974 230.083 147.25C230.083 147.526 229.859 147.75 229.583 147.75Z" fill="#414042"/>
<path fill-rule="evenodd" clip-rule="evenodd" d="M49.957 169.304C49.681 169.304 49.457 169.08 49.457 168.804C49.457 168.528 49.681 168.304 49.957 168.304C51.613 168.304 53.227 167.959 54.754 167.28C55.003 167.168 55.302 167.281 55.414 167.533C55.526 167.785 55.413 168.081 55.16 168.194C53.505 168.93 51.754 169.304 49.957 169.304Z" fill="#414042"/>
<path fill-rule="evenodd" clip-rule="evenodd" d="M59.9573 169.304C58.1603 169.304 56.4093 168.93 54.7543 168.194C54.5013 168.081 54.3883 167.785 54.5003 167.533C54.6123 167.281 54.9123 167.168 55.1603 167.28C56.6873 167.959 58.3013 168.304 59.9573 168.304C60.2333 168.304 60.4573 168.528 60.4573 168.804C60.4573 169.08 60.2333 169.304 59.9573 169.304Z" fill="#414042"/>
<path fill-rule="evenodd" clip-rule="evenodd" d="M222.813 169.564C222.537 169.564 222.313 169.34 222.313 169.064C222.313 168.788 222.537 168.564 222.813 168.564C224.469 168.564 226.083 168.219 227.61 167.54C227.858 167.429 228.158 167.541 228.27 167.793C228.382 168.045 228.269 168.341 228.016 168.454C226.361 169.19 224.61 169.564 222.813 169.564Z" fill="#414042"/>
<path fill-rule="evenodd" clip-rule="evenodd" d="M232.814 169.564C231.017 169.564 229.266 169.19 227.611 168.454C227.358 168.341 227.245 168.045 227.357 167.793C227.47 167.541 227.768 167.429 228.017 167.54C229.544 168.219 231.158 168.564 232.814 168.564C233.09 168.564 233.314 168.788 233.314 169.064C233.314 169.34 233.09 169.564 232.814 169.564Z" fill="#414042"/>
<path fill-rule="evenodd" clip-rule="evenodd" d="M199.479 159.854C199.203 159.854 198.979 159.63 198.979 159.354C198.979 159.078 199.203 158.854 199.479 158.854C201.136 158.854 202.75 158.509 204.276 157.831C204.524 157.718 204.824 157.832 204.936 158.084C205.048 158.336 204.935 158.632 204.682 158.745C203.028 159.481 201.278 159.854 199.479 159.854Z" fill="#414042"/>
<path fill-rule="evenodd" clip-rule="evenodd" d="M209.479 159.854C207.68 159.854 205.93 159.481 204.276 158.745C204.023 158.632 203.91 158.336 204.022 158.084C204.135 157.832 204.433 157.718 204.682 157.831C206.208 158.509 207.822 158.854 209.479 158.854C209.755 158.854 209.979 159.078 209.979 159.354C209.979 159.63 209.755 159.854 209.479 159.854Z" fill="#414042"/>
<path fill-rule="evenodd" clip-rule="evenodd" d="M72.3535 139.976C72.0775 139.976 71.8535 139.752 71.8535 139.476C71.8535 139.2 72.0775 138.976 72.3535 138.976C74.0105 138.976 75.6245 138.631 77.1505 137.953C77.3985 137.841 77.6985 137.954 77.8105 138.206C77.9225 138.458 77.8095 138.754 77.5565 138.867C75.9025 139.603 74.1525 139.976 72.3535 139.976Z" fill="#414042"/>
<path fill-rule="evenodd" clip-rule="evenodd" d="M82.3537 139.976C80.5547 139.976 78.8047 139.603 77.1507 138.867C76.8977 138.754 76.7847 138.458 76.8967 138.206C77.0097 137.954 77.3077 137.841 77.5567 137.953C79.0827 138.631 80.6967 138.976 82.3537 138.976C82.6297 138.976 82.8537 139.2 82.8537 139.476C82.8537 139.752 82.6297 139.976 82.3537 139.976Z" fill="#414042"/>
<path fill-rule="evenodd" clip-rule="evenodd" d="M115.89 37.4297C115.681 37.4297 115.486 37.2977 115.415 37.0877L112.645 28.8027L109.875 37.0877C109.787 37.3517 109.505 37.4927 109.243 37.4047C108.98 37.3167 108.839 37.0337 108.926 36.7717L112.17 27.0687C112.307 26.6597 112.983 26.6597 113.119 27.0687L116.365 36.7717C116.452 37.0337 116.311 37.3167 116.048 37.4047C115.996 37.4217 115.943 37.4297 115.89 37.4297Z" fill="#414042"/>
<path fill-rule="evenodd" clip-rule="evenodd" d="M114.682 33.8184H110.608C110.331 33.8184 110.108 33.5944 110.108 33.3184C110.108 33.0424 110.331 32.8184 110.608 32.8184H114.682C114.958 32.8184 115.182 33.0424 115.182 33.3184C115.182 33.5944 114.958 33.8184 114.682 33.8184Z" fill="#414042"/>
<path fill-rule="evenodd" clip-rule="evenodd" d="M106.91 23.5137C102.187 23.5137 98.3457 27.3557 98.3457 32.0777C98.3457 36.8007 102.187 40.6427 106.91 40.6427H124.164V34.1867C124.164 34.0197 124.248 33.8637 124.387 33.7707C124.527 33.6767 124.703 33.6597 124.857 33.7257L128.38 35.1997V28.9567L124.857 30.4317C124.703 30.4967 124.527 30.4807 124.387 30.3867C124.248 30.2937 124.164 30.1377 124.164 29.9707V23.5137H106.91ZM124.664 41.6427H106.91C101.637 41.6427 97.3457 37.3517 97.3457 32.0777C97.3457 26.8047 101.637 22.5137 106.91 22.5137H124.664C124.94 22.5137 125.164 22.7377 125.164 23.0137V29.2197L128.686 27.7447C128.842 27.6797 129.016 27.6967 129.157 27.7897C129.296 27.8827 129.38 28.0387 129.38 28.2057V35.9507C129.38 36.1177 129.296 36.2737 129.157 36.3667C129.016 36.4597 128.842 36.4767 128.686 36.4107L125.164 34.9377V41.1427C125.164 41.4187 124.94 41.6427 124.664 41.6427Z" fill="#414042"/>
<path fill-rule="evenodd" clip-rule="evenodd" d="M154.129 46.5137C154.02 46.5137 153.91 46.4777 153.82 46.4077L147.733 41.6427H124.664C124.388 41.6427 124.164 41.4187 124.164 41.1427C124.164 40.8667 124.388 40.6427 124.664 40.6427H147.905C148.017 40.6427 148.125 40.6797 148.214 40.7487L153.629 44.9877V32.0777C153.629 27.3557 149.787 23.5137 145.065 23.5137H124.664C124.388 23.5137 124.164 23.2897 124.164 23.0137C124.164 22.7377 124.388 22.5137 124.664 22.5137H145.065C150.338 22.5137 154.629 26.8047 154.629 32.0777V46.0137C154.629 46.2047 154.52 46.3797 154.348 46.4627C154.278 46.4967 154.203 46.5137 154.129 46.5137Z" fill="#414042"/>
<path fill-rule="evenodd" clip-rule="evenodd" d="M144.15 29.4912H136.873C136.596 29.4912 136.373 29.2672 136.373 28.9912C136.373 28.7152 136.596 28.4912 136.873 28.4912H144.15C144.426 28.4912 144.65 28.7152 144.65 28.9912C144.65 29.2672 144.426 29.4912 144.15 29.4912Z" fill="#414042"/>
<path fill-rule="evenodd" clip-rule="evenodd" d="M144.151 37.4297C144.089 37.4297 144.025 37.4177 143.964 37.3937C137.896 34.9367 138.136 29.0247 138.139 28.9647C138.153 28.6897 138.389 28.4887 138.664 28.4917C138.939 28.5057 139.151 28.7417 139.137 29.0167C139.128 29.2307 138.947 34.2827 144.338 36.4657C144.594 36.5707 144.718 36.8617 144.615 37.1177C144.536 37.3117 144.348 37.4297 144.151 37.4297Z" fill="#414042"/>
<path fill-rule="evenodd" clip-rule="evenodd" d="M136.873 37.4297C136.676 37.4297 136.488 37.3117 136.409 37.1177C136.306 36.8617 136.43 36.5707 136.686 36.4657C142.078 34.2827 141.897 29.2307 141.888 29.0167C141.874 28.7417 142.086 28.5057 142.361 28.4917C142.628 28.4897 142.872 28.6897 142.886 28.9647C142.889 29.0247 143.129 34.9367 137.06 37.3937C136.999 37.4177 136.935 37.4297 136.873 37.4297Z" fill="#414042"/>
<path fill-rule="evenodd" clip-rule="evenodd" d="M140.512 29.4913C140.236 29.4913 140.012 29.2673 140.012 28.9913V27.2263C140.012 26.9503 140.236 26.7263 140.512 26.7263C140.788 26.7263 141.012 26.9503 141.012 27.2263V28.9913C141.012 29.2673 140.788 29.4913 140.512 29.4913Z" fill="#414042"/>
<path fill-rule="evenodd" clip-rule="evenodd" d="M149.354 163.314C132.405 163.314 118.615 149.525 118.615 132.576V99.6404C118.615 99.3644 118.838 99.1404 119.115 99.1404C119.391 99.1404 119.615 99.3644 119.615 99.6404V132.576C119.615 148.973 132.956 162.314 149.354 162.314C165.752 162.314 179.093 148.973 179.093 132.576V119.943C179.093 119.667 179.317 119.443 179.593 119.443C179.87 119.443 180.093 119.667 180.093 119.943V132.576C180.093 149.525 166.303 163.314 149.354 163.314Z" fill="#414042"/>
<path fill-rule="evenodd" clip-rule="evenodd" d="M179.595 117.789C179.582 117.789 179.571 117.789 179.559 117.788L133.025 114.487C132.749 114.468 132.541 114.228 132.561 113.953C132.58 113.677 132.854 113.464 133.095 113.489L179.629 116.79C179.905 116.81 180.113 117.049 180.093 117.324C180.074 117.588 179.855 117.789 179.595 117.789Z" fill="#414042"/>
</svg>
