<svg xmlns="http://www.w3.org/2000/svg" id="flag-icon-css-kr" viewBox="0 0 512 512">
  <defs>
    <clipPath id="a">
      <path fill-opacity=".7" d="M0 0h512v512H0z"/>
    </clipPath>
  </defs>
  <g mask="url(#mask0)">
    <path d="M512 512H0V0H512V512Z" fill="white"/>
    <path d="M260.201 256C260.201 300.551 224.086 336.667 179.535 336.667C134.984 336.667 98.868 300.551 98.868 256C98.868 211.449 134.984 175.333 179.535 175.333C224.086 175.333 260.201 211.449 260.201 256V256Z" fill="white"/>
    <path d="M360.999 260.622C361.992 298.857 342.36 334.625 309.725 354.038C277.089 373.451 236.591 373.451 203.956 354.038C171.321 334.625 151.688 298.857 152.682 260.622C151.688 222.387 171.321 186.619 203.956 167.206C236.591 147.793 277.089 147.793 309.725 167.206C342.36 186.619 361.992 222.387 360.999 260.622V260.622Z" fill="#C70000"/>
    <path fill-rule="evenodd" clip-rule="evenodd" d="M104.355 93.8264L44.25 162.917L58.4853 175.206L118.662 106.044L104.355 93.8264ZM124.055 110.759L63.95 179.849L78.1853 192.138L138.362 122.905L124.055 110.759Z" fill="black"/>
    <path d="M44.25 163.025L103.977 93.8264L118.194 106.063L58.3959 175.333L44.25 163.025Z" fill="black"/>
    <path fill-rule="evenodd" clip-rule="evenodd" d="M103.931 93.8264L44.25 163.129L58.3851 175.456L118.138 106.082L103.931 93.8264ZM143.482 128.085L83.8003 197.531L97.9354 209.786L157.688 140.412L143.482 128.085Z" fill="black"/>
    <path d="M44.25 163.025L103.977 93.8264L118.194 106.063L58.3959 175.333L44.25 163.025Z" fill="black"/>
    <path fill-rule="evenodd" clip-rule="evenodd" d="M408.354 93.8247L467.75 163.586L453.438 175.762L394.042 106.001L408.354 93.8247ZM44.25 163.172L104.075 93.9117L118.316 106.159L58.4191 175.491L44.25 163.172ZM427.891 197.608L368.495 127.846L354.182 140.022L413.578 209.784L427.891 197.608Z" fill="black"/>
    <path d="M378.825 167.743L435.311 119.035L445.903 131.248L385.381 185.417L378.681 167.743H378.825Z" fill="white"/>
    <path fill-rule="evenodd" clip-rule="evenodd" d="M448.668 180.427L389.351 110.634L375.2 122.744L434.446 192.608L448.668 180.427ZM390.781 407.795L448.24 339.148L434.161 327.397L376.702 396.043L390.781 407.795ZM467.75 355.41L410.219 424.056L396.069 412.304L453.599 343.658L467.75 355.41ZM370.912 391.237L428.372 322.591L414.293 310.839L356.833 379.486L370.912 391.237Z" fill="black"/>
    <path d="M154.853 242.483C158.149 268.987 162.949 298.499 203.712 301.507C218.972 302.438 248.702 297.926 258.875 256.236C272.344 216.266 312.606 204.805 340.044 226.438C355.733 236.61 360.032 252.727 361.035 264.904C359.817 303.585 337.465 337.251 308.88 352.294C275.926 371.849 230.362 372.279 190.459 342.623C172.477 325.79 147.331 294.631 154.853 242.483Z" fill="#3D5897"/>
    <path d="M391.924 338.347L448.424 386.69L437.929 398.847L375.319 347.501L391.852 338.347H391.924Z" fill="white"/>
    <path d="M77.9346 328.264L137.521 397.648L123.163 409.771L63.5764 340.387L77.9346 328.264Z" fill="black"/>
    <path d="M67.7778 385.395L124.409 336.667L135 348.867L74.4784 403.049L67.7778 385.323V385.395Z" fill="white"/>
    <path fill-rule="evenodd" clip-rule="evenodd" d="M157.688 381.191L98.36 311.458L84.0641 323.642L143.392 393.375L157.688 381.191ZM117.874 415.232L58.5458 345.499L44.25 357.683L103.578 427.415L117.874 415.232Z" fill="black"/>
  </g>
</svg>
