<?xml version="1.0" encoding="utf-8"?>
<!-- Generator: Adobe Illustrator 21.0.0, SVG Export Plug-In . SVG Version: 6.00 Build 0)  -->
<svg version="1.1" id="Layer_1" xmlns="http://www.w3.org/2000/svg" xmlns:xlink="http://www.w3.org/1999/xlink" x="0px" y="0px"
	 viewBox="0 0 2002.4 549" style="enable-background:new 0 0 2002.4 549;" xml:space="preserve">
<style type="text/css">
	.st0{fill:#B2B2B2;}
</style>
<g>
	<path class="st0" d="M1502.9,305.1l-2.1-3.8l-1.2-2.2l0,0l85.7-145.3l2.8-4.8l1-1.6h-53.9l0,0l-3.1,5.2l1.2-2l-1.2,2l-51.9,86
		l-24.3,40.3c-1.3,2.2-2.4,4.2-3.4,6c-0.1,0.2-0.2,0.4-0.4,0.6c-0.4,0.7-0.7,1.3-1,1.9c-0.1,0.3-0.3,0.5-0.4,0.8
		c-0.2,0.4-0.4,0.7-0.5,1.2c-0.1,0.1-0.1,0.2-0.2,0.3c-0.1,0.3-0.2,0.6-0.4,0.8c-0.2,0.4-0.4,0.9-0.6,1.3c-0.1,0.2-0.2,0.5-0.3,0.8
		c-0.1,0.4-0.3,0.8-0.4,1.2c-0.1,0.2-0.1,0.5-0.2,0.7c-0.1,0.4-0.2,0.7-0.2,1.1c0,0.2-0.1,0.5-0.1,0.7c-0.1,0.4-0.1,0.7-0.1,1.1
		c0,0.2-0.1,0.4,0,0.6c0,0.4,0,0.7,0,1.1c0,0.2,0,0.4,0,0.6c0.1,0.4,0.1,0.8,0.2,1.2c0,0.1,0,0.3,0.1,0.5c0.1,0.5,0.3,1,0.4,1.5
		l0.1,0.2c0.7,2.3,2,4.9,3.8,8.1c0.1,0.2,0.2,0.3,0.3,0.5c0.5,0.9,1,1.8,1.6,2.8l90,156.9h52.1L1502.9,305.1L1502.9,305.1z
		 M1394.8,8.9v462.5h47.4V8.9H1394.8z"/>
</g>
<path class="st0" d="M1992.9,150c-3.3-1.4-6.7-2.6-10.2-3.7c-1-0.3-2-0.6-3-0.8h-0.2c-0.9-0.2-1.7-0.5-2.6-0.7l-0.3-0.1
	c-0.8-0.2-1.6-0.4-2.4-0.5c-6.8-1.3-13.7-2-20.7-2h-0.1c-1.7,0-3.3,0.1-5,0.1c-0.5,0-0.9,0.1-1.4,0.1c-1.2,0.1-2.3,0.1-3.5,0.3
	c-0.6,0-1.2,0.1-1.8,0.2c-1,0.1-2,0.2-3,0.4c-0.6,0.1-1.2,0.2-1.8,0.3c-1,0.2-2,0.4-3,0.5c-0.4,0.1-0.8,0.1-1.2,0.2
	c-0.2,0-0.3,0.1-0.5,0.1c-1.1,0.2-2.3,0.5-3.4,0.8c-0.4,0.1-0.8,0.2-1.2,0.3c-1.5,0.4-2.9,0.8-4.4,1.3l-0.2,0.1
	c-0.1,0-0.3,0.1-0.4,0.2c-2,0.7-4,1.4-6,2.2c-0.2,0.1-0.4,0.2-0.7,0.3c-2,0.8-3.9,1.7-5.8,2.7c-0.2,0.1-0.4,0.2-0.6,0.3
	s-0.3,0.2-0.5,0.3c-1.3,0.7-2.6,1.4-3.9,2.1h-0.1l-0.5,0.3c-1.3,0.7-2.5,1.5-3.8,2.3c-0.3,0.2-0.6,0.4-0.9,0.6
	c-0.1,0.1-0.3,0.2-0.4,0.3c-0.9,0.6-1.8,1.3-2.7,1.9c-0.2,0.2-0.4,0.3-0.6,0.5c-0.2,0.1-0.4,0.3-0.7,0.5c-1.2,0.9-2.3,1.8-3.4,2.7
	l0,0c-0.2,0.2-0.4,0.3-0.6,0.5l0,0c-1.1,0.9-2.2,1.9-3.2,2.8c-0.4,0.4-0.8,0.8-1.2,1.1c-0.8,0.7-1.5,1.5-2.3,2.3l-0.5,0.6l-0.6,0.6
	c-0.3,0.3-0.7,0.7-1,1c-0.7,0.7-1.3,1.4-1.9,2.1l0,0c-0.2,0.2-0.3,0.4-0.5,0.6l0,0c-0.9,1.1-1.8,2.2-2.7,3.3l-1,1.3
	c-0.5,0.7-1,1.3-1.5,2c-0.2,0.2-0.3,0.4-0.4,0.6c-0.2,0.2-0.3,0.4-0.5,0.7c-0.1,0.2-0.3,0.4-0.4,0.7c-0.8,1.2-1.6,2.4-2.4,3.6l0,0
	c-0.1,0.2-0.2,0.4-0.3,0.6c-0.5,0.8-0.9,1.6-1.3,2.3c-0.3,0.5-0.6,0.9-0.8,1.4c-0.1,0.1-0.1,0.2-0.2,0.3c-0.2,0.4-0.4,0.7-0.6,1.1
	l-1.5,2.9l0,0c-0.1,0.3-0.3,0.6-0.4,0.9c-0.1,0.2-0.2,0.4-0.2,0.5c-0.4,0.7-0.7,1.5-1,2.3c-0.3,0.6-0.6,1.2-0.8,1.8
	c0,0.1,0,0.1-0.1,0.2c0,0.1-0.1,0.2-0.1,0.3c-0.2,0.4-0.3,0.8-0.4,1.2c-0.4,1-0.8,1.9-1.1,2.9c-0.2,0.5-0.3,1-0.5,1.4
	c-0.4,1.1-0.7,2.1-1.1,3.2c-0.1,0.2-0.1,0.5-0.2,0.7l-0.2,0.7c-0.4,1.5-0.8,3-1.2,4.6l0,0l0,0v0.1c-0.6,2.3-1,4.7-1.4,7.1
	c0,0.1,0,0.1-0.1,0.2c-0.1,0.9-0.3,1.8-0.4,2.7l-0.2,1.5c0,0.2,0,0.5-0.1,0.7c-0.2,1.6-0.3,3.2-0.4,4.7c0,0.1,0,0.2,0,0.3
	s0,0.1,0,0.2c-0.1,1.4-0.1,2.9-0.1,4.4c0,0.5,0,1.1,0,1.6v231h47.4v-231c0-13.3,6-27.2,15.5-37.1c0.8-0.8,1.6-1.7,2.5-2.5
	c0.8-0.7,1.6-1.4,2.4-2c5.5-4.5,11.9-7.7,18.9-8.8c1.9-0.3,3.8-0.5,5.8-0.5l51.5,1.2c0.4-7.7,0.8-16,1.3-25.3c0-0.7,0.1-1.3,0.1-2
	v-0.5c0.1-1.4,0.1-2.7,0.2-4.2c0-0.1,0-0.2,0-0.3v-0.3c0.1-1.4,0.1-2.7,0.2-4.1C1998.8,152.5,1995.8,151.2,1992.9,150L1992.9,150z
	 M1799.7,231.5c0-0.2,0-0.3,0-0.5c-0.1-1.4-0.2-2.7-0.3-4v-0.1c0-0.2-0.1-0.4-0.1-0.6c-0.1-0.8-0.2-1.5-0.3-2.3
	c-0.1-0.5-0.1-1-0.2-1.4l0,0c-0.1-0.4-0.1-0.9-0.2-1.3c-0.2-1-0.4-2.1-0.6-3.1c-0.1-0.5-0.2-0.9-0.3-1.4c-0.2-0.8-0.4-1.6-0.6-2.4
	c0-0.1-0.1-0.3-0.1-0.4l0,0c-0.1-0.5-0.2-0.9-0.3-1.4c-0.1-0.6-0.3-1.2-0.5-1.7c-0.1-0.4-0.2-0.9-0.4-1.3c-0.1-0.4-0.2-0.7-0.3-1.1
	c-0.1-0.2-0.1-0.3-0.1-0.5c-0.4-1.2-0.8-2.4-1.2-3.5c-0.1-0.3-0.2-0.6-0.3-0.8c-0.4-1-0.8-2.1-1.2-3.1c-0.2-0.5-0.4-1-0.6-1.4
	c-0.2-0.5-0.5-1.1-0.7-1.6c-0.1-0.2-0.1-0.4-0.2-0.6c-0.8-1.7-1.6-3.4-2.6-5.1c-0.1-0.2-0.3-0.5-0.4-0.7c-0.8-1.5-1.6-2.9-2.5-4.4
	c-0.3-0.5-0.6-0.9-0.9-1.4c-0.8-1.3-1.7-2.5-2.6-3.7c-0.2-0.4-0.5-0.7-0.7-1.1c-1.1-1.5-2.3-3-3.5-4.5c-0.3-0.4-0.7-0.8-1-1.2
	c-1.1-1.3-2.2-2.6-3.4-3.8c-0.1-0.1-0.1-0.2-0.2-0.2c-0.1-0.1-0.2-0.2-0.3-0.3c-1.2-1.2-2.5-2.4-3.8-3.6l-0.4-0.4
	c-0.3-0.3-0.6-0.6-1-0.8l-0.1-0.1c-1.2-1.1-2.5-2.1-3.8-3.1c-0.3-0.2-0.5-0.4-0.8-0.6l0,0c-1.5-1.2-3.1-2.3-4.7-3.3
	c-0.3-0.2-0.7-0.4-1-0.7l-0.1-0.1c-1.4-0.9-2.7-1.7-4.1-2.5c-0.2-0.2-0.5-0.3-0.7-0.4c-0.1-0.1-0.2-0.1-0.4-0.2
	c-1.7-0.9-3.4-1.8-5.1-2.7l-0.4-0.2c-1.4-0.6-2.7-1.2-4.1-1.8c-0.3-0.1-0.7-0.3-1-0.4c-0.4-0.2-0.9-0.4-1.3-0.5
	c-1.8-0.7-3.7-1.4-5.5-1.9c-0.3-0.1-0.7-0.2-1-0.3c-1.6-0.5-3.2-0.9-4.8-1.3c-0.5-0.1-1-0.2-1.5-0.4c-1.9-0.4-3.9-0.8-5.8-1.1
	c-0.2,0-0.4-0.1-0.7-0.1c-1.8-0.3-3.6-0.5-5.4-0.6l-1.6-0.1h-0.3c-1.8-0.1-3.6-0.2-5.5-0.2h-0.4c-1.3,0-2.5,0-3.8,0.1
	c-0.9,0-1.8,0.1-2.6,0.2c-1,0.1-2,0.1-3,0.2c-0.6,0.1-1.1,0.1-1.7,0.2c-0.7,0.1-1.4,0.2-2.1,0.3c-0.3,0-0.6,0.1-0.8,0.1l0,0
	c-0.6,0.1-1.2,0.2-1.9,0.3c-0.6,0.1-1.3,0.2-1.9,0.3l-0.7,0.1l-1.9,0.4c-0.8,0.2-1.7,0.4-2.5,0.6c-0.7,0.2-1.3,0.4-2,0.5
	c-0.8,0.2-1.6,0.4-2.4,0.7c-0.6,0.2-1.3,0.4-1.9,0.6h-0.1c-0.2,0.1-0.4,0.2-0.7,0.2c-0.6,0.2-1.1,0.4-1.6,0.6
	c-0.6,0.2-1.3,0.5-1.9,0.7c-0.8,0.3-1.5,0.6-2.3,0.9c-0.6,0.3-1.3,0.6-1.9,0.8l-1.6,0.7c-0.2,0.1-0.4,0.2-0.6,0.3
	c-0.6,0.3-1.2,0.6-1.8,0.9c-0.7,0.4-1.5,0.7-2.2,1.1c-0.6,0.3-1.2,0.6-1.8,1c-0.7,0.4-1.4,0.8-2.1,1.2c-0.6,0.3-1.2,0.7-1.7,1.1
	c-0.7,0.4-1.3,0.9-2,1.3c-0.6,0.4-1.1,0.7-1.7,1.1l-0.2,0.2l-1.7,1.2c-0.5,0.4-1,0.8-1.6,1.2c-0.6,0.5-1.3,1-1.9,1.5l-1.5,1.3
	c-0.6,0.5-1.2,1-1.8,1.6c-0.5,0.4-1,0.9-1.4,1.3c-0.6,0.6-1.2,1.1-1.8,1.7l0,0c-0.5,0.4-0.9,0.9-1.4,1.4l-0.4,0.4
	c-0.5,0.4-0.9,0.9-1.3,1.4l0,0c-0.4,0.5-0.8,0.9-1.3,1.4l0,0c-0.6,0.6-1.1,1.3-1.6,1.9l0,0c-0.4,0.5-0.8,0.9-1.2,1.4l0,0l-0.6,0.8
	c-0.3,0.4-0.6,0.8-0.9,1.1c0,0-0.1,0-0.1,0.1c-0.4,0.5-0.7,1-1.1,1.5l0,0c-0.1,0.2-0.3,0.4-0.4,0.6c-0.3,0.5-0.7,0.9-1,1.4
	c0,0,0,0.1-0.1,0.1c-0.3,0.5-0.7,1-1,1.5l0,0l-0.5,0.8c-0.3,0.4-0.6,0.9-0.8,1.3l-0.1,0.1c-0.3,0.5-0.6,1-0.9,1.5l0,0
	c-0.3,0.5-0.5,0.9-0.8,1.4c-0.1,0.3-0.3,0.5-0.5,0.8c0,0.1-0.1,0.1-0.1,0.2c-0.3,0.5-0.5,1-0.8,1.4l0,0c-0.2,0.4-0.3,0.7-0.5,1
	l-0.6,1.2c-0.1,0.1-0.1,0.2-0.1,0.3l-0.7,1.4l0,0c-0.3,0.7-0.7,1.5-1,2.2c0,0.1-0.1,0.1-0.1,0.1v0.1c-0.1,0.1-0.1,0.2-0.1,0.3
	c-0.2,0.4-0.4,0.8-0.6,1.3c0,0,0,0,0,0.1c-0.3,0.8-0.7,1.7-1,2.5c-0.2,0.6-0.4,1.1-0.6,1.7c-0.3,0.9-0.6,1.9-0.9,2.8
	c-0.2,0.5-0.3,1-0.5,1.5c-0.5,1.6-0.9,3.3-1.3,4.9l0,0l0,0c0,0.1,0,0.2,0,0.3c-0.3,1.2-0.6,2.4-0.8,3.6c-0.1,0.6-0.2,1.2-0.4,1.8
	v0.1c-0.2,0.9-0.3,1.7-0.5,2.6c-0.1,0.7-0.2,1.4-0.3,2.1l0,0v0.1c-0.1,0.8-0.2,1.6-0.3,2.3c-0.1,0.8-0.1,1.5-0.2,2.3
	c-0.1,0.7-0.1,1.4-0.1,2.1c0,0.1,0,0.2,0,0.3c-0.1,1.7-0.2,3.5-0.2,5.2v146.9c0,2.4,0.1,4.8,0.3,7.2c0.1,1.6,0.3,3.2,0.5,4.8
	c0,0.3,0.1,0.6,0.1,0.9c0.2,1.8,0.5,3.7,0.9,5.5l0.3,1.5c0.3,1.5,0.6,3,1,4.4c0.1,0.4,0.2,0.8,0.3,1.2c0.5,1.8,1,3.6,1.6,5.3
	c0.1,0.4,0.3,0.8,0.4,1.3c0.6,1.9,1.3,3.7,2,5.5c0.8,2,1.6,4,2.6,5.9c0.7,1.4,1.4,2.8,2.1,4.2c0.1,0.2,0.2,0.3,0.3,0.5l0.4,0.8
	c0.6,1.1,1.3,2.2,1.9,3.3c1.1,1.8,2.2,3.5,3.4,5.2c0.2,0.3,0.4,0.6,0.7,0.9c0.7,1,1.5,2.1,2.3,3.1l1,1.3c0.7,0.9,1.5,1.8,2.3,2.7
	l1,1.1c1,1.1,2.1,2.2,3.1,3.3c0.1,0.1,0.2,0.2,0.2,0.3c1.2,1.2,2.4,2.3,3.7,3.4c0.3,0.3,0.6,0.5,1,0.8c0.9,0.8,1.9,1.6,2.9,2.4
	c0.4,0.3,0.8,0.6,1.2,0.9c1,0.8,2.1,1.5,3.2,2.2c0.3,0.2,0.6,0.4,0.9,0.6c1.4,0.9,2.9,1.8,4.3,2.6l0.2,0.1c1.7,1,3.5,1.9,5.3,2.7
	c1.2,0.6,2.4,1,3.6,1.6l1.2,0.4c1.5,0.6,3,1.1,4.5,1.6l0.4,0.1c1.9,0.6,3.9,1.1,5.9,1.5c1.9,0.4,3.8,0.8,5.7,1
	c1.4,0.2,2.9,0.4,4.4,0.5l1,0.1c1.8,0.1,3.7,0.2,5.6,0.2c4.8,0,9.7-0.4,14.8-1.3l56.8-8.9c-0.1-1.2-0.3-2.4-0.4-3.6
	c-0.1-0.7-0.1-1.4-0.2-2.1c0-0.5-0.1-1-0.1-1.5c-0.1-0.8-0.1-1.6-0.2-2.4c-0.1-1.3-0.2-2.6-0.3-3.9l-0.1-1.2c-0.1-1-0.1-1.9-0.2-2.9
	c0-0.3,0-0.6-0.1-0.9c-0.2-3.9-0.4-7.9-0.6-11.8v-0.1c-0.1-1.6-0.1-3.1-0.2-4.7c0-0.4,0-0.7-0.1-1.2v-0.4H1708
	c-1.7,0-3.4-0.1-5.1-0.3c-1.4-0.1-2.8-0.3-4.2-0.6l0,0c-1.3-0.3-2.6-0.6-3.9-1c-0.1,0-0.1,0-0.1,0c-0.2-0.1-0.4-0.1-0.6-0.2
	c-1.3-0.4-2.6-0.9-3.8-1.4c-0.1,0-0.2-0.1-0.2-0.1c-1.2-0.5-2.3-1-3.5-1.7c-0.2-0.1-0.4-0.2-0.6-0.3c-1.3-0.7-2.6-1.5-3.8-2.3
	c-1-0.7-2-1.5-2.9-2.3l-0.5-0.4c-1-0.9-2-1.8-2.9-2.7c-0.1-0.1-0.3-0.3-0.4-0.4c-0.8-0.9-1.6-1.8-2.4-2.7c-0.1-0.2-0.3-0.3-0.4-0.5
	c-0.8-1-1.6-2.1-2.3-3.2c-0.2-0.2-0.3-0.4-0.4-0.7c-0.3-0.4-0.6-0.8-0.8-1.3l0,0c-0.3-0.5-0.6-1-0.9-1.6c-0.8-1.4-1.5-2.8-2.1-4.3
	c-0.1-0.2-0.2-0.5-0.3-0.8c-0.4-1-0.8-2.1-1.1-3.1c-0.1-0.3-0.2-0.6-0.3-0.9c-0.4-1.3-0.7-2.6-1-3.9c0-0.2-0.1-0.4-0.1-0.6
	c-0.2-1.2-0.4-2.4-0.5-3.6c-0.2-1.8-0.3-3.5-0.3-5.3v-50.3h114.3c6.2,0,12.3-2.4,16.7-6.8c4.3-4.2,7-10.1,7-16.9v-72.7
	C1799.8,234.7,1799.8,233.1,1799.7,231.5L1799.7,231.5z M1753,236.3V286h-91.2v-49.7c0-20.7,13.3-38.3,31.9-44.1
	c5.8-1.8,11.8-2.4,17.8-1.9c0.4,0,0.8,0.1,1.2,0.1c1,0.1,2,0.3,3,0.5c0.4,0.1,0.8,0.2,1.3,0.2c1.2,0.3,2.4,0.6,3.5,0.9
	c0.1,0,0.2,0.1,0.4,0.1c2.6,0.8,5.1,1.9,7.5,3.2l1.1,0.6c1,0.6,1.9,1.1,2.8,1.8c0.2,0.1,0.4,0.2,0.5,0.4c1.1,0.7,2.2,1.6,3.2,2.4
	c0.3,0.2,0.5,0.5,0.8,0.7c0.7,0.6,1.5,1.3,2.2,2c0.3,0.3,0.6,0.6,0.9,0.9c0.7,0.8,1.4,1.5,2.1,2.3c0.2,0.2,0.4,0.4,0.6,0.7
	c1.1,1.3,2,2.7,2.9,4.1c0.5,0.8,1,1.7,1.5,2.5c0.2,0.4,0.4,0.8,0.7,1.2c0.5,0.9,0.9,1.8,1.3,2.7c0.1,0.3,0.3,0.7,0.4,1l0.1,0.3
	c0,0.1,0,0.2,0.1,0.2c0.2,0.6,0.4,1.1,0.6,1.7c0.2,0.7,0.5,1.3,0.7,2c0.2,0.8,0.4,1.6,0.6,2.4c0.2,0.6,0.4,1.3,0.5,1.9
	c0.2,1,0.3,2,0.4,3c0.1,0.5,0.2,1,0.2,1.5C1753,233.2,1753,234.7,1753,236.3L1753,236.3z M1297.8,242.7h1.1l2.3-0.1l3.1-0.1l1.8-0.1
	l4.5-0.1h0.1c5.8-0.1,11.9-0.2,18.5-0.4c1.5,0,3.1-0.1,4.7-0.1h1c2.2-0.1,4.4-0.1,6.7-0.2v-5.9c0-1.1-0.1-2.3-0.1-3.4v-0.7
	c-0.1-0.8-0.1-1.6-0.1-2.4c-0.1-0.8-0.1-1.6-0.2-2.3c-0.1-0.8-0.1-1.5-0.2-2.3c0-0.1,0-0.2,0-0.3c-0.1-0.7-0.2-1.4-0.3-2.1
	c-0.1-0.7-0.2-1.5-0.3-2.2l-0.4-2.4c-0.1-0.7-0.3-1.4-0.5-2.2c-0.1-0.8-0.3-1.5-0.5-2.3c-0.2-0.7-0.4-1.4-0.6-2.1v-0.1
	c-0.2-0.7-0.4-1.4-0.6-2.1c-0.2-0.7-0.4-1.4-0.6-2.1c-0.2-0.6-0.4-1.3-0.7-1.9c0-0.1-0.1-0.1-0.1-0.2l0,0c-0.2-0.7-0.5-1.4-0.8-2.1
	c-0.2-0.6-0.5-1.3-0.8-1.9l-0.1-0.2c-0.3-0.7-0.6-1.4-0.9-2.1c-0.2-0.4-0.4-0.8-0.5-1.1c-0.1-0.2-0.1-0.3-0.2-0.5
	c-0.8-1.8-1.7-3.6-2.6-5.3l0,0l0,0c-0.9-1.7-1.9-3.4-3-5.1c-0.2-0.3-0.4-0.6-0.5-0.8l-0.2-0.3c-1-1.5-2-2.9-3-4.3l-0.4-0.6
	c-1.2-1.6-2.4-3.1-3.7-4.6c-0.3-0.3-0.6-0.7-0.9-1c-1.1-1.3-2.3-2.6-3.5-3.8l-0.3-0.3c-1.5-1.5-3-3-4.6-4.4c-0.3-0.3-0.6-0.5-1-0.8
	c-1.3-1.1-2.6-2.2-3.9-3.2c-0.3-0.2-0.5-0.4-0.7-0.6l-0.1-0.1l0,0c-1.9-1.4-3.7-2.7-5.7-4c-1.4-0.9-2.9-1.8-4.4-2.7
	c-0.3-0.2-0.7-0.4-1-0.6c-1.7-1-3.5-1.9-5.3-2.7l-0.7-0.3c-0.1,0-0.1-0.1-0.2-0.1c-1.2-0.5-2.4-1-3.6-1.5c-0.4-0.2-0.8-0.3-1.1-0.5
	c-0.4-0.2-0.8-0.3-1.3-0.5c-1.9-0.7-3.7-1.4-5.6-1.9h-0.1c-0.2-0.1-0.4-0.1-0.6-0.2c-1.7-0.5-3.4-0.9-5.1-1.3
	c-0.5-0.1-1-0.2-1.4-0.3c-1.9-0.4-3.8-0.8-5.6-1c-0.1,0-0.2,0-0.3-0.1c-0.2,0-0.3,0-0.5-0.1c-0.4-0.1-0.9-0.1-1.3-0.1
	c-1.4-0.2-2.8-0.4-4.3-0.5l0,0l-1.6-0.1c-2.1-0.2-4.1-0.2-6.2-0.2c-0.8,0-1.7,0-2.5,0.1l0,0c-0.7,0-1.4,0-2.1,0h-0.2
	c-0.8,0-1.6,0.1-2.3,0.2h-0.1c-0.7,0-1.5,0.1-2.2,0.2l0,0c-0.8,0.1-1.5,0.2-2.3,0.3h-0.1c-0.7,0.1-1.5,0.2-2.2,0.3
	c-0.5,0.1-1,0.2-1.4,0.3c-0.3,0.1-0.6,0.1-0.9,0.2l-0.3,0.1c-0.6,0.1-1.2,0.2-1.8,0.3l0,0c-0.8,0.2-1.7,0.4-2.5,0.6h-0.1
	c-0.6,0.1-1.2,0.3-1.9,0.4l0,0c-0.7,0.2-1.3,0.4-2,0.6c-0.2,0.1-0.4,0.1-0.6,0.2c-0.6,0.2-1.2,0.3-1.7,0.5l0,0l-0.4,0.1l-1.6,0.5
	c-0.3,0.1-0.6,0.2-0.8,0.3c-0.5,0.2-1,0.3-1.5,0.5l0,0l0,0c-0.2,0.1-0.4,0.1-0.6,0.2c-0.6,0.2-1.1,0.4-1.7,0.7
	c-0.3,0.1-0.5,0.2-0.8,0.3c-0.4,0.1-0.8,0.3-1.1,0.4l0,0h-0.1c-0.8,0.3-1.6,0.7-2.4,1.1c-0.3,0.1-0.6,0.2-0.8,0.4
	c-0.2,0.1-0.5,0.2-0.8,0.4l0,0c-1,0.5-1.9,1-2.9,1.5c-0.2,0.1-0.4,0.2-0.6,0.3c-0.1,0.1-0.3,0.2-0.5,0.3l0,0
	c-0.7,0.4-1.4,0.8-2.1,1.2c-0.1,0-0.1,0-0.1,0.1c-0.5,0.3-1,0.6-1.5,0.9h-0.1l0,0c0,0,0,0-0.1,0c-1.1,0.7-2.2,1.4-3.2,2.1
	c-0.6,0.4-1.2,0.8-1.8,1.3c-0.7,0.5-1.5,1.1-2.3,1.6l-1.3,1c-0.7,0.6-1.5,1.2-2.2,1.7c-0.5,0.4-0.9,0.8-1.4,1.2l-2,1.7
	c-0.4,0.3-0.7,0.7-1.1,1c-0.7,0.7-1.5,1.4-2.2,2.1l-0.8,0.9c-0.7,0.8-1.5,1.6-2.2,2.4c-1.1,1.2-2.2,2.5-3.3,3.8
	c-0.4,0.5-0.7,1-1.1,1.4c-0.7,0.9-1.4,1.8-2.1,2.7c-0.1,0.1-0.2,0.3-0.3,0.4c-0.3,0.4-0.6,0.8-0.8,1.3c-0.8,1.2-1.6,2.4-2.4,3.6
	c-0.2,0.3-0.3,0.5-0.5,0.8c-0.6,0.9-1.1,1.9-1.6,2.8c-0.2,0.3-0.3,0.6-0.5,0.8c-0.1,0.3-0.3,0.5-0.5,0.8c-0.8,1.5-1.6,3.1-2.3,4.7
	c-0.1,0.1-0.1,0.1-0.1,0.2c-0.1,0.4-0.3,0.8-0.5,1.1c-0.5,1.2-1,2.3-1.5,3.5c-0.2,0.5-0.4,1-0.6,1.5c0,0.1,0,0.1,0,0.1
	c-0.5,1.2-0.9,2.4-1.3,3.7c-0.1,0.5-0.3,0.9-0.4,1.4c-0.5,1.6-1,3.1-1.3,4.8c0,0.1-0.1,0.2-0.1,0.4l0,0l0,0
	c-1.8,7.3-2.7,14.9-2.7,22.5v148.1v0.7c0,1.6,0.1,3.2,0.2,4.7c0,0.7,0.1,1.3,0.2,2c0.1,1.2,0.2,2.3,0.3,3.5c0.1,0.7,0.2,1.4,0.3,2.1
	c0.2,1.2,0.4,2.4,0.6,3.6c0.1,0.6,0.2,1.1,0.3,1.7c0.4,1.7,0.7,3.4,1.2,5.1c0.1,0.3,0.2,0.6,0.2,0.9c0.9,3.1,1.9,6.2,3.1,9.3
	c0.2,0.5,0.4,1,0.6,1.6c0.6,1.3,1.1,2.6,1.7,3.9c0.2,0.3,0.3,0.6,0.4,1c0.8,1.6,1.6,3.1,2.4,4.7c0,0.1,0.1,0.2,0.2,0.3
	c0.1,0.1,0.2,0.3,0.3,0.4c0.8,1.3,1.6,2.7,2.4,4c1.1,1.7,2.2,3.4,3.4,5c0.2,0.3,0.4,0.6,0.6,0.8c1.3,1.8,2.8,3.6,4.3,5.3
	c0.9,1,1.8,2.1,2.8,3.1c0.4,0.4,0.8,0.8,1.2,1.2c1.3,1.3,2.6,2.6,3.9,3.8c1.3,1.2,2.7,2.4,4.1,3.5c0.4,0.4,0.9,0.7,1.3,1.1
	c1,0.8,2.1,1.6,3.2,2.4c2.1,1.5,4.3,3,6.6,4.3c1.3,0.8,2.7,1.5,4,2.2c0.5,0.3,1,0.5,1.5,0.8c1.3,0.6,2.5,1.2,3.8,1.8
	c0.4,0.2,0.9,0.4,1.3,0.6c1.7,0.7,3.3,1.4,5.1,2c0.4,0.1,0.8,0.3,1.2,0.4c1.4,0.5,2.7,0.9,4.1,1.3c0.6,0.1,1.1,0.3,1.7,0.4
	c1.5,0.4,3,0.8,4.5,1.1l1,0.2c1.8,0.4,3.7,0.7,5.5,1c0.5,0.1,1,0.1,1.5,0.2c2,0.3,4,0.5,6,0.6c1.9,0.1,3.8,0.2,5.8,0.2
	c1.5,0,3,0,4.5-0.1l1.5-0.1c1-0.1,2-0.1,3-0.2c0.6-0.1,1.1-0.1,1.7-0.2c0.9-0.1,1.8-0.2,2.7-0.3c0.6-0.1,1.2-0.2,1.8-0.3
	c0.8-0.1,1.7-0.3,2.5-0.4l1.9-0.4l2.4-0.5c0.6-0.2,1.2-0.3,1.9-0.5l2.4-0.6c0.6-0.2,1.2-0.4,1.8-0.6c0.8-0.2,1.5-0.5,2.3-0.8
	c0.6-0.2,1.2-0.4,1.8-0.7c0.7-0.3,1.5-0.6,2.2-0.8c0.6-0.2,1.2-0.5,1.8-0.7c0.7-0.3,1.5-0.6,2.2-1l1.7-0.8l2.2-1.1
	c0.6-0.3,1.1-0.6,1.7-0.9c0.7-0.4,1.4-0.8,2.1-1.2l1.6-0.9c0.7-0.4,1.4-0.8,2.1-1.3c0.5-0.3,1-0.7,1.6-1c0.7-0.4,1.3-0.9,2-1.4
	c0.5-0.4,1-0.7,1.5-1.1c0.7-0.5,1.3-1,1.9-1.5c0.5-0.4,1-0.7,1.4-1.1c0.7-0.5,1.3-1,1.9-1.6c0.4-0.4,0.9-0.8,1.3-1.1
	c0.6-0.6,1.3-1.1,1.9-1.7c0.4-0.4,0.8-0.8,1.3-1.2c0.6-0.6,1.2-1.2,1.8-1.8c0.4-0.4,0.8-0.8,1.2-1.2c0.6-0.6,1.2-1.3,1.8-1.9
	c0.4-0.4,0.7-0.8,1.1-1.2c0.6-0.7,1.2-1.4,1.8-2.1c0.3-0.4,0.7-0.8,1-1.2c0.6-0.7,1.2-1.5,1.8-2.3c0.3-0.4,0.5-0.7,0.8-1
	c0.6-0.9,1.2-1.8,1.9-2.7c0.2-0.3,0.4-0.5,0.5-0.8c0.8-1.2,1.5-2.4,2.2-3.6l0,0c1.6-2.7,3.1-5.5,4.4-8.4c0.5-1.1,1-2.2,1.5-3.3
	c0.1-0.4,0.3-0.7,0.4-1.1c0.4-1,0.8-1.9,1.1-2.9l0.5-1.3c0.3-0.9,0.6-1.9,0.9-2.8l0.4-1.5c0.3-0.9,0.5-1.8,0.7-2.7
	c0.1-0.5,0.3-1,0.4-1.6c0.2-0.9,0.4-1.8,0.6-2.7c0.1-0.5,0.2-1.1,0.3-1.7c0.2-0.9,0.3-1.8,0.5-2.7l0.2-1.7c0.1-0.6,0.1-1.2,0.2-1.8
	c0-0.2,0.1-0.5,0.1-0.7c0.1-1.3,0.2-2.7,0.3-4c0-0.3,0.1-0.6,0.1-0.9c0-0.2,0.1-0.4,0.1-0.5c-1.1,0-9.6-0.4-21.4-1.2
	c-3.9-0.3-8.2-0.5-12.6-0.8c-4.1-0.3-8.4-0.6-12.8-0.9c0,1-0.1,2-0.2,3c-0.1,0.5-0.1,1.1-0.1,1.6c-0.4,3.1-1.1,6.1-2.1,9
	c-6.2,17.9-23.6,30.3-43.7,30.3c-1.4,0-2.7-0.1-4.1-0.2l-1-0.1c-1.3-0.1-2.6-0.3-3.9-0.6l-0.3-0.1c-1.2-0.2-2.4-0.5-3.6-0.9
	l-0.8-0.2c0,0,0,0-0.1,0c-1.2-0.4-2.4-0.8-3.6-1.3l-0.4-0.2c-1.1-0.5-2.1-1-3.2-1.5c-0.2-0.1-0.5-0.3-0.8-0.4
	c-1.1-0.6-2.2-1.3-3.3-2c-0.2-0.1-0.3-0.2-0.4-0.3c-1.2-0.8-2.3-1.6-3.3-2.5c-1-0.8-2-1.7-2.9-2.6c-0.1-0.1-0.3-0.3-0.4-0.4
	c-0.8-0.8-1.6-1.7-2.4-2.6c-0.1-0.2-0.3-0.3-0.4-0.5c-0.8-1-1.6-2.1-2.3-3.1c-0.1-0.2-0.2-0.4-0.4-0.5l-0.9-1.3v-0.1
	c-0.3-0.5-0.6-1-0.9-1.6l-0.4-0.6c-0.6-1.2-1.2-2.4-1.7-3.6c-0.1-0.2-0.2-0.4-0.2-0.7c-0.5-1.3-1-2.7-1.4-4.1c-0.4-1.3-0.7-2.7-1-4
	c0-0.1,0-0.3-0.1-0.4c-0.2-1.3-0.4-2.6-0.6-3.9c0-0.3-0.1-0.6-0.1-0.9c-0.1-1.5-0.2-2.9-0.2-4.4v-148c0-13.5,6-26.4,16.4-35.1
	c9.1-7.7,21-11.4,32.9-10.3c0.4,0,0.8,0.1,1.3,0.1c1,0.1,2,0.3,3,0.5c0.4,0.1,0.9,0.2,1.3,0.2c1.2,0.3,2.3,0.5,3.4,0.9
	c0.2,0.1,0.4,0.1,0.6,0.1c4,1.3,7.9,3.1,11.4,5.4c0.2,0.2,0.5,0.3,0.7,0.5c1.1,0.7,2.2,1.5,3.2,2.4c0.2,0.2,0.5,0.4,0.7,0.6
	c1.9,1.6,3.6,3.3,5.2,5.2l0.7,0.8c0.8,1,1.7,2.1,2.4,3.2c0.1,0.2,0.2,0.4,0.4,0.6c0.6,0.9,1.2,1.9,1.8,2.8c0.2,0.4,0.4,0.7,0.6,1.1
	c0.5,0.9,0.9,1.8,1.3,2.7c0.1,0.4,0.3,0.7,0.5,1c0.1,0.2,0.1,0.4,0.2,0.5s0.1,0.2,0.1,0.2c0.2,0.6,0.4,1.1,0.6,1.7
	c0.2,0.6,0.4,1.1,0.6,1.7c0.2,0.8,0.4,1.7,0.6,2.5c0.1,0.6,0.3,1.2,0.4,1.8c0.2,0.9,0.3,1.9,0.4,2.8c0.1,0.5,0.2,1,0.3,1.5
	c0.1,1.5,0.2,3,0.2,4.5v7.1C1295.7,242.8,1296.8,242.7,1297.8,242.7L1297.8,242.7z M1092.7,239.3c0-0.9,0-1.8-0.1-2.7
	c0-0.6-0.1-1.3-0.1-1.9l-0.1-1.8l-0.1-0.9l0,0c-0.1-0.7-0.1-1.4-0.2-2.1l0,0c-0.1-0.8-0.2-1.6-0.3-2.4l0,0c-0.1-0.6-0.2-1.3-0.3-1.9
	c0-0.1,0-0.1,0-0.1c-0.1-0.5-0.1-1-0.2-1.4s-0.1-0.7-0.2-1.1l0,0c-0.1-0.6-0.2-1.1-0.3-1.7l-0.1-0.3c-0.1-0.4-0.1-0.7-0.2-1.1
	c-0.1-0.5-0.2-1-0.3-1.5l0,0c-0.1-0.6-0.3-1.2-0.4-1.9l-0.4-1.3c-0.1-0.4-0.2-0.8-0.3-1.2l0,0l-0.5-1.6c0-0.1,0-0.1-0.1-0.2
	c-0.2-0.5-0.3-1.1-0.5-1.6c-0.1-0.3-0.2-0.6-0.3-0.9l0,0c-0.2-0.6-0.4-1.2-0.6-1.8c0.2,0.4,0.3,0.9,0.4,1.3
	c-0.1-0.4-0.3-0.9-0.4-1.3l-0.9-2.4c-0.2-0.6-0.4-1.2-0.7-1.8c0,0,0,0,0-0.1c-0.3-0.6-0.5-1.3-0.8-1.9c0-0.1-0.1-0.3-0.1-0.4
	c-0.3-0.7-0.6-1.3-0.9-2c-0.1-0.2-0.2-0.5-0.4-0.7l-0.3-0.6c-0.7-1.4-1.4-2.9-2.1-4.3l-0.4-0.8c-0.1-0.1-0.1-0.3-0.2-0.4
	c-0.9-1.7-1.9-3.4-2.9-5.1c-0.1-0.2-0.3-0.5-0.5-0.7c-0.9-1.4-1.8-2.8-2.8-4.2c-0.1-0.2-0.3-0.4-0.4-0.6l-0.5-0.7
	c-1-1.4-2.1-2.8-3.2-4.1c-0.1-0.2-0.3-0.3-0.4-0.5c-1.2-1.5-2.5-2.9-3.9-4.3l0,0c-1.3-1.3-2.6-2.6-3.9-3.9c-0.2-0.1-0.3-0.3-0.5-0.4
	l0,0c-0.4-0.3-0.7-0.7-1.1-1c-1.4-1.3-2.9-2.5-4.4-3.7l0,0l-0.8-0.6c-0.1-0.1-0.2-0.1-0.3-0.2c-1.2-1-2.5-1.9-3.7-2.8
	c-2-1.3-3.9-2.6-6-3.9c-0.1,0-0.2-0.1-0.2-0.1l-0.3-0.2c-3.6-2.1-7.3-3.9-11.1-5.4c-0.1-0.1-0.3-0.1-0.4-0.2
	c-2.2-0.9-4.4-1.7-6.7-2.4c-0.4-0.1-0.9-0.3-1.4-0.4l0,0c-0.5-0.1-1-0.2-1.4-0.4c-1.1-0.3-2.2-0.6-3.4-0.9c-0.1,0-0.2,0-0.2-0.1
	c-0.5-0.1-1-0.2-1.5-0.4c-0.5-0.1-1.1-0.2-1.6-0.3c-1.6-0.3-3.1-0.7-4.7-0.9V144l0,0c-0.1,0-0.2,0-0.4,0c-2.4-0.3-4.8-0.6-7.2-0.8
	c-0.2,0-0.4,0-0.5,0c-0.7,0-1.4-0.1-2.1-0.1c-1.3-0.1-2.5-0.1-3.8-0.2c-0.5,0-0.9,0-1.4,0h-0.9h-1.4c-5.3,0.2-10.5,0.7-15.7,1.5
	l-0.4,0.1c-2.6,0.4-5.2,0.8-7.7,1.3h-0.1l-0.3,0.1c-2.2,0.4-4.4,0.9-6.6,1.4l-1.1,0.2l0,0l-0.4,0.1c-3.6,0.8-7.1,1.7-10.6,2.7
	c-0.1,0-0.1,0-0.2,0.1c-1.6,0.4-3.1,0.9-4.6,1.4c-0.1,0-0.1,0-0.2,0l-0.3,0.1c-1.6,0.5-3.1,1-4.7,1.5c-0.2,0.1-0.4,0.1-0.6,0.2
	c-0.5,0.2-1,0.4-1.6,0.5l-0.7,0.2c-0.3,0.1-0.6,0.2-0.9,0.3c-0.7,0.2-1.3,0.5-2,0.7c0,0.8,0.1,1.6,0.1,2.4v0.3c0,0.4,0,0.7,0.1,1.1
	c0.1,0.8,0.1,1.7,0.1,2.5c0.1,1.8,0.2,3.6,0.3,5.3l0.3,5.2v0.1c0.1,0.8,0.1,1.5,0.1,2.3l0.1,1.2c0,0.3,0,0.6,0,0.9
	c0,0.5,0.1,1,0.1,1.5c0,0.2,0,0.4,0,0.6l0.1,2c0,0.4,0,0.8,0.1,1.2c0,0.4,0,0.8,0,1.2s0,0.7,0.1,1.1l0.1,1.3c0,0.4,0,0.8,0.1,1.2
	l0.1,1.5c0,0.4,0,0.8,0,1.2c0,0.9,0.1,1.8,0.1,2.8l2.9-0.2c0.8,0,1.6-0.1,2.4-0.1c1.3-0.1,2.6-0.2,3.9-0.3l4.8-0.4l2.6-0.2l16.5-1.2
	c0.8,0,1.5-0.1,2.3-0.2l5.5-0.4c1.2-0.1,2.4-0.2,3.7-0.2c1.4-0.1,2.7-0.2,4.1-0.3c1.6-0.1,3.1-0.2,4.6-0.3c1,0,2-0.1,2.9-0.2
	c2.5-0.1,4.9-0.2,7.2-0.3h-0.6c2.4-0.3,4.7-0.4,7.1-0.4c1.6,0,3.1,0.1,4.5,0.2c0.4,0,0.7,0.1,1.1,0.1c1.4,0.1,2.8,0.3,4.2,0.6
	c1.3,0.3,2.6,0.6,3.8,1c0.3,0.1,0.6,0.2,1,0.3c1.2,0.4,2.3,0.8,3.4,1.3c0.1,0,0.1,0,0.1,0.1c1.1,0.5,2.1,1.1,3.1,1.7l0.8,0.5
	c0.9,0.6,1.9,1.2,2.7,1.9l0.1,0.1c0.9,0.7,1.7,1.5,2.5,2.2c0.2,0.2,0.4,0.4,0.6,0.7c0.8,0.8,1.5,1.7,2.3,2.6
	c0.7,0.9,1.3,1.8,1.9,2.7c0.2,0.3,0.3,0.6,0.5,0.8c0.5,0.9,1,1.8,1.5,2.8c0.1,0.1,0.1,0.2,0.2,0.4c0.4,0.8,0.7,1.5,1,2.3v0.1
	c0,0.1,0.1,0.2,0.1,0.4c1.2,3,2,6.3,2.6,9.7c0.1,0.5,0.2,1,0.2,1.5c0.2,1.3,0.3,2.6,0.5,3.9c0,0.5,0.1,1,0.1,1.6
	c0.1,1.8,0.2,3.6,0.2,5.4v37.3c-0.6-0.2-1.2-0.3-1.8-0.5c-0.4-0.1-0.7-0.2-1.1-0.3l-0.6-0.1c-0.2-0.1-0.5-0.1-0.7-0.2l0,0
	c-0.3-0.1-0.6-0.2-0.9-0.2c-0.3-0.1-0.6-0.2-1-0.2c-0.1,0-0.2-0.1-0.3-0.1c-0.3-0.1-0.7-0.1-1-0.2l-0.3-0.1c-0.3-0.1-0.7-0.2-1-0.2
	c-0.3-0.1-0.7-0.1-1-0.2c-0.4-0.1-0.8-0.2-1.2-0.3l0,0c-0.4-0.1-0.7-0.1-1.1-0.2s-0.8-0.1-1.2-0.2l0,0c-0.4-0.1-0.8-0.2-1.3-0.2
	c-0.4-0.1-0.8-0.1-1.1-0.2l-1.4-0.2c-0.3-0.1-0.7-0.1-1-0.2l-0.6-0.1c-0.3-0.1-0.7-0.1-1-0.2c-0.3,0-0.6-0.1-0.9-0.1l0,0h-0.2
	c-0.5-0.1-1-0.1-1.5-0.2l-0.8-0.1l-0.8-0.1c-0.4-0.1-0.8-0.1-1.3-0.1l-0.6-0.1l0,0c-0.8-0.1-1.6-0.1-2.4-0.2c-0.1,0-0.1,0-0.2,0l0,0
	c-1.2-0.1-2.4-0.2-3.7-0.2c-0.5,0-1,0-1.5-0.1h-0.1c-0.8,0-1.7-0.1-2.6-0.1h-0.1c-0.4,0-0.8,0-1.2,0c-1,0-1.9-0.1-2.9-0.1h-0.9h-0.1
	h-0.1h-0.5c-0.2,0-0.4,0-0.6,0c-0.9,0-1.8,0-2.7,0h-0.1c-0.6,0-1.1,0-1.7,0c-1.1,0-2.2,0-3.2,0.1H996c-0.2,0-0.3,0-0.5,0
	c-0.6,0-1.2,0.1-1.8,0.1l0,0l-2.6,0.1l0,0c-0.3,0-0.6,0.1-0.9,0.1c-0.5,0-0.9,0.1-1.4,0.1s-0.9,0.1-1.4,0.1c-0.3,0-0.7,0.1-1,0.1
	l-1.6,0.2l-0.6,0.1c-0.5,0.1-1,0.2-1.6,0.2c-0.3,0-0.6,0.1-0.9,0.1l0,0l-2.2,0.4l0,0c-0.4,0.1-0.8,0.2-1.3,0.3
	c-0.4,0.1-0.8,0.2-1.2,0.2h-0.1c-0.6,0.1-1.3,0.3-1.9,0.4l0,0c-0.6,0.1-1.2,0.3-1.8,0.4c-0.4,0.1-0.7,0.2-1.1,0.3H972
	c-0.8,0.2-1.5,0.4-2.3,0.6c-1.1,0.3-2.1,0.6-3.2,1c-0.6,0.2-1.1,0.4-1.7,0.6h-0.1c-0.8,0.3-1.5,0.5-2.3,0.8l0,0
	c-0.6,0.2-1.2,0.4-1.7,0.7l0,0c-0.7,0.3-1.5,0.6-2.2,0.9l0,0l-1.7,0.7l0,0l0,0l-0.9,0.4l-1.2,0.6h-0.1c-0.5,0.3-1.1,0.5-1.6,0.8l0,0
	l-1,0.6l-1.1,0.6c0,0-0.1,0-0.1,0.1c-0.5,0.3-0.9,0.5-1.4,0.8l0,0l-1.9,1.2c-0.2,0.1-0.4,0.2-0.5,0.3c-0.4,0.2-0.7,0.4-1,0.6l0,0
	c-1.1,0.7-2.2,1.5-3.3,2.2l0,0c-0.3,0.2-0.7,0.5-1,0.7l-0.1,0.1c-0.7,0.5-1.4,1-2.1,1.6l0,0c-0.4,0.3-0.8,0.6-1.2,0.9l-0.1,0.1
	c-0.6,0.5-1.2,1-1.8,1.5c0,0,0,0-0.1,0.1c-0.4,0.3-0.7,0.7-1.1,1c-0.6,0.5-1.2,1.1-1.8,1.7c0,0,0,0-0.1,0.1c-0.4,0.3-0.7,0.7-1,1
	h-0.1l-1.5,1.6c-0.1,0.1-0.1,0.1-0.2,0.2l-0.1,0.1l-0.9,0.9l0,0c-0.7,0.8-1.3,1.5-2,2.3c-0.1,0.1-0.1,0.2-0.2,0.3
	c-0.1,0.2-0.2,0.3-0.4,0.4c-0.8,1-1.6,2.1-2.4,3.1l0,0l-0.4,0.6l-0.1,0.2c-0.1,0.1-0.2,0.3-0.3,0.4c-0.5,0.7-0.9,1.3-1.4,2l0,0
	c-0.2,0.4-0.4,0.7-0.7,1c0,0.1-0.1,0.1-0.1,0.1c-0.4,0.7-0.9,1.4-1.3,2.2v0.1c-0.2,0.4-0.4,0.8-0.7,1.2c0,0,0,0,0,0.1
	c-0.4,0.7-0.8,1.5-1.2,2.3l0,0v0.1c-0.2,0.4-0.4,0.8-0.6,1.2v0.1l-0.1,0.2c-0.4,0.7-0.7,1.5-1,2.2c0,0,0,0.1-0.1,0.1
	c-0.2,0.4-0.3,0.7-0.5,1c-0.5,1-0.9,2.1-1.3,3.1l-0.1,0.1l-0.2,0.4c0,0,0,0,0,0.1c-0.5,1.3-1,2.6-1.4,3.9l0,0
	c-0.1,0.2-0.1,0.4-0.2,0.5l-0.1,0.2c-0.1,0.4-0.2,0.8-0.4,1.2c-0.2,0.6-0.4,1.3-0.6,1.9l0,0c-0.1,0.3-0.2,0.7-0.3,1.1v0.1v0.1
	c-0.1,0.5-0.3,1.1-0.4,1.7l-0.3,1.1l0,0l-0.3,1.4v0.1c-0.1,0.4-0.2,0.9-0.3,1.3l-0.2,1c-0.2,0.9-0.3,1.8-0.4,2.7
	c-0.1,0.7-0.2,1.4-0.3,2.1c-0.1,1-0.3,1.9-0.4,2.9c-0.1,0.7-0.1,1.3-0.2,2c-0.1,1.1-0.2,2.2-0.2,3.3c0,0.5-0.1,1.1-0.1,1.6
	c-0.1,1.7-0.1,3.3-0.1,5v29.1c0,1.8,0.1,3.6,0.2,5.4c0,0.6,0.1,1.1,0.1,1.7c0.1,1.2,0.2,2.5,0.4,3.7l0.2,1.9
	c0.2,1.2,0.4,2.4,0.6,3.7c0.1,0.5,0.2,1.1,0.3,1.6c0.3,1.7,0.7,3.4,1.1,5.1l0.1,0.3c0.4,1.6,0.9,3.2,1.4,4.7
	c0.2,0.5,0.4,1.1,0.6,1.6c0.4,1.1,0.8,2.3,1.2,3.3c0.2,0.6,0.5,1.2,0.7,1.8c0.4,1.1,0.9,2.2,1.4,3.2c0.2,0.5,0.5,1,0.7,1.5
	c0.7,1.5,1.5,3,2.3,4.5c0,0.1,0.1,0.2,0.2,0.3c0,0.1,0.1,0.1,0.1,0.2c0.8,1.5,1.6,2.8,2.5,4.2c0.3,0.5,0.6,1,1,1.5
	c0.7,1.1,1.5,2.2,2.3,3.3c0.3,0.4,0.6,0.9,0.9,1.3c1,1.4,2.2,2.8,3.3,4.2c0.3,0.4,0.6,0.7,0.9,1.1c0.9,1,1.8,2.1,2.8,3.1
	c0.4,0.5,0.8,0.9,1.3,1.3c1,1,2,2,3.1,3c0.3,0.3,0.6,0.6,0.9,0.8c1.7,1.6,3.5,3.1,5.3,4.5c1.1,0.8,2.2,1.6,3.2,2.4
	c0.5,0.3,0.9,0.7,1.4,1c1.5,1,3,2,4.5,3c0.1,0.1,0.2,0.1,0.3,0.1c1.5,0.9,3,1.8,4.6,2.6c0.5,0.3,0.9,0.5,1.4,0.7
	c1.3,0.7,2.6,1.3,3.9,1.9c0.4,0.2,0.8,0.4,1.2,0.6c1.7,0.7,3.4,1.4,5.2,2.1c0.3,0.1,0.6,0.2,0.9,0.3c1.5,0.5,3,1,4.5,1.5
	c0.5,0.1,1,0.3,1.5,0.4c1.6,0.4,3.2,0.8,4.8,1.2c0.2,0.1,0.5,0.1,0.7,0.2c1.9,0.4,3.8,0.7,5.7,1c0.4,0,0.8,0.1,1.2,0.1
	c1.6,0.2,3.2,0.4,4.8,0.5c0.4,0,0.9,0.1,1.4,0.1c20.9,1.4,41.6-4.5,58.6-16.7c11.7-8.3,21.3-19.3,28.1-32c7.2-13.6,11-28.7,11-44.1
	V241C1092.7,240.4,1092.7,239.9,1092.7,239.3L1092.7,239.3z M962,406.1c-0.3-0.5-0.6-1-0.9-1.5c-0.1-0.3-0.3-0.5-0.4-0.8
	c-0.6-1.2-1.2-2.3-1.7-3.5c-0.1-0.3-0.2-0.5-0.3-0.8c-0.4-1-0.8-2-1.1-3.1c-0.1-0.4-0.2-0.7-0.3-1c-0.4-1.3-0.7-2.6-1-3.9
	c-0.1-0.3-0.1-0.5-0.1-0.8c-0.2-1.1-0.4-2.2-0.5-3.3l-0.1-1.3c-0.1-1.3-0.2-2.6-0.2-3.9v-0.3v-34.4c-0.1-12.1,4.7-23.8,13.3-32.3
	c8.6-8.6,20.2-13.3,32.4-13.3h45.6v80c0,5.3-0.9,10.4-2.5,15.1c-5.6,16.6-20.3,29-38.4,30.8c-1.6,0.2-3.1,0.2-4.7,0.2
	c-1.7,0-3.5-0.1-5.2-0.3c-1.3-0.1-2.7-0.3-4-0.6l-0.3-0.1c-1.2-0.3-2.4-0.6-3.6-1c-0.1,0-0.2,0-0.2,0l-0.7-0.2
	c-1.4-0.5-2.8-1-4.2-1.6c-1.1-0.5-2.1-1-3.2-1.6c-0.3-0.1-0.5-0.3-0.8-0.4c-1.1-0.6-2.2-1.3-3.3-2c-0.2-0.1-0.3-0.2-0.5-0.4
	c-0.9-0.6-1.9-1.3-2.7-2.1c-0.2-0.2-0.4-0.4-0.6-0.5c-1-0.8-1.9-1.7-2.8-2.6c-0.2-0.1-0.3-0.4-0.5-0.5c-0.8-0.8-1.5-1.6-2.3-2.5
	c-0.2-0.2-0.3-0.4-0.5-0.6c-0.8-1-1.6-2-2.3-3.1c-0.2-0.2-0.3-0.5-0.5-0.7C962.5,406.8,962.2,406.5,962,406.1L962,406.1L962,406.1z
	 M849.9,239.2c0-1.5-0.1-3-0.1-4.5l0,0c0-0.6-0.1-1.2-0.1-1.7v-0.2c-0.1-1.1-0.2-2.1-0.3-3.2c0,0,0,0,0-0.1c-0.1-0.7-0.1-1.3-0.2-2
	v-0.1c-0.1-1-0.2-2-0.4-3v-0.1V224c-0.1-0.6-0.2-1.2-0.3-1.8v-0.1c-0.2-1-0.4-1.9-0.6-2.9v-0.1c-0.1-0.4-0.2-0.9-0.3-1.3l-0.1-0.7
	l0,0c-0.2-1-0.5-2.1-0.8-3.1v-0.1c-0.1-0.6-0.3-1.1-0.4-1.7l0,0c-0.4-1.5-0.9-3-1.3-4.4v-0.1c-0.1-0.2-0.2-0.5-0.3-0.7l0,0
	c-0.4-1.2-0.8-2.4-1.3-3.5c-0.1-0.2-0.2-0.5-0.3-0.8l0,0c-0.1-0.3-0.2-0.6-0.4-0.9c-0.1-0.2-0.2-0.4-0.3-0.7
	c-0.4-1.1-0.9-2.1-1.3-3.2l-0.4-0.9c-0.9-1.8-1.8-3.6-2.7-5.4c-0.1-0.2-0.2-0.3-0.3-0.5c-0.7-1.3-1.5-2.7-2.3-4
	c-0.2-0.3-0.4-0.7-0.6-1l0,0c-0.1-0.1-0.1-0.2-0.2-0.3c-0.1-0.2-0.3-0.4-0.4-0.7c-0.4-0.6-0.7-1.1-1.1-1.7l-0.4-0.7
	c-0.1-0.2-0.2-0.3-0.3-0.5c-0.2-0.4-0.5-0.7-0.7-1.1c-0.3-0.4-0.6-0.9-0.9-1.3l0,0c-1.1-1.5-2.3-3.1-3.5-4.5l0,0
	c-1.2-1.5-2.4-2.8-3.7-4.2l0,0c-0.2-0.2-0.4-0.4-0.6-0.6l-0.5-0.5l0,0c-1.1-1.1-2.2-2.2-3.3-3.3l0,0c-0.3-0.2-0.5-0.5-0.8-0.8
	c-1.4-1.3-2.8-2.5-4.2-3.7c-0.3-0.3-0.7-0.5-1-0.8c-1.2-1-2.4-1.9-3.7-2.8c-0.4-0.3-0.7-0.5-1.1-0.8c-1.6-1.1-3.1-2.1-4.8-3.1
	c-0.2-0.1-0.3-0.2-0.4-0.3c-1.5-0.9-3-1.7-4.5-2.5c-0.4-0.2-0.8-0.4-1.3-0.6c-1.6-0.8-3.2-1.5-4.9-2.2c-0.1,0-0.2-0.1-0.3-0.1
	c-1.8-0.7-3.6-1.4-5.4-2c-0.2-0.1-0.4-0.1-0.5-0.2c-0.2-0.1-0.4-0.1-0.7-0.2c-1.5-0.5-3.1-0.9-4.7-1.3l-0.6-0.1l-0.5-0.1
	c-1.9-0.5-3.8-0.8-5.7-1.2l-0.8-0.1c-2.1-0.3-4.3-0.6-6.4-0.7h-0.4c-1.4-0.1-2.8-0.2-4.1-0.2c-0.5,0-1,0-1.5,0h-0.4h-0.3
	c-1.4,0-2.9,0-4.4,0.1l0,0h-0.3l0,0H755h-0.3l0,0c-1.5,0-3,0.1-4.4,0.2H750h-0.3h-0.1l0,0c-1.8,0.1-3.6,0.2-5.3,0.3h-0.1l0,0h-0.1
	l-2.8,0.2l2.7-0.2c-0.1,0-0.1,0-0.2,0c-0.5,0-0.9,0.1-1.4,0.1c-1.1,0.1-2.3,0.2-3.4,0.3h-0.1h-0.2c-0.2,0-0.4,0-0.6,0.1l0,0
	l-3.7,0.4c-0.7,0.1-1.3,0.1-2,0.2h-0.1c-0.1,0-0.1,0-0.2,0c-0.7,0.1-1.4,0.2-2.1,0.3c-1.2,0.2-2.4,0.3-3.5,0.5l0,0
	c-0.5,0.1-1,0.2-1.5,0.3c-0.4,0.1-0.7,0.1-1.1,0.2c-1,0.2-2,0.4-2.9,0.6l0,0l0,0c-1.6,0.3-3.2,0.7-4.7,1.1l0,0l-0.3,0.1
	c-0.1,0-0.1,0-0.2,0.1l0,0c-1,0.3-1.9,0.5-2.8,0.8h-0.1V7.7h-47.4v463.7h47.4V194.2h45h0.4c1.3,0,2.5,0.1,3.8,0.2
	c0.5,0,1,0.1,1.5,0.2c0.9,0.1,1.9,0.2,2.8,0.4c1.6,0.3,3.1,0.6,4.6,1.1c0.3,0.1,0.5,0.1,0.8,0.2c1.3,0.4,2.5,0.8,3.7,1.3
	c0.4,0.2,0.8,0.3,1.2,0.5c0.9,0.4,1.7,0.8,2.5,1.2c0.4,0.2,0.8,0.4,1.2,0.6c0.9,0.5,1.7,1,2.6,1.5c0.3,0.2,0.6,0.3,0.8,0.5
	c1.1,0.7,2.1,1.5,3.2,2.3l0.8,0.7c0.8,0.6,1.5,1.3,2.2,1.9l1,1c0.7,0.7,1.3,1.4,2,2.1c0.2,0.3,0.5,0.5,0.7,0.8c0.8,1,1.6,2,2.4,3.1
	l0.5,0.7c0.6,0.9,1.1,1.8,1.6,2.7l0.6,1.2c0.4,0.8,0.8,1.7,1.2,2.6c0.2,0.4,0.4,0.7,0.5,1.1c0.1,0.1,0.1,0.3,0.2,0.4
	c0.2,0.6,0.5,1.2,0.7,1.9c0.2,0.6,0.4,1.2,0.6,1.8c0.3,0.9,0.5,1.8,0.7,2.7c0.1,0.5,0.3,1.1,0.4,1.6c0.2,1.1,0.4,2.2,0.5,3.3
	c0.1,0.4,0.1,0.8,0.2,1.2c0.2,1.5,0.2,3.1,0.2,4.6v231.6h46.2V239.8C849.9,239.6,849.9,239.4,849.9,239.2L849.9,239.2z M609.5,234
	L609.5,234c0-1.3,0-2.6-0.1-3.9v-0.3c0-0.1,0-0.2,0-0.3c0-0.6-0.1-1.2-0.1-1.8l0,0c-0.1-1-0.1-2.1-0.3-3.1l0,0
	c-0.1-0.8-0.2-1.5-0.3-2.3l0,0c-0.1-1-0.3-2-0.4-3c-0.1-0.7-0.2-1.4-0.4-2c0-0.1,0-0.2,0-0.3l0,0c-0.2-1-0.4-1.9-0.5-2.9l-0.4-1.9
	l-0.1-0.4l0,0l-0.3-1.4c-0.1-0.5-0.2-0.9-0.3-1.4l-0.3-1.1c-0.1-0.4-0.2-0.8-0.3-1.1c-0.3-0.9-0.5-1.8-0.8-2.7
	c-0.5-1.6-1.1-3.3-1.7-4.9c-0.3-0.7-0.5-1.4-0.8-2.2c-0.4-0.9-0.7-1.7-1.1-2.6c-0.2-0.5-0.4-1-0.7-1.5l-0.4-0.9
	c-0.2-0.4-0.4-0.8-0.5-1.1c-0.5-1.1-1.1-2.2-1.7-3.3c-0.1-0.2-0.2-0.4-0.3-0.6l0,0c-0.8-1.4-1.5-2.7-2.3-4.1l-0.4-0.6
	c-0.6-1-1.2-1.9-1.9-2.9c-0.2-0.3-0.4-0.7-0.7-1c-0.3-0.5-0.7-1-1.1-1.5c-1.3-1.9-2.7-3.7-4.2-5.5l0,0c-0.2-0.3-0.5-0.6-0.7-0.9
	c-0.7-0.9-1.5-1.7-2.2-2.6l0,0c-0.2-0.2-0.3-0.4-0.5-0.5l-0.2-0.3c-0.3-0.4-0.7-0.7-1-1.1c-0.7-0.7-1.3-1.4-2-2.1l-0.1-0.1
	c-0.1-0.1-0.2-0.2-0.3-0.3c-0.9-0.9-1.8-1.8-2.7-2.6l-0.9-0.8c-0.7-0.6-1.3-1.2-2-1.7l-0.7-0.6l0,0c-0.2-0.2-0.4-0.3-0.6-0.5l0,0
	c-0.8-0.6-1.6-1.3-2.3-1.9c-0.4-0.3-0.7-0.6-1.1-0.8c-0.3-0.2-0.5-0.4-0.8-0.6l0,0c-0.9-0.7-1.9-1.4-2.8-2l0,0l-1-0.7l0,0
	c-1.1-0.8-2.3-1.5-3.5-2.2l0,0c-0.1,0-0.1-0.1-0.2-0.1l0,0c-0.9-0.5-1.8-1.1-2.7-1.6c-0.4-0.2-0.7-0.4-1.1-0.6l0,0
	c-0.3-0.1-0.5-0.3-0.8-0.4c-0.1,0-0.1-0.1-0.2-0.1l-1.6-0.8c-0.5-0.3-0.9-0.5-1.4-0.7l0,0c-0.2-0.1-0.3-0.2-0.5-0.2
	c-0.2-0.1-0.3-0.2-0.5-0.2c-1.1-0.5-2.2-1-3.3-1.5c-0.2-0.1-0.5-0.2-0.7-0.3l-0.2-0.1l-0.2-0.1l0,0c0,0,0,0-0.1,0l0,0l0,0l0,0
	c-1.2-0.5-2.4-1-3.7-1.5l0,0l-1.2-0.4l0,0c-1.1-0.4-2.3-0.8-3.4-1.2l0,0c-0.3-0.1-0.6-0.2-0.9-0.3c-1.3-0.4-2.5-0.8-3.8-1.1
	c-0.2,0-0.3-0.1-0.5-0.1c-0.3-0.1-0.6-0.2-0.9-0.2l0,0c-0.2-0.1-0.5-0.1-0.7-0.2c-0.9-0.2-1.9-0.4-2.8-0.7c-0.2,0-0.4-0.1-0.6-0.1
	l-0.6-0.1l0,0c-2.4-0.5-4.9-0.9-7.3-1.2l0,0c-2.1-0.3-4.3-0.5-6.4-0.6c-0.2,0-0.5-0.1-0.7-0.1h-0.4h-0.1c-0.6,0-1.2,0-1.8-0.1
	c-1,0-1.9-0.1-2.9-0.1s-1.9,0-2.9,0.1l0,0h-0.5c-0.4,0-0.7,0-1.1,0h-0.8c-0.9,0-1.9,0.1-2.8,0.2h-0.1c-0.6,0-1.1,0.1-1.7,0.1H499
	c-1,0.1-2,0.2-3,0.4c-0.7,0.1-1.4,0.2-2.1,0.3c-1,0.2-2,0.3-3,0.5l-1.3,0.2l-0.8,0.1l0,0c-0.7,0.1-1.4,0.3-2.1,0.5l-0.6,0.1
	c-0.7,0.1-1.4,0.3-2.2,0.5c-1,0.3-1.9,0.5-2.9,0.8c-0.1,0-0.1,0-0.2,0.1c-0.6,0.2-1.2,0.3-1.8,0.5l0,0l-0.3,0.1
	c-0.7,0.2-1.5,0.5-2.2,0.7l-0.5,0.2l-2,0.2c0,0-0.1,0-0.2,0l-1.4,0.6l-0.9,0.4l-0.7,0.3c-0.5,0.2-1.1,0.4-1.6,0.6l0,0
	c-0.2,0.1-0.5,0.2-0.7,0.3c-0.6,0.3-1.2,0.5-1.8,0.8c-0.2,0.1-0.4,0.2-0.6,0.2c-0.5,0.2-0.9,0.4-1.4,0.6l0,0
	c-0.8,0.4-1.6,0.8-2.3,1.2c-0.2,0.1-0.5,0.3-0.8,0.4l-1.3,0.7l0,0c-0.5,0.3-1.1,0.6-1.6,0.9c-0.5,0.3-0.9,0.5-1.4,0.8
	c-0.4,0.2-0.8,0.4-1.2,0.7l0,0c-0.4,0.3-0.9,0.6-1.3,0.9h-0.1l-0.3,0.2l-1.4,0.9c-0.3,0.2-0.7,0.4-1,0.6l0,0
	c-0.5,0.4-1.1,0.7-1.6,1.1c-0.5,0.4-1,0.7-1.6,1.1l-0.8,0.6l0,0c-0.1,0.1-0.3,0.2-0.4,0.3c-0.2,0.1-0.3,0.3-0.5,0.4
	c-0.8,0.6-1.5,1.2-2.2,1.8c-0.2,0.2-0.5,0.4-0.7,0.5l0,0l0,0l-0.1,0.1l-0.6,0.5c-0.8,0.7-1.6,1.4-2.4,2.1c-0.2,0.2-0.3,0.3-0.5,0.4
	l0,0l-0.2,0.1c-1,0.9-2,1.9-3,2.9l-0.3,0.3c-0.5,0.5-1,1-1.5,1.5c-0.3,0.3-0.5,0.6-0.8,0.9c-0.3,0.3-0.6,0.6-0.8,0.9
	c-0.1,0.1-0.2,0.2-0.2,0.3c-0.9,1-1.8,2.1-2.7,3.2l0,0l-0.1,0.1c-0.3,0.3-0.5,0.6-0.8,0.9l-0.4,0.5c-0.7,0.9-1.4,1.9-2.1,2.8
	c-0.5,0.7-1.1,1.4-1.6,2.2c-1.1,1.5-2.1,3.1-3.1,4.6l-0.3,0.5l-0.4,0.8c-0.3,0.5-0.6,1.1-0.9,1.6c-0.7,1.2-1.3,2.4-2,3.5
	c-0.1,0.3-0.3,0.6-0.5,0.9c-0.6,1.1-1.1,2.2-1.6,3.3c-0.5,1-1,2-1.4,3.1c-1,2.2-1.9,4.5-2.6,6.8c-0.2,0.6-0.5,1.3-0.7,2l0,0
	c-0.1,0.2-0.1,0.4-0.2,0.7c-0.6,2-1.2,4-1.7,6l0,0v0.1c-2,8-3,16.2-3,24.4v139.8v0.2c0,1.9,0.1,3.9,0.2,5.8l0.1,1.8
	c0.1,1.6,0.3,3.3,0.5,4.9c0.1,0.4,0.1,0.8,0.1,1.3c0.3,2,0.6,3.9,0.9,5.8l0.3,1.6c0.3,1.5,0.6,3,1,4.5c0.1,0.5,0.3,1.1,0.4,1.6
	c0.6,2.3,1.3,4.6,2.1,6.9c0.5,1.5,1,3,1.6,4.5l0.7,1.7c0.7,1.8,1.5,3.6,2.3,5.3l0.3,0.6c0.8,1.6,1.6,3.2,2.4,4.8l0.3,0.6
	c0.2,0.4,0.4,0.8,0.7,1.2c0.6,1,1.2,2.1,1.8,3.1c0.3,0.6,0.7,1.1,1,1.7c1,1.5,1.9,3,2.9,4.5c0.1,0.2,0.3,0.4,0.4,0.5
	c0.9,1.3,1.9,2.6,2.9,3.9l1.1,1.4c0.8,1,1.6,1.9,2.4,2.9c0.4,0.4,0.8,1,1.3,1.4c0.9,1,1.9,2,2.8,3l0.9,1c1.3,1.3,2.6,2.5,3.9,3.6
	c0.4,0.3,0.8,0.6,1.1,0.9c1,0.9,2,1.7,3.1,2.5c0.5,0.4,1,0.8,1.5,1.1c1,0.7,2,1.5,3,2.1c1.9,1.3,3.9,2.6,6,3.7
	c0.2,0.1,0.4,0.2,0.6,0.3c1.4,0.8,2.9,1.6,4.4,2.2l1.7,0.8c1.1,0.5,2.3,1,3.4,1.5c0.6,0.2,1.2,0.5,1.9,0.7c1.2,0.5,2.5,0.9,3.7,1.3
	c0.5,0.1,1,0.3,1.5,0.5c1.7,0.5,3.5,1,5.3,1.4c0.5,0.1,1.1,0.2,1.7,0.4c1.3,0.3,2.6,0.5,3.9,0.7c0.7,0.1,1.4,0.2,2.1,0.3
	c1.3,0.2,2.5,0.3,3.8,0.4c0.7,0.1,1.4,0.1,2.1,0.2c1.7,0.1,3.5,0.2,5.3,0.2h0.6c2.6,0,5.2-0.1,7.8-0.3c2.7-0.2,5.3-0.5,8-1l61.3-9.3
	l5-0.7l-1.4-36.4l-0.7-19.5l-0.1-2.3l-0.1-2.4l-0.1-1.6h-71c-0.9,0-1.9-0.1-2.8-0.2c-0.4,0-0.8-0.1-1.2-0.2c-1-0.1-2.1-0.4-3.1-0.7
	h-0.1c-0.7-0.2-1.3-0.4-1.9-0.6c-0.3-0.1-0.7-0.2-1-0.4c-0.9-0.4-1.8-0.8-2.7-1.2c-0.1-0.1-0.2-0.1-0.3-0.2
	c-0.8-0.5-1.6-0.9-2.3-1.5c-0.3-0.2-0.5-0.4-0.8-0.6c-0.6-0.4-1.1-0.8-1.6-1.3c-0.3-0.3-0.5-0.5-0.8-0.7c-0.5-0.5-1-1-1.5-1.6
	c-0.2-0.2-0.4-0.4-0.6-0.7c-0.7-0.8-1.3-1.5-1.8-2.4c0,0,0-0.1-0.1-0.1c-0.4-0.7-0.8-1.3-1.2-2c-0.1-0.2-0.2-0.5-0.4-0.7
	c-0.3-0.5-0.5-1-0.7-1.6c-0.1-0.2-0.2-0.5-0.3-0.7c-0.3-0.7-0.5-1.4-0.8-2.1c0-0.1-0.1-0.1-0.1-0.2c-0.2-0.8-0.4-1.6-0.6-2.3
	l-0.1-0.8c-0.1-0.6-0.2-1.1-0.3-1.7l-0.1-0.9c-0.1-0.8-0.1-1.6-0.1-2.3v-0.2v-32h91.8c20.2,0.1,36.6-16.2,36.7-36.3
	c0-0.1,0-0.3,0-0.4V235C609.5,234.7,609.5,234.3,609.5,234L609.5,234z M481,269.4V235c0-15.4,12.4-27.8,27.8-27.8c0.1,0,0.3,0,0.4,0
	c0.7,0,1.3,0,2,0.1c0.3,0,0.7,0.1,1,0.1c0.5,0.1,1,0.1,1.5,0.2l1,0.2c0.5,0.1,1,0.2,1.5,0.4c0.3,0.1,0.6,0.1,0.9,0.2
	c0.7,0.2,1.5,0.5,2.2,0.8c0.2,0.1,0.4,0.2,0.6,0.3c0.5,0.2,1,0.5,1.5,0.8c0.3,0.2,0.5,0.3,0.8,0.5c0.7,0.4,1.4,0.9,2.1,1.3
	c0.5,0.3,0.9,0.7,1.4,1.1c0.2,0.1,0.4,0.3,0.5,0.4c0.6,0.5,1.2,1,1.7,1.6l0.4,0.5c0.4,0.4,0.8,0.9,1.2,1.3l0.5,0.6
	c0.5,0.7,1,1.3,1.4,2c0.4,0.6,0.8,1.2,1.1,1.9c0,0.1,0.1,0.1,0.1,0.2c0.4,0.7,0.7,1.5,1.1,2.3c0.1,0.2,0.1,0.4,0.2,0.6
	c0.2,0.4,0.3,0.8,0.5,1.2l0,0c0.1,0.2,0.1,0.4,0.2,0.6c0.1,0.3,0.2,0.6,0.3,0.8c0.2,0.8,0.4,1.7,0.6,2.6c0.1,0.6,0.2,1.2,0.3,1.8
	c0.1,1.1,0.2,2.3,0.2,3.4v34.4h-51.9L481,269.4L481,269.4z M377.8,12.3v0.8V12.3l0.2-4.6c-0.5-0.3-1.2-0.7-2-1.1
	c-0.2-0.1-0.4-0.2-0.6-0.3c0.2,0.1,0.4,0.2,0.6,0.3l0,0c-0.2-0.1-0.5-0.2-0.8-0.3c-0.2-0.1-0.4-0.2-0.6-0.3c-0.1,0-0.2-0.1-0.3-0.1
	c-0.3-0.1-0.6-0.2-0.9-0.4c-0.4-0.1-0.7-0.3-1.2-0.4c-0.6-0.2-1.1-0.4-1.7-0.6c0,0-0.1,0-0.2,0c-0.7-0.2-1.5-0.4-2.2-0.7
	c-0.2,0-0.3-0.1-0.5-0.1h-0.1l0,0h-0.2c-0.3-0.1-0.7-0.2-1-0.3c-0.2-0.1-0.5-0.1-0.7-0.2L365.2,3c-0.2,0-0.3-0.1-0.5-0.1l-0.3-0.1
	c-0.6-0.1-1.1-0.3-1.7-0.4l0,0l-0.6-0.1c-0.7-0.1-1.3-0.3-2.1-0.4l-0.5-0.1L359,1.6c-0.6-0.1-1.2-0.2-1.8-0.3l0,0
	c-0.2,0-0.3,0-0.5-0.1c-0.1,0-0.1,0-0.2,0c-0.8-0.1-1.5-0.2-2.3-0.3l0,0l-0.6-0.1c-0.1,0-0.1,0-0.1,0l0,0h-0.2
	c-0.7-0.1-1.4-0.2-2.1-0.2l0,0c-0.3,0-0.6-0.1-0.8-0.1c-0.8-0.1-1.6-0.1-2.3-0.2h-0.5H347h-0.1c-0.7,0-1.4-0.1-2.1-0.1L344,0h-0.4
	h-0.2l0,0c-0.7,0-1.4,0-2.1,0c-1.6,0-3.1,0-4.7,0.1H336l-1,0.2c-1.1,0.1-2.1,0.1-3.2,0.3c-0.6,0.1-1.2,0.1-1.8,0.2
	c-1.6,0.2-3.1,0.4-4.7,0.7c-1,0.2-2,0.4-2.9,0.6c-0.5,0.1-1.1,0.2-1.6,0.4c-1.1,0.3-2.2,0.6-3.3,0.9c-0.4,0.1-0.8,0.2-1.2,0.3
	c-1.5,0.4-2.9,0.9-4.4,1.4c-0.4,0.1-0.8,0.3-1.3,0.5c-1,0.4-2,0.7-3.1,1.1c-0.5,0.1-1,0.3-1.5,0.6c-0.9,0.4-1.7,0.7-2.6,1.1
	l-1.6,0.7c-1.3,0.6-2.5,1.2-3.8,1.9c-0.3,0.2-0.7,0.3-1,0.5c-1.5,0.8-3,1.7-4.4,2.6l0,0l-1.3,0.8c0.3-0.2,0.6-0.4,0.9-0.6
	c-0.3,0.2-0.6,0.4-0.9,0.6c-0.3,0.2-0.6,0.4-1,0.6c-0.8,0.5-1.5,1-2.3,1.5c-0.4,0.3-0.9,0.6-1.3,0.9c-1.4,1-2.8,2-4.1,3.1l0,0
	c-0.3,0.2-0.6,0.5-0.8,0.7c0.2-0.2,0.4-0.4,0.7-0.6c-0.2,0.2-0.5,0.4-0.7,0.6c-0.6,0.4-1.1,0.9-1.6,1.4c-0.5,0.4-1.1,0.9-1.6,1.3
	c-0.2,0.1-0.3,0.3-0.5,0.4l-0.8,0.7c-1.1,0.9-2.1,1.9-3.1,2.9l-0.8,0.7c-0.6,0.7-1.3,1.3-1.9,2l-1.7,1.7l-1.1,1.2l0,0l0,0
	c-0.9,1-1.7,1.9-2.5,2.9l0,0c-0.3,0.4-0.7,0.8-1,1.2c-0.6,0.8-1.2,1.6-1.9,2.4c-0.4,0.6-0.9,1.1-1.3,1.7c-0.1,0.1-0.2,0.2-0.3,0.4
	c-0.2,0.2-0.3,0.4-0.5,0.7l-0.6,0.8c-0.6,0.9-1.2,1.7-1.8,2.6l-0.5,0.8c-0.1,0.2-0.3,0.4-0.4,0.6l0,0c-0.8,1.3-1.6,2.6-2.4,4
	c-0.1,0.2-0.3,0.4-0.4,0.6l0,0c-0.9,1.5-1.7,3-2.5,4.6c-0.1,0.1-0.1,0.2-0.2,0.4c-0.2,0.4-0.3,0.7-0.5,1.1l0,0
	c-0.6,1.2-1.2,2.5-1.8,3.7l0,0c-0.2,0.4-0.4,0.8-0.6,1.3c-0.2,0.4-0.3,0.8-0.5,1.2c-0.5,1.2-1,2.4-1.5,3.6c0,0.1-0.1,0.1-0.1,0.2
	l-0.4,1c-0.2,0.6-0.4,1.2-0.6,1.9c-0.2,0.7-0.5,1.4-0.7,2.2c-0.1,0.2-0.1,0.4-0.2,0.5c-0.1,0.3-0.2,0.7-0.3,1
	c-0.4,1.4-0.8,2.7-1.2,4.2c-0.1,0.3-0.2,0.7-0.3,1l0,0l0,0l-0.1,0.4l0.1-0.4l0,0c-0.1,0.3-0.1,0.7-0.2,1c0.1-0.2,0.1-0.4,0.1-0.6
	c-0.4,1.8-0.9,3.7-1.2,5.6c0,0.1,0,0.1,0,0.2v0.3c-0.3,1.8-0.6,3.5-0.8,5.3c-0.1,0.6-0.1,1.2-0.2,1.8c-0.2,1.3-0.3,2.7-0.4,4
	c-0.2,2.4-0.3,4.8-0.3,7.3v0.3v443l3.2-0.2l70.3-3.9v-266h55.1v-73.4H314l0,0l0,0V106c0-15.4,12.4-27.8,27.2-27.8H375l2.7-64.3
	L377.8,12.3l0.2-4.6C378,7.7,377.8,12.3,377.8,12.3z M73.6,15.6v0.2L3.3,11.3l-3.2-0.2v460.3h73.4V15.8L73.6,15.6L73.6,15.6z"/>
<g>
	<path class="st0" d="M198.9,75.3L198.9,75.3L198.9,75.3c0-0.5-0.1-0.9-0.2-1.2V74c-0.1-0.9-0.2-1.9-0.4-2.8v-0.1
		c-0.1-0.5-0.2-1-0.4-1.5l0,0c-0.1-0.4-0.2-0.7-0.3-1.1s-0.2-0.8-0.3-1.2c-0.2-0.5-0.4-1.1-0.5-1.6l0,0c-0.2-0.5-0.4-1.1-0.6-1.6
		l-0.2-0.6l0,0l-0.4-1l0,0c-0.3-0.8-0.7-1.6-1.1-2.3l0,0c-0.2-0.3-0.4-0.7-0.6-1l0,0c-0.3-0.5-0.6-1-0.9-1.5c-0.2-0.4-0.4-0.7-0.7-1
		l0,0l0,0c-0.1-0.2-0.2-0.3-0.3-0.5l0,0c-0.7-1-1.4-2-2.2-2.9l0,0l0,0c-0.2-0.3-0.4-0.5-0.6-0.8l0,0c-0.6-0.7-1.2-1.4-1.8-2
		c-0.1-0.1-0.2-0.2-0.3-0.3l-0.5-0.5c-0.1-0.1-0.3-0.2-0.4-0.4c-0.5-0.5-1.1-1-1.7-1.5c-0.2-0.2-0.4-0.4-0.6-0.6
		c-0.5-0.4-1-0.7-1.5-1.1c-0.5-0.4-1-0.8-1.5-1.1c-0.2-0.2-0.4-0.3-0.7-0.4c-0.6-0.4-1.2-0.7-1.8-1.1c-0.5-0.4-1.1-0.7-1.7-1
		c-0.8-0.4-1.6-0.8-2.5-1.2c-0.3-0.1-0.6-0.3-0.9-0.4c-0.8-0.4-1.7-0.6-2.6-1c-0.3-0.1-0.6-0.2-0.9-0.3c-0.2-0.1-0.4-0.1-0.5-0.1
		c-1-0.3-2.1-0.6-3.1-0.8c-0.4-0.1-0.8-0.2-1.1-0.2c-0.5-0.1-1-0.1-1.5-0.2c-0.4-0.1-0.8-0.1-1.3-0.2c-0.4,0-0.8-0.1-1.1-0.1h-0.1
		c-1.2-0.1-2.5-0.2-3.7-0.2l0,0c-1.4,0-2.8,0.1-4.1,0.2c-0.5,0-0.9,0.1-1.4,0.2c-0.9,0.1-1.8,0.2-2.7,0.4c-0.5,0.1-1.1,0.3-1.6,0.4
		c-0.7,0.2-1.5,0.3-2.2,0.6h-0.1l0,0c-0.6,0.2-1.1,0.4-1.7,0.6c-0.7,0.3-1.4,0.5-2.1,0.8l0,0c-0.6,0.2-1.1,0.5-1.6,0.8l-1,0.5
		c-0.9,0.4-1.7,0.9-2.6,1.4c-0.6,0.3-1.1,0.7-1.7,1l-0.1,0.1c-0.5,0.3-1,0.7-1.5,1.1c-0.6,0.4-1.1,0.8-1.7,1.2l0,0
		c-0.5,0.4-0.9,0.8-1.4,1.2l-0.4,0.4c-0.4,0.3-0.8,0.7-1.1,1c-0.4,0.4-0.9,0.9-1.3,1.3c-0.5,0.5-1,1-1.4,1.6c-0.3,0.3-0.6,0.7-0.9,1
		l-0.3,0.4c-0.2,0.3-0.4,0.6-0.6,0.9c-0.2,0.3-0.4,0.6-0.6,0.8l0,0c-0.2,0.3-0.4,0.5-0.5,0.8c-0.1,0.2-0.3,0.5-0.5,0.7
		c-0.3,0.5-0.6,1-0.9,1.5c-0.1,0.1-0.1,0.2-0.2,0.3l0,0c-0.3,0.5-0.6,1.1-0.9,1.6l0,0c-0.1,0.2-0.2,0.5-0.3,0.7
		c-0.2,0.4-0.4,0.8-0.6,1.2l0,0c-0.3,0.5-0.5,1.1-0.7,1.6l0,0c-0.3,0.7-0.5,1.4-0.8,2l0,0c-0.2,0.6-0.4,1.1-0.5,1.7l0,0
		c-0.1,0.4-0.2,0.8-0.3,1.1c-0.1,0.3-0.2,0.7-0.3,1l0,0c-0.1,0.3-0.2,0.7-0.3,1c-0.1,0.2-0.1,0.5-0.1,0.7l0,0c0,0.2-0.1,0.4-0.1,0.6
		c-0.1,0.6-0.2,1.1-0.3,1.7V74c-0.1,0.6-0.2,1.1-0.2,1.7l0,0c0,0.2,0,0.4,0,0.5c-0.1,1.1-0.2,2.2-0.2,3.3c0,1.3,0.1,2.6,0.2,3.8
		c0,0.3,0.1,0.6,0.1,0.9c0.1,1.1,0.3,2.3,0.5,3.4l0.1,0.4c0.2,1.2,0.6,2.4,0.9,3.6l0.3,0.9c0.3,1,0.7,1.9,1.1,2.9
		c0.1,0.2,0.2,0.4,0.3,0.7c0.6,1.4,1.3,2.7,2,4c0.2,0.4,0.5,0.8,0.7,1.2c0.3,0.4,0.5,0.9,0.8,1.3c0.1,0.2,0.3,0.4,0.4,0.6
		c0.8,1.2,1.7,2.3,2.6,3.4c0.7,0.8,1.3,1.5,2.1,2.3c0.1,0.1,0.3,0.3,0.5,0.5c1,1,2.1,2,3.2,2.9c0.8,0.7,1.7,1.3,2.5,1.9l0.4,0.3
		c2.2,1.4,4.4,2.7,6.8,3.7l0.3,0.1c1.1,0.5,2.3,0.9,3.5,1.3c0.2,0.1,0.5,0.1,0.7,0.2c1.2,0.4,2.4,0.7,3.6,0.9
		c1.2,0.3,2.5,0.4,3.8,0.6c0.2,0,0.5,0.1,0.7,0.1c2.7,0.3,5.4,0.3,8.1,0c0.2,0,0.4-0.1,0.6-0.1c1.2-0.1,2.3-0.3,3.5-0.5
		c0.4-0.1,0.7-0.2,1.1-0.3c0.9-0.2,1.9-0.4,2.8-0.7c0.4-0.1,0.9-0.3,1.3-0.5c0.8-0.3,1.7-0.6,2.5-0.9c0.5-0.2,0.9-0.4,1.4-0.6
		c0.7-0.3,1.5-0.7,2.2-1.1c0.5-0.2,0.9-0.5,1.4-0.8c0.7-0.4,1.4-0.8,2-1.2c0.5-0.3,0.9-0.6,1.4-1c0.6-0.4,1.2-0.9,1.8-1.4
		c0.4-0.4,0.9-0.7,1.3-1.1c0.6-0.5,1.1-1,1.7-1.5c0.4-0.4,0.8-0.8,1.2-1.2c0.9-1,1.8-2,2.6-3c1.3-1.6,2.4-3.3,3.4-5.1
		c0.3-0.5,0.6-1.1,0.9-1.6c0.6-1.2,1.2-2.4,1.7-3.6c0.3-0.7,0.5-1.3,0.7-2c0.2-0.6,0.4-1.2,0.6-1.8c0.2-0.7,0.4-1.4,0.5-2.1
		c0.1-0.6,0.3-1.3,0.4-1.9c0.1-0.7,0.2-1.4,0.3-2.1c0.1-0.6,0.2-1.3,0.2-2c0-0.2,0-0.5,0-0.8c0.1-1,0.1-1.9,0.1-2.9
		C199.1,78,199,76.7,198.9,75.3L198.9,75.3z M120.4,138.6v332.8h73.4V142.7L120.4,138.6z"/>
</g>
</svg>
