<svg version="1.1" id="Layer_1" xmlns="http://www.w3.org/2000/svg" xmlns:xlink="http://www.w3.org/1999/xlink" x="0" y="0" viewBox="0 0 60 32.8" xml:space="preserve"><style>.st1{fill:#fff}</style><defs><circle id="SVGID_9_" cx="-258.2" cy="-93.5" r="14"/></defs><clipPath id="SVGID_2_"><use xlink:href="#SVGID_9_" overflow="visible"/></clipPath><g class="st12"><defs><path id="SVGID_11_" d="M-1091.2-663.5h1280v800h-1280z"/></defs><clipPath id="SVGID_4_"><use xlink:href="#SVGID_11_" overflow="visible"/></clipPath></g><g><path class="st1" d="M24.8 17.9c-.4.3-.6.6-.6 1.1 0 .3.1.6.3.8.2.2.5.3.8.3.1 0 .3 0 .4-.1.4-.1.8-.3 1.2-.5v-2.6c-1 .4-1.7.8-2.1 1z"/><path class="st1" d="M59.7 7.4c-.1-.9-.3-1.6-.5-2.2-.2-.6-.5-1.1-.9-1.5-.3-.4-.7-.7-1.2-1-.5-.3-1.2-.6-2-.8-1.5-.4-3.4-.7-6-1-2-.2-4.3-.4-6.8-.6C39.6.1 33.5 0 30.1 0c-3.4 0-9.6.1-12.3.2-2.5.1-4.8.3-6.8.6-2.6.3-4.5.6-6 1-.9.2-1.6.5-2.1.8-.5.3-.9.6-1.2 1-.4.5-.6 1-.9 1.6-.2.6-.4 1.3-.5 2.2C0 9.2 0 12.1 0 14.6s0 5.3.3 7.2c.1.9.3 1.6.5 2.2.2.6.5 1.1.9 1.5.3.4.7.7 1.2 1 .5.3 1.2.6 2 .8 1.5.4 3.4.7 6 1 2 .2 4.3.4 6.8.6 2.7.1 8.9.2 12.3.2 3.4 0 9.5-.1 12.2-.2 1 0 2-.1 2.9-.2l1-.1.9.5 6.3 3.7v-4.9l2.2-.7c.7-.2 1.2-.5 1.7-.8.4-.3.8-.6 1.1-.9.4-.4.6-.9.9-1.5.2-.6.4-1.3.5-2.2.3-1.9.3-4.7.3-7.2s0-5.4-.3-7.2zM8.5 6.7c.9 0 1.6.7 1.6 1.6s-.7 1.6-1.6 1.6c-.9 0-1.6-.7-1.6-1.6s.7-1.6 1.6-1.6zm1.6 14c0 .9-.7 1.6-1.6 1.6-.9 0-1.6-.7-1.6-1.6v-7.6c0-.9.7-1.6 1.6-1.6.9 0 1.6.7 1.6 1.6v7.6zm7.2-1c.2 0 .4-.1.6-.2.2-.1.4-.2.7-.2.7 0 1.2.5 1.2 1.2 0 .4-.2.8-.6 1-.8.5-1.8.8-2.8.8-.9 0-1.8-.4-2.4-1-.6-.6-1-1.5-1-2.4v-4.8h-.2c-.7 0-1.2-.5-1.2-1.2 0-.3.1-.5.2-.7L14 9.1c.2-.3.6-.5 1-.5.7 0 1.2.5 1.2 1.2v2h2.4c.7 0 1.2.5 1.2 1.2s-.5 1.2-1.2 1.2h-2.4v4.5c0 .6.5 1 1.1 1zm12.9 2.4h-1.6c-.3 0-.7-.1-1-.3-.3-.2-.5-.4-.6-.7-.8.8-1.8 1.2-2.9 1.2-1.6 0-2.9-1.3-2.9-2.9 0-1.1.6-2 1.5-2.5.5-.3 1.6-.7 2.5-1 .9-.3 1.7-.6 1.8-.6v-1c0-.7-.5-1.2-1.2-1.2-.4 0-.8.2-1 .6-.1.2-.1.3-.2.5-.1.3-.3.5-.5.7-.3.2-.6.3-.9.3-.8 0-1.5-.7-1.5-1.5 0-.4.1-.7.4-1 .2-.3.6-.5 1-.7.5-.2 1.4-.5 2.9-.5 1.4 0 2.4.3 3 .8.8.7 1.3 1.8 1.3 3.5v3.8c0 .3.2.5.4.6.4.2.6.5.6.9-.1.6-.5 1-1.1 1zm5.6-1.4c0 .9-.7 1.6-1.6 1.6-.9 0-1.6-.7-1.6-1.6V8.3c0-.9.7-1.6 1.6-1.6.9 0 1.6.7 1.6 1.6v12.4zm10.8 1.6c-.5 0-.9-.2-1.3-.6l-3.9-4.8v3.8c0 .9-.7 1.6-1.6 1.6s-1.6-.7-1.6-1.6V8.3c0-.9.7-1.6 1.6-1.6s1.6.7 1.6 1.6v8.6l3.9-4.8c.3-.4.8-.6 1.3-.6.9 0 1.6.7 1.6 1.6 0 .4-.1.7-.4 1l-2.3 2.8 2.3 2.8c.2.3.4.6.4 1 0 .9-.7 1.6-1.6 1.6zm5.1-15.6c.9 0 1.6.7 1.6 1.6s-.7 1.6-1.6 1.6-1.6-.7-1.6-1.6.7-1.6 1.6-1.6zm1.6 14c0 .9-.7 1.6-1.6 1.6-.9 0-1.6-.7-1.6-1.6v-7.6c0-.9.7-1.6 1.6-1.6.9 0 1.6.7 1.6 1.6v7.6z"/></g></svg>