<svg width="51" height="32" viewBox="0 0 51 32" fill="none" xmlns="http://www.w3.org/2000/svg">
<path fill-rule="evenodd" clip-rule="evenodd" d="M50.7495 7.75156C50.617 6.89028 50.4845 6.22776 50.2194 5.56523C49.9544 4.83645 49.5569 4.17391 49.1594 3.64389C48.2981 2.6501 47.1056 1.92133 45.4492 1.45756C44.1905 1.06006 42.6005 0.861313 40.4805 0.596315L40.4803 0.596289C38.8902 0.397532 37.0352 0.265018 35.0476 0.132513C32.9275 8.0855e-06 28.1573 0 25.5735 0C22.9896 0 18.0869 0.0662607 15.9669 0.132513C13.9793 0.265018 12.1242 0.397532 10.5342 0.596289C8.41408 0.8613 6.82402 1.1263 5.56522 1.45756C3.90891 1.92133 2.71636 2.6501 1.85507 3.64389C1.39131 4.17391 1.06004 4.83645 0.795029 5.56523C0.530018 6.22776 0.397511 6.89028 0.265006 7.75156C0.0662485 9.27537 0 11.3292 0 13.648C0 15.9006 0.0662485 18.0207 0.265006 19.5445C0.397511 20.4058 0.530018 21.0683 0.795029 21.7309C1.06004 22.4596 1.45756 23.1222 1.85507 23.6522C2.71636 24.646 3.90891 25.3747 5.56522 25.8385C6.82402 26.236 8.41408 26.4348 10.5342 26.6998C12.1242 26.8986 13.913 27.031 15.9669 27.1636C18.0869 27.2961 22.9234 27.2961 25.5735 27.2961C28.1573 27.2961 32.9275 27.2298 35.0476 27.1636C35.4361 27.1312 35.8088 27.1146 36.1733 27.0984C36.5549 27.0815 36.9275 27.0649 37.3002 27.0311L45.8468 32V25.7723C47.3043 25.3085 48.2981 24.646 49.0931 23.7184C49.5569 23.1884 49.8882 22.5259 50.1532 21.7971C50.4182 21.1346 50.5507 20.472 50.6832 19.6108C50.882 18.087 50.9482 16.0331 50.9482 13.7143C51.0145 11.3292 50.9482 9.27537 50.7495 7.75156ZM48.2981 19.147C48.2319 19.8095 48.0994 20.3396 47.9006 20.8033C47.7018 21.2671 47.5031 21.6646 47.2381 21.9959C47.0393 22.2609 46.7743 22.5259 46.443 22.7246C46.1118 22.9234 45.648 23.1222 45.118 23.3209L43.3954 23.8509V25.6398V27.6273L38.4927 24.8447L37.8302 24.4472L37.1014 24.5134C36.737 24.5466 36.3726 24.5631 36.0082 24.5797C35.6439 24.5963 35.2795 24.6128 34.9151 24.646C32.8613 24.7785 28.1573 24.7785 25.5735 24.7785C22.9234 24.7785 18.1532 24.7122 16.0994 24.646C14.6067 24.5945 13.1941 24.463 11.9235 24.3448L11.9227 24.3447L11.9208 24.3446C11.5569 24.3107 11.2046 24.2779 10.8654 24.2484C8.87785 23.9834 7.42029 23.7847 6.22775 23.4534C5.63147 23.2547 5.10144 23.0559 4.63767 22.7909C4.30641 22.5921 3.97515 22.3271 3.71014 21.9959C3.44513 21.6646 3.24637 21.2671 3.04761 20.8033C2.84885 20.3396 2.71634 19.8095 2.65009 19.147C2.45133 17.6895 2.38509 15.5694 2.38509 13.648V13.6479C2.38509 11.7266 2.38509 9.54036 2.65009 8.14908C2.71634 7.48655 2.84885 6.95653 3.04761 6.49276C3.24637 6.029 3.44513 5.63147 3.71014 5.30021C3.97515 4.96894 4.24015 4.7702 4.63767 4.50519C5.03518 4.24018 5.56522 4.04142 6.22775 3.84266C7.35404 3.5114 8.8116 3.31263 10.8654 3.04762C12.3892 2.84886 14.1781 2.71637 16.0994 2.58387C18.1532 2.45136 22.9234 2.45135 25.5735 2.45135C28.1573 2.45135 32.8613 2.51761 34.9151 2.58387C36.8364 2.65012 38.6252 2.84886 40.149 3.04762L40.2875 3.06607C42.2075 3.32198 43.6867 3.51913 44.7867 3.84266C45.383 4.04142 45.913 4.24018 46.3768 4.50519C46.708 4.70394 47.0393 4.96894 47.3043 5.30021C47.5693 5.63147 47.7681 6.029 47.9669 6.49276C48.1656 6.95653 48.2981 7.48655 48.3644 8.14908C48.5631 9.60663 48.6294 11.7267 48.6294 13.648L48.6157 14.0351V14.0351C48.5534 15.8004 48.4832 17.7897 48.2981 19.147ZM37.4327 15.437L39.2215 17.557C39.4203 17.822 39.4865 18.0871 39.4865 18.2858C39.4865 19.0146 38.8903 19.5446 38.2277 19.5446C37.8302 19.5446 37.499 19.3459 37.234 19.0809L34.1863 15.437V18.3521C34.1863 19.0808 33.5901 19.6109 32.9275 19.6109C32.1988 19.6109 31.6687 19.0146 31.6687 18.3521V8.81171C31.6687 8.08293 32.265 7.55291 32.9275 7.55291C33.6563 7.55291 34.1863 8.14918 34.1863 8.81171V15.3707L37.234 11.7268C37.499 11.4618 37.8302 11.263 38.2277 11.263C38.9565 11.263 39.4865 11.8593 39.4865 12.5219C39.4865 12.8531 39.4203 13.1181 39.2215 13.3169L37.4327 15.437ZM28.7536 7.61912C28.0911 7.61912 27.4948 8.14916 27.4948 8.87794V18.4183C27.4948 19.0808 28.0249 19.6771 28.7536 19.6771C29.4162 19.6771 30.0124 19.1471 30.0124 18.4183V8.87794C30.0124 8.14916 29.4162 7.61912 28.7536 7.61912ZM16.7619 13.3168C17.2919 13.3168 17.6894 12.9193 17.6894 12.3893C17.6894 11.8592 17.2919 11.4617 16.7619 11.4617H14.9068V9.9379C14.9068 9.40788 14.5093 9.01037 13.9793 9.01037C13.648 9.01037 13.383 9.14288 13.1843 9.40789L11.5279 11.8592C11.3954 11.9917 11.3292 12.1905 11.3292 12.3893C11.3292 12.9193 11.7267 13.3168 12.2567 13.3168H12.3892V17.0269C12.3892 17.7557 12.6542 18.352 13.1843 18.882C13.648 19.3458 14.3105 19.677 15.0393 19.677C15.7681 19.677 16.5631 19.4783 17.2256 19.0808C17.4907 18.882 17.6894 18.617 17.6894 18.2857C17.6894 17.7557 17.2919 17.3582 16.7619 17.3582C16.5631 17.3582 16.3644 17.4244 16.2319 17.5569C16.0993 17.6894 15.9006 17.6895 15.7681 17.6895C15.3043 17.6895 14.9731 17.2919 14.9731 16.8944V13.383H16.7619V13.3168ZM26.0373 17.9545C25.8385 17.8882 25.706 17.6895 25.706 17.4907V14.6418C25.706 13.383 25.3748 12.4555 24.7122 11.9255C24.1822 11.528 23.4534 11.3292 22.3934 11.3292C21.2671 11.3292 20.5383 11.528 20.1408 11.7267C19.8095 11.8592 19.5445 12.058 19.412 12.2567C19.2133 12.4555 19.147 12.7205 19.147 13.0518C19.147 13.7143 19.677 14.1781 20.2733 14.1781C20.5383 14.1781 20.8033 14.1118 21.0021 13.9131C21.1452 13.8176 21.2196 13.6878 21.2996 13.5484L21.2996 13.5484C21.3306 13.4943 21.3625 13.4387 21.3996 13.383C21.4286 13.3249 21.445 13.2668 21.4597 13.2143C21.4786 13.1471 21.4949 13.089 21.5321 13.0518C21.6646 12.7868 21.9959 12.588 22.3271 12.588C22.8572 12.588 23.2547 12.9855 23.2547 13.5156V14.2443C23.1884 14.2443 22.5921 14.4431 21.8634 14.7081C21.6647 14.7876 21.4481 14.8671 21.2315 14.9465L21.2315 14.9465L21.2315 14.9466L21.2314 14.9466L21.2314 14.9466L21.2314 14.9466L21.2314 14.9466L21.2313 14.9466L21.2313 14.9466C20.7258 15.1321 20.2203 15.3176 19.942 15.5031C19.2133 15.9006 18.8158 16.6294 18.8158 17.4245C18.8158 18.617 19.8095 19.6108 21.0021 19.6108C21.8634 19.6108 22.6584 19.2795 23.2547 18.6832C23.3872 18.882 23.5197 19.0808 23.7184 19.2133C23.9172 19.3458 24.1822 19.412 24.4472 19.412H25.706C26.1035 19.412 26.501 19.0808 26.501 18.617C26.4348 18.352 26.3023 18.087 26.0373 17.9545ZM23.2547 17.4245C22.9897 17.6232 22.6584 17.7557 22.3271 17.822C22.2609 17.822 22.2112 17.8385 22.1615 17.8551C22.1118 17.8717 22.0621 17.8882 21.9959 17.8882C21.7309 17.8882 21.5321 17.822 21.3333 17.6895C21.2008 17.557 21.1346 17.3582 21.1346 17.0932C21.1346 16.7619 21.2671 16.4969 21.5321 16.2982C21.7971 16.0994 22.3934 15.8344 23.1884 15.5031V17.4245H23.2547ZM7.75151 12.5218C7.75151 11.793 8.34778 11.263 9.0103 11.263C9.67283 11.263 10.2691 11.8593 10.2691 12.5218V18.352C10.2691 19.0808 9.73908 19.6108 9.0103 19.6108C8.28152 19.6108 7.75151 19.0146 7.75151 18.352V12.5218ZM40.9441 12.5218C40.9441 11.793 41.5404 11.263 42.2029 11.263C42.8654 11.263 43.3955 11.8593 43.4617 12.5218V18.352C43.4617 19.0808 42.8654 19.6108 42.2029 19.6108C41.4741 19.6108 40.9441 19.0146 40.9441 18.352V12.5218ZM9.0103 10.0705C9.67283 10.0705 10.2691 9.54049 10.2691 8.81171C10.2691 8.14918 9.73908 7.55291 9.0103 7.55291C8.34778 7.55291 7.75151 8.08293 7.75151 8.81171C7.75151 9.54049 8.34778 10.0705 9.0103 10.0705ZM43.4617 8.81171C43.4617 9.54049 42.8654 10.0705 42.2029 10.0705C41.4741 10.0705 40.9441 9.54049 40.9441 8.81171C40.9441 8.08293 41.5404 7.55291 42.2029 7.55291C42.9317 7.55291 43.4617 8.14918 43.4617 8.81171Z" fill="#FF4338"/>
</svg>
