<?xml version="1.0" encoding="utf-8"?>
<!-- Generator: Adobe Illustrator 21.0.0, SVG Export Plug-In . SVG Version: 6.00 Build 0)  -->
<svg version="1.1" id="Layer_1" xmlns="http://www.w3.org/2000/svg" xmlns:xlink="http://www.w3.org/1999/xlink" x="0px" y="0px"
	 viewBox="0 0 131 50" style="enable-background:new 0 0 131 50;" xml:space="preserve">
<style type="text/css">
	.st0{fill:#B2B2B2;}
</style>
<title>logo/post</title>
<desc>Created with Sketch.</desc>
<g id="Symbols">
	<g id="logo_x2F_post">
		<g id="the-huffington-post-01" transform="translate(0.090909, 0.000000)">
			<path id="Shape" class="st0" d="M51.3,9.7c0,1.9,0,2.1,1.1,2.2l0.6,0.1c0.1,0.1,0.1,0.4,0,0.4c-1,0-1.6-0.1-2.3-0.1
				s-1.3,0-2.5,0.1c-0.1-0.1-0.1-0.4,0-0.4l0.6-0.1c1-0.1,1.1-0.4,1.1-2.2v-8c0-0.6,0-0.6-0.5-0.6h-1c-0.8,0-1.7,0-2.2,0.4
				c-0.4,0.4-0.6,0.8-0.8,1.2c-0.1,0.1-0.4,0-0.5-0.1c0.3-0.8,0.6-1.9,0.7-2.6c0.1,0,0.3-0.1,0.3,0c0.1,0.6,0.7,0.6,1.5,0.6h7.2
				c1,0,1.1,0,1.4-0.5c0.1,0,0.3,0,0.3,0.1C56.1,0.9,56,2.3,56,2.8c-0.1,0.1-0.4,0.1-0.5,0c-0.1-0.4-0.2-1.1-0.4-1.3
				C54.7,1.3,54,1.1,53,1.1h-1.3c-0.5,0-0.5,0-0.5,0.6L51.3,9.7z M62.6,6.6c-0.9,0-0.9,0-0.9,0.6v2.5c0,1.9,0.1,2.1,1.1,2.2l0.5,0.1
				c0.1,0.1,0.1,0.4,0,0.4c-1,0-1.6-0.1-2.3-0.1c-0.8,0-1.4,0-2.1,0.1c-0.1-0.1-0.1-0.3,0-0.4l0.3-0.1c1-0.2,1-0.4,1-2.2V3.2
				c0-1.9-0.1-2.2-1.1-2.2l-0.5,0c-0.1-0.1-0.1-0.4,0-0.4c0.9,0,1.5,0.1,2.2,0.1c0.7,0,1.3,0,2.1-0.1c0.1,0.1,0.1,0.4,0,0.4l-0.3,0
				c-1,0.1-1.1,0.4-1.1,2.2v2c0,0.6,0,0.6,0.9,0.6h5.1c0.9,0,0.9,0,0.9-0.6v-2c0-1.9,0-2.1-1.1-2.2l-0.3,0c-0.1-0.1-0.1-0.4,0-0.4
				c0.7,0,1.4,0.1,2.2,0.1c0.7,0,1.3,0,2.1-0.1c0.1,0.1,0.1,0.4,0,0.4l-0.4,0c-1,0.1-1.1,0.4-1.1,2.2v6.4c0,1.9,0,2.1,1.1,2.2
				l0.4,0.1c0.1,0.1,0.1,0.4,0,0.4c-0.7,0-1.4-0.1-2.2-0.1c-0.7,0-1.4,0-2.2,0.1c-0.1-0.1-0.1-0.3,0-0.4l0.3-0.1
				c1.1-0.2,1.1-0.4,1.1-2.2V7.1c0-0.5,0-0.6-0.9-0.6L62.6,6.6z M76,3.2C76,1.4,76,1.1,75,1l-0.3,0c-0.1-0.1-0.1-0.4,0-0.4
				c0.8,0,1.4,0.1,2.1,0.1h3.4c1.1,0,2.2,0,2.4-0.1c0.1,0.3,0.2,1.6,0.3,2.4c-0.1,0.1-0.4,0.1-0.4,0c-0.3-0.8-0.4-1.5-1.4-1.7
				c-0.4-0.1-0.9-0.1-1.7-0.1H78c-0.5,0-0.5,0-0.5,0.7v3.6c0,0.5,0.1,0.5,0.6,0.5h1c0.7,0,1.3,0,1.5-0.1c0.2-0.1,0.3-0.2,0.4-0.6
				l0.1-0.7c0.1-0.1,0.4-0.1,0.5,0c0,0.4-0.1,1.1-0.1,1.8c0,0.6,0.1,1.3,0.1,1.7c-0.1,0.1-0.4,0.1-0.5,0l-0.2-0.7
				C81,7,80.9,6.7,80.5,6.6c-0.2-0.1-0.7-0.1-1.4-0.1h-1c-0.5,0-0.6,0-0.6,0.5v2.5c0,0.9,0.1,1.5,0.3,1.9c0.2,0.2,0.6,0.4,2.2,0.4
				c1.4,0,1.9-0.1,2.3-0.3c0.3-0.2,0.8-0.8,1.3-1.7c0.1-0.1,0.4,0,0.4,0.1c-0.1,0.6-0.6,2-0.8,2.5c-1.6,0-3.2-0.1-4.8-0.1h-1.6
				c-0.8,0-1.4,0-2.4,0.1c-0.1-0.1-0.1-0.3,0-0.4l0.6-0.1c1-0.1,1.1-0.4,1.1-2.2L76,3.2z M3.9,25.3c-0.9,0-0.9,0-0.9,0.6v2.5
				c0,1.9,0.1,2.1,1.1,2.2l0.5,0.1c0.1,0.1,0.1,0.4,0,0.4C3.6,31,3,31,2.3,31c-0.8,0-1.4,0-2.1,0.1c-0.1-0.1-0.1-0.3,0-0.4l0.3-0.1
				c1-0.2,1-0.4,1-2.2v-6.4c0-1.9-0.1-2.2-1-2.2l-0.5,0c-0.1-0.1-0.1-0.4,0-0.4c0.9,0,1.5,0.1,2.2,0.1c0.7,0,1.3,0,2.1-0.1
				c0.1,0.1,0.1,0.4,0,0.4l-0.3,0c-1,0.1-1.1,0.4-1.1,2.2v2c0,0.6,0,0.6,0.9,0.6H9c0.9,0,0.9,0,0.9-0.6v-2c0-1.9,0-2.1-1.1-2.2
				l-0.3,0c-0.1-0.1-0.1-0.4,0-0.4c0.8,0,1.4,0.1,2.2,0.1c0.7,0,1.3,0,2.1-0.1c0.1,0.1,0.1,0.4,0,0.4l-0.4,0c-1,0.1-1.1,0.4-1.1,2.2
				v6.4c0,1.9,0,2.1,1.1,2.2l0.4,0.1c0.1,0.1,0.1,0.4,0,0.4c-0.7,0-1.4-0.1-2.2-0.1c-0.7,0-1.4,0-2.2,0.1c-0.1-0.1-0.1-0.3,0-0.4
				l0.3-0.1c1.1-0.2,1.1-0.4,1.1-2.2v-2.5c0-0.5,0-0.6-0.9-0.6H3.9z M25.8,23.7c0-1.1,0-3.1-0.3-3.7c-0.1-0.2-0.4-0.3-0.9-0.4
				l-0.4,0c-0.1-0.1-0.1-0.4,0-0.4c0.7,0,1.4,0.1,2,0.1c0.7,0,1.2,0,1.9-0.1c0.1,0.1,0.1,0.3,0,0.4l-0.4,0c-0.4,0-0.8,0.2-0.9,0.4
				c-0.2,0.6-0.2,2.6-0.2,3.6v2c0,1.5-0.2,3.2-1.2,4.3c-0.8,0.8-2.1,1.3-3.4,1.3c-1.2,0-2.5-0.2-3.3-1c-0.9-0.8-1.4-2.1-1.4-4.2
				v-4.2c0-1.9,0-2.2-1.1-2.2l-0.4,0c-0.1-0.1-0.1-0.4,0-0.4c0.9,0,1.5,0.1,2.2,0.1c0.7,0,1.3,0,2.2-0.1c0.1,0.1,0.1,0.4,0,0.4
				l-0.4,0c-1,0.1-1.1,0.4-1.1,2.2v3.9c0,2.9,0.9,4.7,3.6,4.7c2.6,0,3.6-2,3.6-4.7L25.8,23.7z M33.6,24.3c0,0.5,0.1,0.5,0.6,0.5h1.2
				c0.7,0,1.3,0,1.5-0.1c0.2-0.1,0.3-0.2,0.4-0.6l0.2-0.7c0.1-0.1,0.4-0.1,0.5,0c0,0.4-0.1,1.1-0.1,1.8c0,0.6,0.1,1.3,0.1,1.7
				c-0.1,0.1-0.3,0.1-0.5,0l-0.2-0.7c-0.1-0.3-0.2-0.6-0.6-0.7c-0.2-0.1-0.7-0.1-1.4-0.1h-1.2c-0.5,0-0.6,0-0.6,0.5v2.5
				c0,1.9,0,2.1,1.1,2.2l0.6,0.1c0.1,0.1,0.1,0.4,0,0.4c-1.1,0-1.7-0.1-2.4-0.1c-0.8,0-1.4,0-2.2,0.1c-0.1-0.1-0.1-0.3,0-0.4
				l0.4-0.1c1-0.1,1.1-0.4,1.1-2.2v-6.4c0-1.9,0-2.1-1.1-2.2l-0.3,0c-0.1-0.1-0.1-0.4,0-0.4c0.7,0,1.4,0.1,2.1,0.1h3.3
				c1.1,0,2.2,0,2.4-0.1c0,0.8,0,1.7,0.1,2.4c-0.1,0.1-0.3,0.2-0.4,0.1c-0.1-0.8-0.4-1.5-1.2-1.7c-0.4-0.1-1-0.1-1.7-0.1h-1.1
				c-0.5,0-0.5,0-0.5,0.7L33.6,24.3z M44.3,24.3c0,0.5,0.1,0.5,0.6,0.5h1.2c0.7,0,1.3,0,1.5-0.1c0.2-0.1,0.3-0.2,0.4-0.6l0.2-0.7
				c0.1-0.1,0.4-0.1,0.5,0c0,0.4-0.1,1.1-0.1,1.8c0,0.6,0.1,1.3,0.1,1.7c-0.1,0.1-0.3,0.1-0.5,0L48,26.2c-0.1-0.3-0.2-0.6-0.6-0.7
				c-0.2-0.1-0.7-0.1-1.4-0.1h-1.2c-0.5,0-0.6,0-0.6,0.5v2.5c0,1.9,0,2.1,1.1,2.2l0.6,0.1c0.1,0.1,0.1,0.4,0,0.4
				c-1.1,0-1.7-0.1-2.4-0.1c-0.8,0-1.4,0-2.2,0.1c-0.1-0.1-0.1-0.3,0-0.4l0.4-0.1c1-0.1,1.1-0.4,1.1-2.2v-6.4c0-1.9,0-2.1-1.1-2.2
				l-0.3,0c-0.1-0.1-0.1-0.4,0-0.4c0.7,0,1.4,0.1,2.1,0.1h3.3c1.1,0,2.2,0,2.4-0.1c0,0.8,0,1.7,0.1,2.4c-0.1,0.1-0.3,0.2-0.4,0.1
				c-0.1-0.8-0.4-1.5-1.2-1.7c-0.4-0.1-1-0.1-1.7-0.1h-1.1c-0.5,0-0.5,0-0.5,0.7L44.3,24.3z M53.6,22c0-1.9,0-2.2-1.1-2.3l-0.4,0
				c-0.1-0.1-0.1-0.4,0-0.4c0.9,0,1.5,0.1,2.2,0.1c0.7,0,1.3,0,2.2-0.1c0.1,0.1,0.1,0.4,0,0.4l-0.4,0c-1.1,0.1-1.1,0.4-1.1,2.3v6.3
				c0,1.9,0,2.1,1.1,2.3l0.4,0.1c0.1,0.1,0.1,0.4,0,0.4c-0.9,0-1.5-0.1-2.2-0.1c-0.7,0-1.4,0-2.2,0.1c-0.1-0.1-0.1-0.3,0-0.4
				l0.4-0.1c1.1-0.1,1.1-0.4,1.1-2.3V22z M70.7,28c0,0.5,0,2.6,0.1,3.1c0,0.1-0.1,0.2-0.3,0.2c-0.2-0.3-0.7-0.9-2.3-2.7L64,23.9
				c-0.5-0.6-1.7-2-2.1-2.4h0c-0.1,0.2-0.1,0.6-0.1,1.2v3.9c0,0.8,0,3.1,0.3,3.7c0.1,0.2,0.5,0.3,0.9,0.3l0.6,0.1
				c0.1,0.1,0.1,0.4,0,0.4c-0.7,0-1.4-0.1-2.1-0.1c-0.7,0-1.2,0-1.9,0.1c-0.1-0.1-0.1-0.3,0-0.4l0.5-0.1c0.4-0.1,0.7-0.2,0.8-0.4
				c0.2-0.6,0.2-2.8,0.2-3.7v-5.1c0-0.5,0-0.9-0.4-1.3c-0.2-0.2-0.7-0.4-1.1-0.4l-0.3,0c-0.1-0.1-0.1-0.4,0-0.4
				c0.7,0.1,1.7,0.1,2,0.1c0.3,0,0.6,0,0.8-0.1c0.4,0.9,2.5,3.3,3,3.9l1.7,1.9c1.2,1.4,2.1,2.4,2.9,3.2h0c0.1-0.1,0.1-0.4,0.1-0.7
				v-3.8c0-0.8,0-3.1-0.4-3.7c-0.1-0.2-0.4-0.3-1.1-0.4l-0.3,0c-0.1-0.1-0.1-0.4,0-0.4c0.8,0,1.4,0.1,2.1,0.1c0.8,0,1.2,0,1.8-0.1
				c0.1,0.1,0.1,0.3,0,0.4l-0.2,0c-0.6,0.1-0.9,0.2-1,0.4c-0.3,0.6-0.3,2.8-0.3,3.7V28z M85.2,29.2c0,0.7,0.1,1.1,0.4,1.3
				c0.1,0.1,0,0.2,0,0.2l0,0c-0.2,0-0.5,0.1-0.9,0.2c-0.9,0.3-2.2,0.5-3.2,0.5c-2.1,0-4.1-0.6-5.4-2c-1.1-1.1-1.6-2.5-1.6-4
				c0-1.5,0.5-3,1.6-4.2c1.2-1.2,3-2.1,5.6-2.1c1,0,2,0.2,2.3,0.3c0.3,0.1,0.9,0.2,1.1,0.2c0,0.6,0.1,1.5,0.3,2.6
				c-0.1,0.1-0.4,0.2-0.5,0.1c-0.5-1.9-1.8-2.5-3.7-2.5c-3.5,0-5,2.5-5,5.1c0,3.4,1.8,6.1,5.3,6.1c1.1,0,1.8-0.2,2-0.5
				c0.1-0.1,0.2-0.4,0.2-1v-0.7c0-1.5-0.1-1.6-1.2-1.7l-0.8-0.1c-0.1-0.1-0.1-0.4,0-0.4c0.5,0,1.5,0.1,2.6,0.1c0.7,0,1.3,0,1.9-0.1
				c0.1,0.1,0.1,0.3,0,0.4l-0.3,0c-0.7,0.1-0.8,0.6-0.8,1.5L85.2,29.2z M94.6,28.3c0,1.9,0,2.1,1.1,2.2l0.6,0.1
				c0.1,0.1,0.1,0.4,0,0.4c-1,0-1.6-0.1-2.3-0.1c-0.7,0-1.3,0-2.5,0.1c-0.1-0.1-0.1-0.4,0-0.4l0.6-0.1c1-0.1,1.1-0.4,1.1-2.2v-7.9
				c0-0.6,0-0.6-0.5-0.6h-1c-0.8,0-1.7,0-2.2,0.4c-0.4,0.4-0.6,0.8-0.8,1.2c-0.1,0.1-0.4,0-0.5-0.1c0.3-0.8,0.6-1.9,0.7-2.6
				c0.1,0,0.3-0.1,0.3,0c0.1,0.6,0.7,0.6,1.5,0.6h7.2c1,0,1.1,0,1.4-0.5c0.1,0,0.3,0,0.3,0.1c-0.2,0.7-0.3,2.2-0.3,2.7
				c-0.1,0.1-0.4,0.1-0.5,0c-0.1-0.4-0.2-1.1-0.4-1.3c-0.4-0.3-1.1-0.4-2.1-0.4h-1.3c-0.5,0-0.5,0-0.5,0.6L94.6,28.3z M101.5,25.3
				c0-3.6,2.7-6.3,6.3-6.3c4.1,0,6.2,3,6.2,6.1c0,3.6-2.7,6.2-6.2,6.2C103.8,31.3,101.5,28.5,101.5,25.3z M112.2,25.6
				c0-2.9-1.3-6.1-4.7-6.1c-1.9,0-4.3,1.3-4.3,5.2c0,2.6,1.3,6.1,4.8,6.1C110.2,30.7,112.2,29.1,112.2,25.6z M127.5,28
				c0,0.5,0,2.6,0.1,3.1c0,0.1-0.1,0.2-0.3,0.2c-0.2-0.3-0.7-0.9-2.3-2.7l-4.1-4.7c-0.5-0.6-1.7-2-2.1-2.4h0
				c-0.1,0.2-0.1,0.6-0.1,1.2v3.9c0,0.8,0,3.1,0.3,3.7c0.1,0.2,0.5,0.3,0.9,0.3l0.6,0.1c0.1,0.1,0.1,0.4,0,0.4
				c-0.7,0-1.4-0.1-2.1-0.1c-0.7,0-1.2,0-1.9,0.1c-0.1-0.1-0.1-0.3,0-0.4l0.5-0.1c0.4-0.1,0.7-0.2,0.8-0.4c0.2-0.6,0.2-2.8,0.2-3.7
				v-5.1c0-0.5,0-0.9-0.4-1.3c-0.2-0.2-0.7-0.4-1.1-0.4l-0.3,0c-0.1-0.1-0.1-0.4,0-0.4c0.7,0.1,1.7,0.1,2,0.1c0.3,0,0.6,0,0.8-0.1
				c0.4,0.9,2.5,3.3,3,3.9l1.7,1.9c1.2,1.4,2.1,2.4,2.9,3.2h0c0.1-0.1,0.1-0.4,0.1-0.7v-3.8c0-0.8,0-3.1-0.4-3.7
				c-0.1-0.2-0.4-0.3-1.1-0.4l-0.3,0c-0.1-0.1-0.1-0.4,0-0.4c0.8,0,1.4,0.1,2.1,0.1c0.8,0,1.2,0,1.8-0.1c0.1,0.1,0.1,0.3,0,0.4
				l-0.3,0c-0.6,0.1-0.9,0.2-1,0.4c-0.3,0.6-0.3,2.8-0.3,3.7L127.5,28z M44.2,47c0,1.9,0,2.1,1.2,2.2l0.5,0.1c0.1,0.1,0.1,0.4,0,0.4
				c-1,0-1.6-0.1-2.3-0.1c-0.7,0-1.4,0-2.2,0.1c-0.1-0.1-0.1-0.3,0-0.4l0.4-0.1c1-0.1,1.1-0.4,1.1-2.2v-6.6c0-1.5,0-1.8-0.8-1.9
				l-0.6-0.1c-0.1-0.1-0.1-0.4,0-0.4c0.9-0.1,2-0.1,3.5-0.1c1.5,0,2.6,0.2,3.4,0.7c0.8,0.5,1.4,1.4,1.4,2.7c0,1.6-1,2.5-1.8,2.8
				c-0.8,0.4-1.7,0.5-2.5,0.5c-0.1-0.1-0.1-0.3,0-0.4c1.9-0.4,2.6-1.4,2.6-3c0-1.7-1-2.8-2.9-2.8c-0.9,0-1,0.1-1,0.6L44.2,47z
				 M52.2,43.9c0-3.6,2.7-6.3,6.3-6.3c4.1,0,6.2,3,6.2,6.1c0,3.6-2.7,6.2-6.2,6.2C54.6,50,52.2,47.1,52.2,43.9z M62.9,44.3
				c0-2.9-1.3-6.1-4.7-6.1c-1.9,0-4.3,1.3-4.3,5.2c0,2.6,1.3,6,4.8,6C60.9,49.4,62.9,47.8,62.9,44.3z M70.6,50
				c-1.5,0-2.4-0.5-2.8-0.7c-0.2-0.4-0.4-1.7-0.5-2.5c0.1-0.1,0.4-0.2,0.4-0.1c0.3,0.9,1,2.6,3.1,2.6c1.5,0,2.2-1,2.2-2
				c0-0.8-0.2-1.7-1.5-2.5l-1.7-1.1C69,43.2,68,42.2,68,40.7c0-1.7,1.3-3.1,3.6-3.1c0.6,0,1.2,0.1,1.7,0.2c0.2,0.1,0.5,0.1,0.6,0.1
				c0.2,0.4,0.3,1.4,0.3,2.2c-0.1,0.1-0.4,0.2-0.4,0.1c-0.2-0.9-0.7-2-2.4-2c-1.7,0-2.1,1.2-2.1,2c0,1,0.9,1.8,1.5,2.2l1.4,0.9
				c1.1,0.7,2.2,1.7,2.2,3.4C74.4,48.6,72.9,50,70.6,50z M83.3,47c0,1.9,0,2.1,1.1,2.2l0.6,0.1c0.1,0.1,0.1,0.4,0,0.4
				c-1,0-1.6-0.1-2.3-0.1s-1.3,0-2.5,0.1c-0.1-0.1-0.1-0.4,0-0.4l0.6-0.1c1-0.1,1.1-0.4,1.1-2.2v-8c0-0.6,0-0.6-0.5-0.6h-1
				c-0.8,0-1.7,0-2.2,0.4c-0.4,0.4-0.6,0.8-0.8,1.2c-0.1,0.1-0.4,0-0.5-0.1c0.3-0.8,0.6-1.9,0.7-2.6c0.1,0,0.3-0.1,0.3,0
				c0.1,0.6,0.7,0.6,1.5,0.6h7.2c1,0,1.1,0,1.4-0.5c0.1,0,0.3,0,0.3,0.1c-0.2,0.7-0.3,2.2-0.3,2.7c-0.1,0.1-0.4,0.1-0.5,0
				c-0.1-0.4-0.2-1.1-0.4-1.3c-0.4-0.3-1.1-0.4-2.1-0.4h-1.3c-0.5,0-0.5,0-0.5,0.6L83.3,47z"/>
		</g>
	</g>
</g>
</svg>
