<?xml version="1.0" encoding="utf-8"?>
<!-- Generator: Adobe Illustrator 21.0.0, SVG Export Plug-In . SVG Version: 6.00 Build 0)  -->
<svg version="1.1" id="Layer_1" xmlns="http://www.w3.org/2000/svg" xmlns:xlink="http://www.w3.org/1999/xlink" x="0px" y="0px"
	 viewBox="0 0 117 19" style="enable-background:new 0 0 117 19;" xml:space="preserve">
<style type="text/css">
	.st0{fill:#B2B2B2;}
</style>
<title>logo/quartz</title>
<desc>Created with Sketch.</desc>
<g id="Symbols">
	<g id="logo_x2F_quartz">
		<g id="quartz-01" transform="translate(0.439394, 0.363636)">
			<path id="Shape" class="st0" d="M15.9,14c1.1-1.5,1.7-3.3,1.7-5.2c0-4.9-4-8.8-8.8-8.8C4,0,0,4,0,8.8c0,4.9,4,8.8,8.8,8.8
				c1.8,0,3.6-0.6,5.1-1.7l2.2,2.2l2-2L15.9,14z M13.9,12l-3.3-3.3l-2,2l3.2,3.2c-0.9,0.6-2,0.9-3.1,0.9c-3.3,0-6-2.7-6-6s2.7-6,6-6
				c3.3,0,6,2.7,6,6C14.9,10,14.5,11.1,13.9,12z M97.1,0.4v2.8h-5.2v14h-2.8v-14h-5.2V0.4H97.1z M53.3,0.4h-3.4l-6.5,16.8h3l1.2-3.3
				h8l1.2,3.3h3L53.3,0.4z M48.7,11.4l2.9-7.6l2.9,7.6H48.7z M116.4,3.2L107,14.4h9.4v2.8h-13.1v-3l9.4-11h-8.8V0.5h12.4V3.2z
				 M38,0.4v10.6c0,3.6-2.9,6.5-6.5,6.5s-6.5-2.9-6.5-6.5V0.4h2.8v10.6c-0.1,2.1,1.6,3.8,3.7,3.8c2.1,0,3.8-1.7,3.7-3.8V0.4H38z
				 M74.6,11.6c1.9-1,3.2-2.9,3.2-5.2c0-3.1-2.5-5.8-5.7-5.9h-6.2v16.8h2.8v-5.1h2.6l5.9,5.9l2-1.9L74.6,11.6z M71.9,9.4h-3.2V3.3
				h3.2c1.7,0,3.1,1.4,3.1,3.1S73.7,9.4,71.9,9.4z"/>
		</g>
	</g>
</g>
</svg>
