<?xml version="1.0" encoding="utf-8"?>
<!-- Generator: Adobe Illustrator 21.0.0, SVG Export Plug-In . SVG Version: 6.00 Build 0)  -->
<svg version="1.1" id="Layer_1" xmlns="http://www.w3.org/2000/svg" xmlns:xlink="http://www.w3.org/1999/xlink" x="0px" y="0px"
	 viewBox="0 0 121 22" style="enable-background:new 0 0 121 22;" xml:space="preserve">
<style type="text/css">
	.st0{fill:#B2B2B2;}
	.st1{filter:url(#Adobe_OpacityMaskFilter);}
	.st2{fill:#FFFFFF;}
	.st3{mask:url(#mask-2);fill:#B2B2B2;}
	.st4{filter:url(#Adobe_OpacityMaskFilter_1_);}
	.st5{mask:url(#mask-4);fill:#B2B2B2;}
</style>
<title>logo/theguardian</title>
<desc>Created with Sketch.</desc>
<g id="Symbols">
	<g id="logo_x2F_theguardian">
		<g id="Page-1" transform="translate(0.287879, 0.545455)">
			<path id="Fill-1" class="st0" d="M98.4,5.9l-0.8,2.2h-1.9V5.3c1-0.3,2.4-0.8,4.3-0.8c2.9,0,4.4,1.1,4.4,3.6v5.9l1.3,0.5v0.9
				c-0.3,0.2-1.4,0.4-2.3,0.4c-1.1,0-2-0.4-2.2-1.5h-0.1c-0.5,1-1.8,1.5-3.1,1.5c-1.9,0-3.1-1.2-3.1-3c0-2.2,1.5-2.7,3.8-3.2
				l2.1-0.4V7.9c0-1.4-0.4-2.1-1.8-2.1C98.9,5.9,98.6,5.9,98.4,5.9 M100.9,13.4v-3l-0.8,0.1c-0.8,0.1-1.5,0.6-1.5,1.7
				c0,1.2,0.7,1.7,1.3,1.7C100.3,13.9,100.7,13.7,100.9,13.4"/>
			<path id="Fill-3" class="st0" d="M59.5,5.9l-0.8,2.2h-1.9V5.3c1-0.3,2.4-0.8,4.3-0.8c2.9,0,4.4,1.1,4.4,3.6v5.9l1.3,0.5v0.9
				c-0.4,0.2-1.4,0.4-2.3,0.4c-1.1,0-2-0.4-2.2-1.5h-0.1c-0.5,1-1.8,1.5-3.1,1.5c-1.9,0-3.1-1.2-3.1-3c0-2.2,1.5-2.7,3.8-3.2L62,9.2
				V7.9c0-1.4-0.4-2.1-1.8-2.1C60.1,5.9,59.7,5.9,59.5,5.9 M62,13.4v-3l-0.8,0.1c-0.8,0.1-1.5,0.6-1.5,1.7c0,1.2,0.7,1.7,1.3,1.7
				C61.4,13.9,61.8,13.7,62,13.4"/>
			<g id="Group-7" transform="translate(0.000000, 1.315356)">
				<g id="Clip-6">
				</g>
				<defs>
					<filter id="Adobe_OpacityMaskFilter" filterUnits="userSpaceOnUse" x="0" y="0.8" width="7.7" height="13.6">
						<feColorMatrix  type="matrix" values="1 0 0 0 0  0 1 0 0 0  0 0 1 0 0  0 0 0 1 0"/>
					</filter>
				</defs>
				<mask maskUnits="userSpaceOnUse" x="0" y="0.8" width="7.7" height="13.6" id="mask-2">
					<g class="st1">
						<polygon id="path-1" class="st2" points="0,0.8 7.7,0.8 7.7,14.4 0,14.4 						"/>
					</g>
				</mask>
				<path id="Fill-5" class="st3" d="M1.7,11.2v-6H0V3.6l1.7-0.2v-2l3.6-0.5v2.5h2.4v1.9H5.2v5.7c0,1.1,0.3,1.6,1.3,1.6
					c0.4,0,0.9,0,1.1-0.1v1.4c-0.6,0.3-1.8,0.6-2.9,0.6C2.6,14.4,1.7,13.5,1.7,11.2"/>
			</g>
			<path id="Fill-8" class="st0" d="M24.7,10.4h6.4c0-4.5-1.6-6-4.8-6c-3.2,0-5.3,2.1-5.3,5.6c0,3.7,1.9,5.7,5.6,5.7
				c2,0,3.6-0.9,4.1-1.6v-1.1c-0.7,0.2-1.5,0.4-2.9,0.4C25.9,13.5,24.9,12.5,24.7,10.4 M26.3,5.8c0.9,0,1.4,0.4,1.4,3.2l-3,0.2
				C24.7,6.6,25.2,5.8,26.3,5.8"/>
			<path id="Fill-10" class="st0" d="M39.3,13.2h-3.6c-0.5,0-0.9-0.4-0.9-0.7c0-0.3,0.1-0.7,0.3-0.9c0.6,0.2,1.3,0.3,2,0.3
				c2.8,0,4.7-1.2,4.7-3.6c0-1.1-0.4-1.7-1.1-2.3l0-0.1l1.9,0.6v-2h-0.2l-2.7,0.5h-0.2c-0.7-0.2-1.6-0.4-2.5-0.4
				c-2.8,0-4.7,1.3-4.7,3.7c0,1.4,0.6,2.5,1.8,3.1v0.1c-1,0.7-1.8,1.7-1.8,2.6c0,0.8,0.6,1.8,1.7,2.1v0.1c-1,0.3-2.4,0.7-2.4,1.9
				c0,1.4,1.8,2.4,5.2,2.4c4.2,0,6.1-1.7,6.1-4.3C43,14.1,41.6,13.2,39.3,13.2 M37.1,5.8c0.8,0,1.3,0.6,1.3,2.4
				c0,1.8-0.5,2.3-1.3,2.3c-0.8,0-1.3-0.5-1.3-2.3C35.8,6.3,36.3,5.8,37.1,5.8 M37,19.1c-2,0-2.8-0.5-2.8-1.2c0-0.5,0.2-1,0.5-1.3
				h4.2c0.9,0,1.6,0.1,1.6,0.9C40.5,18.6,39.4,19.1,37,19.1"/>
			<polygon id="Fill-12" class="st0" points="88.5,5.2 88.5,6.3 89.8,6.8 89.8,13.9 88.5,14.4 88.5,15.5 94.7,15.5 94.7,14.4 
				93.4,13.9 93.4,4.4 93.1,4.4 			"/>
			<path id="Fill-14" class="st0" d="M67.4,5.2v1.1l1.3,0.6v7.1l-1.3,0.5v1.1H74v-1.1l-1.7-0.5l0-5.9c0.6-0.3,1.4-0.4,2.4-0.4
				c0.3,0,0.7,0,0.9,0.1V4.6c-0.1,0-0.4-0.1-0.5-0.1c-1.2,0-2.1,0.8-2.8,2.2h-0.1V4.4h-0.3L67.4,5.2"/>
			<path id="Fill-16" class="st0" d="M91.6,0c1.1,0,1.9,0.9,1.9,1.9c0,1.1-0.9,1.9-1.9,1.9c-1.1,0-1.9-0.9-1.9-1.9
				C89.7,0.9,90.5,0,91.6,0"/>
			<path id="Fill-18" class="st0" d="M83,13.6V6.3c-0.3-0.2-0.6-0.4-1.2-0.4c-1.1,0-2,1-2,4.1c0,2.7,0.7,3.8,2.1,3.8
				C82.5,13.8,82.8,13.7,83,13.6 M83,2.4l-1.5-0.6V0.7L86.3,0h0.3v13.5l1.3,0.6v1.1l-4.4,0.5l-0.3,0v-1.1h-0.1
				c-0.4,0.6-1.4,1.2-2.7,1.2c-2,0-4.3-1.3-4.3-5.4c0-4.4,2.4-5.9,5.3-5.9c0.6,0,1.3,0.1,1.7,0.4V2.4"/>
			<path id="Fill-20" class="st0" d="M44.5,6.8l-1.3-0.6V5.2l4.6-0.7H48v7.6c0,1.2,0.6,1.4,1.5,1.4c0.7,0,0.9-0.1,1.3-0.3V6.8
				l-1.3-0.6V5.2l4.6-0.7h0.3v9.2l1.3,0.6v0.9l-4.5,0.5l-0.3,0l0-1.4h-0.1c-0.7,0.9-1.8,1.5-3.3,1.5c-2.2,0-3.1-1.5-3.1-3.4V6.8"/>
			<path id="Fill-22" class="st0" d="M8.4,14.4l1.3-0.5V2.4L8.3,1.8V0.7L12.9,0h0.3v5.9h0.1c1-0.9,2.3-1.4,3.7-1.4
				c1.8,0,2.7,0.9,2.7,2.9v6.5l1.3,0.5v1.1h-6v-1.1l1.1-0.5V8.3c0-1.1-0.5-1.5-1.5-1.5c-0.5,0-1,0.1-1.5,0.3v6.8l1.1,0.5v1.1h-6
				V14.4"/>
			<g id="Group-26" transform="translate(106.086957, 3.966871)">
				<g id="Clip-25">
				</g>
				<defs>
					<filter id="Adobe_OpacityMaskFilter_1_" filterUnits="userSpaceOnUse" x="0.2" y="0.5" width="12.7" height="11.1">
						<feColorMatrix  type="matrix" values="1 0 0 0 0  0 1 0 0 0  0 0 1 0 0  0 0 0 1 0"/>
					</filter>
				</defs>
				<mask maskUnits="userSpaceOnUse" x="0.2" y="0.5" width="12.7" height="11.1" id="mask-4">
					<g class="st4">
						<polygon id="path-3" class="st2" points="0.2,0.5 12.9,0.5 12.9,11.6 0.2,11.6 						"/>
					</g>
				</mask>
				<path id="Fill-24" class="st5" d="M0.3,10.5l1.3-0.5V2.9L0.2,2.3V1.2l4.6-0.7h0.3v1.4h0.1c1-0.9,2.3-1.4,3.7-1.4
					c1.8,0,2.7,0.9,2.7,2.9v6.5l1.3,0.5v1.1h-6v-1.1l1.1-0.5V4.3c0-1.1-0.5-1.5-1.5-1.5c-0.5,0-1,0.1-1.5,0.3v6.8l1.1,0.5v1.1h-6
					V10.5"/>
			</g>
		</g>
	</g>
</g>
</svg>
